<svg xmlns="http://www.w3.org/2000/svg" viewBox="0 0 168 50"><defs><style>.cls-1{fill:#284083;}.cls-2{fill:#ed3024;}.cls-3{fill:#eb2027;}.cls-4{fill:#fbed21;}.cls-5{fill:#47a648;}.cls-6{fill:#fff;}</style></defs><title>MBI Kedah Logo SVG</title><g id="MBI_Logo" data-name="MBI Logo"><path class="cls-1" d="M98.58,40.65c-1.85-.06-3.6,0-5.31-.21a8,8,0,0,1-5.94-4.28,31.67,31.67,0,0,1-1.62-3.72Q83,25.89,80.32,19.32c-.19-.47-.38-.95-.58-1.43a1.66,1.66,0,0,0-.39-.61c-.18.58-.36,1.15-.53,1.73q-1.56,5.35-3.11,10.73l-2.52,8.61A1.19,1.19,0,0,0,74.44,40H76c.13.62.12.65-.45.65H67.64c-.55,0-.55,0-.48-.65H70a2.31,2.31,0,0,0,2.37-1.82c.87-3,1.76-6,2.63-8.92q1.76-5.9,3.49-11.81c.09-.31.16-.63.28-.93a.81.81,0,0,0-.12-.87A8.64,8.64,0,0,0,76,13.16l-.39-.27.53,0c2.06,0,4.11,0,6.17,0A7.07,7.07,0,0,1,86.7,14.6a10.5,10.5,0,0,1,2.88,4.49c1.42,3.45,2.87,6.87,4.3,10.3l4,9.66C98.12,39.54,98.32,40,98.58,40.65Z"/><path class="cls-1" d="M91.7,12.86h6.51a7.1,7.1,0,0,1,4.39,1.62,9.15,9.15,0,0,1,2.72,3.88c1.76,4.27,3.55,8.53,5.33,12.78q1.88,4.49,3.74,9a4,4,0,0,1,.14.41s-.06.06-.08.06a49.16,49.16,0,0,1-5-.1,8.13,8.13,0,0,1-5.61-3.57,15.73,15.73,0,0,1-1.72-3.58c-1.7-4.09-3.37-8.19-5-12.28-.52-1.29-1-2.58-1.57-3.85a8.45,8.45,0,0,0-3.42-4L91.69,13Z"/><path class="cls-1" d="M150.68,40.56l-.46,0c-1.19,0-2.37,0-3.56,0a7.91,7.91,0,0,1-5.34-2.17,10.93,10.93,0,0,1-2.72-4.19c-1.94-4.83-3.93-9.63-5.91-14.44-.46-1.11-.88-2.25-1.43-3.33A7.85,7.85,0,0,0,128,13.08l-.25-.18c.26,0,.41,0,.56,0,2.06,0,4.11,0,6.17,0a7,7,0,0,1,4.48,1.8,10.57,10.57,0,0,1,2.74,4.27c1.54,3.77,3.13,7.52,4.71,11.28l4.2,10.07A2,2,0,0,1,150.68,40.56Z"/><path class="cls-1" d="M124.61,26c.14,0,.27.05.41.06a10.76,10.76,0,0,1,5.56,2,6.24,6.24,0,0,1,1.27,9,9.82,9.82,0,0,1-6.34,3.59,2.17,2.17,0,0,1-.36,0h-9.27c-.07,0-.15,0-.2,0a2.31,2.31,0,0,1-.29-.24c.09-.07.18-.19.28-.19.74-.06,1.5-.06,2.23-.16a6.84,6.84,0,0,0,4.06-1.9,6.17,6.17,0,0,0,1.8-4.21,7.66,7.66,0,0,0-2.07-5.86,6,6,0,0,0-4.65-1.9c-2.12,0-4.24,0-6.37,0-.17,0-.36,0-.37-.24s.17-.29.37-.29c1.87,0,3.73,0,5.6,0a6.35,6.35,0,0,0,6.32-6.17A5.7,5.7,0,0,0,121,15.06a5.58,5.58,0,0,0-4.06-1.87c-4.09,0-8.17,0-12.26,0a2.17,2.17,0,0,1-.36,0c-.06,0-.11-.08-.17-.13a.84.84,0,0,1,.18-.15.69.69,0,0,1,.25,0c6.15,0,12.3,0,18.45,0a8.42,8.42,0,0,1,6.21,2.46,5.34,5.34,0,0,1,.05,7.57A10.46,10.46,0,0,1,125,25.73l-.35.15Z"/><path class="cls-2" d="M130.38,11.19a4.61,4.61,0,0,1-4.52-4.67,4.56,4.56,0,1,1,9.11.23A4.62,4.62,0,0,1,130.38,11.19Z"/><path class="cls-1" d="M71,43l-.8,1.67c-.3.62-.55,1.17-.74,1.64h-.11c-.06-.16-.25-.57-.57-1.24l-1-2v2.09a2.84,2.84,0,0,0,.06.83c0,.06.16.1.36.1h.1v.17c-.25,0-.45,0-.61,0l-.68,0v-.17h.18a.35.35,0,0,0,.24-.06.25.25,0,0,0,.07-.18c0-.25,0-.53,0-.82V43.47a6.29,6.29,0,0,0,0-.73.18.18,0,0,0-.08-.14.56.56,0,0,0-.27-.05H67v-.17l.59,0a3.88,3.88,0,0,0,.44,0c.22.49.47,1,.76,1.61l.71,1.46.65-1.36c.23-.47.5-1,.79-1.71.23,0,.39,0,.48,0s.3,0,.57,0v.17h-.17q-.24,0-.3.09a1.88,1.88,0,0,0,0,.59v2a2.46,2.46,0,0,0,.06.76c0,.06.14.1.31.1H72v.17c-.25,0-.49,0-.72,0s-.51,0-.79,0v-.17h.18c.14,0,.23,0,.26-.1a3.63,3.63,0,0,0,0-.8Z"/><path class="cls-1" d="M72.79,44.92a1.13,1.13,0,0,0,.27.81.9.9,0,0,0,.68.27,1.27,1.27,0,0,0,.74-.25l0,0-.09.23a1.66,1.66,0,0,1-.46.19,1.61,1.61,0,0,1-.49.07,1.16,1.16,0,0,1-.88-.35,1.26,1.26,0,0,1-.34-.94,1.5,1.5,0,0,1,.19-.78,1.11,1.11,0,0,1,.46-.41,1.38,1.38,0,0,1,.65-.19,1,1,0,0,1,.76.29,1.06,1.06,0,0,1,.27.78v.16l-.34.06-.8,0Zm0-.2.92,0,.4,0v-.15a1.23,1.23,0,0,0-.1-.46.55.55,0,0,0-.21-.22.74.74,0,0,0-.34-.08A.58.58,0,0,0,73,44,1.07,1.07,0,0,0,72.79,44.72Z"/><path class="cls-1" d="M75.74,44.13l.41-.36a.65.65,0,0,1,.15-.1,1.13,1.13,0,0,1,.36-.06,1,1,0,0,1,.5.12.69.69,0,0,1,.3.31,1.4,1.4,0,0,1,.09.58v.85a1.5,1.5,0,0,0,0,.51.2.2,0,0,0,.2.09H78v.16a4.62,4.62,0,0,0-.5,0,3.47,3.47,0,0,0-.44,0,13.45,13.45,0,0,0,.06-1.43,1.46,1.46,0,0,0-.07-.51.49.49,0,0,0-.21-.24.69.69,0,0,0-.36-.1.73.73,0,0,0-.45.14.54.54,0,0,0-.22.29,2.82,2.82,0,0,0,0,.55c0,.33,0,.63,0,.92,0,.08,0,.14,0,.16a.3.3,0,0,0,.22.06h.19v.16c-.3,0-.55,0-.73,0s-.41,0-.65,0v-.16H75c.13,0,.21,0,.23-.09a9.61,9.61,0,0,0,0-1.12c0-.31,0-.55,0-.73a.21.21,0,0,0,0-.12A.45.45,0,0,0,75,44h-.2v-.15a3.94,3.94,0,0,0,.42-.08,2.22,2.22,0,0,0,.41-.14h0s0,0,0,.06v.47Z"/><path class="cls-1" d="M79,44.1v1.06a3.07,3.07,0,0,0,0,.53.33.33,0,0,0,.11.18.31.31,0,0,0,.21.07.4.4,0,0,0,.15,0,.44.44,0,0,0,.15-.1l.08.1-.26.31-.17,0-.16,0a.71.71,0,0,1-.34-.07.46.46,0,0,1-.2-.19.79.79,0,0,1-.06-.35V44.13a3.17,3.17,0,0,0-.43,0V44a3.46,3.46,0,0,0,.43-.19c0-.25,0-.53,0-.83a3.15,3.15,0,0,0,.45-.22l.07.06c0,.14,0,.47,0,1h.75l0,.27H79Z"/><path class="cls-1" d="M80.45,44.92a1.18,1.18,0,0,0,.28.81.9.9,0,0,0,.68.27,1.19,1.19,0,0,0,.37-.06,1.3,1.3,0,0,0,.37-.19l0,0-.09.23a1.66,1.66,0,0,1-.46.19,1.61,1.61,0,0,1-.49.07,1.2,1.2,0,0,1-.89-.35,1.3,1.3,0,0,1-.33-.94,1.5,1.5,0,0,1,.19-.78,1.11,1.11,0,0,1,.46-.41,1.38,1.38,0,0,1,.65-.19,1,1,0,0,1,.75.29,1,1,0,0,1,.28.78v.16l-.34.06-.8,0Zm0-.2.92,0,.39,0v-.15a1.22,1.22,0,0,0-.09-.46.55.55,0,0,0-.21-.22.74.74,0,0,0-.34-.08.58.58,0,0,0-.48.22A1.07,1.07,0,0,0,80.46,44.72Z"/><path class="cls-1" d="M83.46,44.23a2.28,2.28,0,0,0,.23-.27,1.14,1.14,0,0,1,.28-.27.57.57,0,0,1,.28-.08.57.57,0,0,1,.22,0,.05.05,0,0,1,0,.05v0a3.09,3.09,0,0,0-.05.61h-.12a.38.38,0,0,0-.15-.19.32.32,0,0,0-.2-.06.5.5,0,0,0-.3.11.51.51,0,0,0-.18.3,4.22,4.22,0,0,0,0,.76,5.53,5.53,0,0,0,0,.63c0,.07,0,.11,0,.12a.61.61,0,0,0,.3.06H84v.16c-.28,0-.54,0-.79,0s-.47,0-.71,0v-.16l.26,0A.44.44,0,0,0,83,46a.61.61,0,0,0,0-.27c0-.26,0-.56,0-.92a3.18,3.18,0,0,0,0-.76s-.1-.08-.22-.08h-.23v-.15a4.56,4.56,0,0,0,.47-.08,1.52,1.52,0,0,0,.36-.12l.07,0,0,0a.35.35,0,0,1,0,.07Z"/><path class="cls-1" d="M85.64,43.6l.06,0c0,.14,0,.29,0,.45,0,.53,0,.91,0,1.16a5,5,0,0,0,0,.6.18.18,0,0,0,0,.14.4.4,0,0,0,.19,0l.19,0v.16c-.27,0-.51,0-.72,0s-.43,0-.65,0v-.16L85,46c.09,0,.14,0,.16,0a.52.52,0,0,0,0-.26c0-.23,0-.54,0-.94s0-.5,0-.65a.14.14,0,0,0,0-.12A.31.31,0,0,0,85,44h-.21v-.15a3.7,3.7,0,0,0,.49-.09A3.29,3.29,0,0,0,85.64,43.6Zm-.22-1.19a.31.31,0,0,1,.31.31.29.29,0,0,1-.09.21.29.29,0,0,1-.22.09.31.31,0,0,1-.3-.3.29.29,0,0,1,.09-.22A.29.29,0,0,1,85.42,42.41Z"/><path class="cls-1" d="M89.69,44.05a1.43,1.43,0,0,1,.83.27.84.84,0,0,1,.26.64,1.14,1.14,0,0,1-.43.89,1.62,1.62,0,0,1-1.1.38H88V46.1a.58.58,0,0,0,.2-.12.26.26,0,0,0,0-.14c0-.22,0-.46,0-.74V43.42a2.54,2.54,0,0,0,0-.76c0-.07-.13-.11-.28-.11h-.19v-.17h1.85a1.17,1.17,0,0,1,.69.16.68.68,0,0,1,.29.58.76.76,0,0,1-.21.54A1.39,1.39,0,0,1,89.69,44.05Zm-.9-.07H89a1.21,1.21,0,0,0,.77-.19.67.67,0,0,0,.23-.54.59.59,0,0,0-.19-.48,1,1,0,0,0-.62-.17,2.12,2.12,0,0,0-.42,0c0,.22,0,.55,0,1Zm0,2,.42,0a1,1,0,0,0,.74-.25.94.94,0,0,0,.26-.69.91.91,0,0,0-.12-.49.61.61,0,0,0-.32-.27,1.81,1.81,0,0,0-.67-.09h-.31V45.5c0,.13,0,.22,0,.29A1.16,1.16,0,0,1,88.79,46Z"/><path class="cls-1" d="M91.65,44.92a1.18,1.18,0,0,0,.28.81.9.9,0,0,0,.68.27,1.19,1.19,0,0,0,.37-.06,1.3,1.3,0,0,0,.37-.19l.05,0-.09.23a1.66,1.66,0,0,1-.46.19,1.61,1.61,0,0,1-.49.07,1.16,1.16,0,0,1-.88-.35,1.26,1.26,0,0,1-.34-.94,1.5,1.5,0,0,1,.19-.78,1.11,1.11,0,0,1,.46-.41,1.38,1.38,0,0,1,.65-.19,1,1,0,0,1,.75.29,1,1,0,0,1,.28.78v.16l-.34.06-.8,0Zm0-.2.92,0,.39,0v-.15a1.22,1.22,0,0,0-.09-.46.55.55,0,0,0-.21-.22.74.74,0,0,0-.34-.08.58.58,0,0,0-.48.22A1.07,1.07,0,0,0,91.66,44.72Z"/><path class="cls-1" d="M94,45.4v.18a.62.62,0,0,0,0,.26.75.75,0,0,0,.28.17,1.16,1.16,0,0,0,.42.08.68.68,0,0,0,.45-.15.44.44,0,0,0,.17-.36.36.36,0,0,0-.1-.27.81.81,0,0,0-.39-.15A5.13,5.13,0,0,1,94.2,45a.71.71,0,0,1-.26-.22.58.58,0,0,1-.09-.33.72.72,0,0,1,.27-.58,1.09,1.09,0,0,1,.74-.23,2,2,0,0,1,.75.16,5.65,5.65,0,0,0,0,.61h-.16a.66.66,0,0,0,0-.31.49.49,0,0,0-.23-.18.69.69,0,0,0-.35-.08.61.61,0,0,0-.39.12.41.41,0,0,0-.15.32.32.32,0,0,0,.12.27,2,2,0,0,0,.64.2,2,2,0,0,1,.52.15.46.46,0,0,1,.19.2.57.57,0,0,1,.08.32.77.77,0,0,1-.31.62,1.24,1.24,0,0,1-.83.27,3.61,3.61,0,0,1-.75-.1c-.05,0-.07,0-.07-.06v0s0-.07,0-.14a3.91,3.91,0,0,0,0-.41V45.4Z"/><path class="cls-1" d="M96.36,44.35V44l.3-.17a1.93,1.93,0,0,1,.35-.15,1.07,1.07,0,0,1,.32,0,1,1,0,0,1,.6.17.67.67,0,0,1,.27.43,7.85,7.85,0,0,1,0,1c0,.48,0,.75,0,.8a.14.14,0,0,0,.14.08h.21v.18a4.2,4.2,0,0,0-.43,0,3.11,3.11,0,0,0-.4,0v-.48l-.56.43-.15.08-.2,0a.79.79,0,0,1-.54-.17.62.62,0,0,1-.18-.46.86.86,0,0,1,.13-.48.85.85,0,0,1,.37-.3,7.67,7.67,0,0,1,1.13-.25.79.79,0,0,0-.16-.51.62.62,0,0,0-.52-.22.88.88,0,0,0-.24,0,1,1,0,0,0-.21.1c-.06.13-.1.25-.15.37Zm1.43.43a3.45,3.45,0,0,0-1,.3.52.52,0,0,0-.2.44.44.44,0,0,0,.12.32.38.38,0,0,0,.3.12.68.68,0,0,0,.38-.12,1.22,1.22,0,0,0,.36-.33v-.73Z"/><path class="cls-1" d="M99.76,44.23A2.27,2.27,0,0,0,100,44a1,1,0,0,1,.28-.27.56.56,0,0,1,.27-.08.63.63,0,0,1,.23,0,.05.05,0,0,1,0,.05v0a3.09,3.09,0,0,0,0,.61h-.12a.38.38,0,0,0-.15-.19.34.34,0,0,0-.2-.06.48.48,0,0,0-.3.11.51.51,0,0,0-.18.3,3.93,3.93,0,0,0,0,.76,5.53,5.53,0,0,0,0,.63q0,.11.06.12a.61.61,0,0,0,.3.06h.16v.16c-.27,0-.53,0-.78,0s-.48,0-.71,0v-.16l.26,0a.34.34,0,0,0,.17,0s0-.12,0-.27,0-.56,0-.92a3.18,3.18,0,0,0,0-.76s-.1-.08-.22-.08h-.23v-.15l.47-.08a1.69,1.69,0,0,0,.36-.12l.06,0,0,0s0,0,0,.07Z"/><path class="cls-1" d="M104,44.1l1.84,1.71L106,46a.2.2,0,0,0,.1.07l.17,0v.17a2.62,2.62,0,0,0-.38,0,2.68,2.68,0,0,0-.39,0l-1.86-1.77a.38.38,0,0,0-.11-.09s-.06,0-.06.11v.82a5.8,5.8,0,0,0,0,.66c0,.06.13.1.3.1h.2v.17c-.29,0-.55,0-.78,0s-.5,0-.77,0v-.17h.22c.14,0,.23,0,.26-.08a2.79,2.79,0,0,0,0-.69V43.48a3.88,3.88,0,0,0,0-.83c0-.07-.12-.1-.26-.1h-.22v-.17c.33,0,.57,0,.72,0l.83,0v.17h-.21a.5.5,0,0,0-.24,0,.3.3,0,0,0-.06.17c0,.08,0,.32,0,.71v.73h0l.38-.33.52-.52.77-.8v-.19a4.63,4.63,0,0,0,.49,0,3.7,3.7,0,0,0,.45,0v.17H106a.67.67,0,0,0-.33.08,4.51,4.51,0,0,0-.62.52Z"/><path class="cls-1" d="M107,44.92a1.23,1.23,0,0,0,.27.81.91.91,0,0,0,.68.27,1.26,1.26,0,0,0,.38-.06,1.45,1.45,0,0,0,.37-.19l0,0-.08.23a1.72,1.72,0,0,1-.47.19,1.55,1.55,0,0,1-.48.07,1.2,1.2,0,0,1-.89-.35,1.3,1.3,0,0,1-.33-.94,1.61,1.61,0,0,1,.18-.78,1.25,1.25,0,0,1,.46-.41,1.41,1.41,0,0,1,.65-.19,1,1,0,0,1,1,1.07v.16l-.33.06-.81,0Zm0-.2.92,0,.39,0v-.15a1.22,1.22,0,0,0-.09-.46.55.55,0,0,0-.21-.22.74.74,0,0,0-.34-.08.59.59,0,0,0-.49.22A1.08,1.08,0,0,0,107,44.72Z"/><path class="cls-1" d="M111.27,43.78v-1c0-.11,0-.18,0-.21s-.08-.05-.17-.05h-.23v-.16a3,3,0,0,0,.9-.2l0,0c0,.18,0,.4,0,.66v2.56a2.06,2.06,0,0,0,0,.51s.1.08.22.09l.19,0v.16l-.59,0-.34,0c0-.13,0-.3,0-.52-.15.11-.35.28-.58.49a1.4,1.4,0,0,1-.41.08,1,1,0,0,1-.76-.34,1.31,1.31,0,0,1-.31-.92,1.38,1.38,0,0,1,.12-.61.86.86,0,0,1,.28-.37,3.11,3.11,0,0,1,.52-.29,1.08,1.08,0,0,1,.49-.14,1.25,1.25,0,0,1,.32,0A1.1,1.1,0,0,1,111.27,43.78Zm0,.46a1.47,1.47,0,0,0-.38-.3,1.07,1.07,0,0,0-.42-.1.7.7,0,0,0-.57.26,1.13,1.13,0,0,0-.22.76,1.15,1.15,0,0,0,.25.79.76.76,0,0,0,.6.29.69.69,0,0,0,.39-.12.8.8,0,0,0,.27-.31,1.79,1.79,0,0,0,.08-.61Z"/><path class="cls-1" d="M112.73,44.35V44l.3-.17a1.93,1.93,0,0,1,.35-.15,1.07,1.07,0,0,1,.32,0,1,1,0,0,1,.6.17.67.67,0,0,1,.27.43,7.85,7.85,0,0,1,0,1c0,.48,0,.75,0,.8a.14.14,0,0,0,.14.08H115v.18a4.2,4.2,0,0,0-.43,0,3.11,3.11,0,0,0-.4,0v-.48l-.56.43-.15.08-.2,0a.79.79,0,0,1-.54-.17.62.62,0,0,1-.18-.46.86.86,0,0,1,.13-.48.85.85,0,0,1,.37-.3,7.67,7.67,0,0,1,1.13-.25.79.79,0,0,0-.16-.51.62.62,0,0,0-.52-.22.88.88,0,0,0-.24,0,1,1,0,0,0-.21.1c-.06.13-.1.25-.15.37Zm1.43.43a3.45,3.45,0,0,0-1,.3.52.52,0,0,0-.2.44.44.44,0,0,0,.12.32.38.38,0,0,0,.3.12.68.68,0,0,0,.38-.12,1.22,1.22,0,0,0,.36-.33v-.73Z"/><path class="cls-1" d="M116.09,44.13l.35-.31a.8.8,0,0,1,.25-.16.84.84,0,0,1,.29,0,1.08,1.08,0,0,1,.52.12.68.68,0,0,1,.3.31,1.63,1.63,0,0,1,.09.64l0,.8c0,.18,0,.32,0,.43a.13.13,0,0,0,0,.09s.08,0,.16,0l.2,0v.16a4.35,4.35,0,0,0-.51,0,3,3,0,0,0-.42,0c0-.46,0-.9,0-1.34a1.89,1.89,0,0,0-.06-.59.45.45,0,0,0-.2-.25.64.64,0,0,0-.36-.1.84.84,0,0,0-.41.11.66.66,0,0,0-.25.25,1.42,1.42,0,0,0,0,.47v.47a3.85,3.85,0,0,0,0,.71s.09.08.22.09l.23,0v.16c-.28,0-.51,0-.68,0s-.41,0-.7,0v-.16l.17,0a.59.59,0,0,0,.2,0s0,0,.06-.11,0-.32,0-.66V43.41a4.34,4.34,0,0,0,0-.8s-.09-.06-.22-.06h-.19v-.17a3.73,3.73,0,0,0,.67-.12l.23-.08s0,0,0,.06v.11l0,.49c0,.24,0,.43,0,.57Z"/><path class="cls-1" d="M119.88,46.06h.17c.16,0,.26-.05.3-.13a6.77,6.77,0,0,0,.05-1.16v-.91a7.16,7.16,0,0,0-.05-1.2c0-.07-.11-.11-.26-.11h-.21v-.17c.29,0,.59,0,.88,0s.47,0,.67,0v.17h-.21a.44.44,0,0,0-.25.05.37.37,0,0,0,0,.23c0,.19,0,.54,0,1v.93A6.59,6.59,0,0,0,121,46c0,.07.13.11.3.11h.18v.17c-.23,0-.47,0-.73,0s-.58,0-.82,0Z"/><path class="cls-1" d="M122.55,44.13l.41-.36a.49.49,0,0,1,.15-.1,1.13,1.13,0,0,1,.36-.06,1,1,0,0,1,.5.12.69.69,0,0,1,.3.31,1.4,1.4,0,0,1,.09.58v.85a1.5,1.5,0,0,0,0,.51.2.2,0,0,0,.2.09h.19v.16a4.62,4.62,0,0,0-.5,0,3.47,3.47,0,0,0-.44,0,13.45,13.45,0,0,0,.06-1.43,1.46,1.46,0,0,0-.07-.51.49.49,0,0,0-.21-.24.69.69,0,0,0-.36-.1.73.73,0,0,0-.45.14.49.49,0,0,0-.22.29,2.82,2.82,0,0,0,0,.55c0,.33,0,.63,0,.92a.28.28,0,0,0,0,.16.35.35,0,0,0,.23.06H123v.16c-.3,0-.55,0-.73,0s-.41,0-.65,0v-.16h.2c.13,0,.21,0,.23-.09a9.61,9.61,0,0,0,0-1.12c0-.31,0-.55,0-.73a.21.21,0,0,0,0-.12.45.45,0,0,0-.21,0h-.2v-.15a3.94,3.94,0,0,0,.42-.08,2.5,2.5,0,0,0,.41-.14h0s0,0,0,.06v.47Z"/><path class="cls-1" d="M127,45.84l.07.07-.11.17a1.37,1.37,0,0,1-.38.15,1.74,1.74,0,0,1-.39.05,1.42,1.42,0,0,1-.68-.15,1.07,1.07,0,0,1-.43-.44,1.45,1.45,0,0,1-.15-.68,1.48,1.48,0,0,1,.12-.61,1,1,0,0,1,.32-.4,3.61,3.61,0,0,1,.53-.29,1.26,1.26,0,0,1,.49-.1,1.79,1.79,0,0,1,.36,0,1.15,1.15,0,0,1,.32.12,4.38,4.38,0,0,0-.07.71h-.17v-.13a.49.49,0,0,0,0-.25.71.71,0,0,0-.23-.14,1.23,1.23,0,0,0-.39-.07.71.71,0,0,0-.56.23,1,1,0,0,0-.2.66,1.38,1.38,0,0,0,.29.91.84.84,0,0,0,.68.31,1.17,1.17,0,0,0,.32,0A2,2,0,0,0,127,45.84Z"/><path class="cls-1" d="M127.44,44.93a1.36,1.36,0,0,1,.17-.67,1.33,1.33,0,0,1,.49-.48,1.46,1.46,0,0,1,.71-.17,1.29,1.29,0,0,1,.92.34,1.22,1.22,0,0,1,.34.91,1.36,1.36,0,0,1-.45,1.07,1.44,1.44,0,0,1-1,.35,1.15,1.15,0,0,1-.88-.36A1.39,1.39,0,0,1,127.44,44.93Zm.51-.19a1.78,1.78,0,0,0,.23.95.71.71,0,0,0,.65.4.66.66,0,0,0,.53-.25,1.23,1.23,0,0,0,.2-.76,1.86,1.86,0,0,0-.12-.7.94.94,0,0,0-.31-.44.76.76,0,0,0-.44-.13.65.65,0,0,0-.63.39A1.24,1.24,0,0,0,128,44.74Z"/><path class="cls-1" d="M131.29,44.23a2.28,2.28,0,0,0,.23-.27,1.14,1.14,0,0,1,.28-.27.57.57,0,0,1,.28-.08.57.57,0,0,1,.22,0,.05.05,0,0,1,0,.05v0a3.09,3.09,0,0,0-.05.61h-.12a.38.38,0,0,0-.15-.19.32.32,0,0,0-.2-.06.5.5,0,0,0-.3.11.51.51,0,0,0-.18.3,4.22,4.22,0,0,0,0,.76,5.53,5.53,0,0,0,0,.63c0,.07,0,.11,0,.12a.61.61,0,0,0,.3.06h.17v.16c-.28,0-.54,0-.79,0s-.47,0-.71,0v-.16l.26,0a.44.44,0,0,0,.18,0,.61.61,0,0,0,0-.27c0-.26,0-.56,0-.92a3.18,3.18,0,0,0,0-.76s-.1-.08-.22-.08h-.23v-.15a4.56,4.56,0,0,0,.47-.08,1.52,1.52,0,0,0,.36-.12l.07,0a.05.05,0,0,1,0,0,.35.35,0,0,1,0,.07Z"/><path class="cls-1" d="M133.49,44.16l.38-.33a.75.75,0,0,1,.24-.16,1.08,1.08,0,0,1,.38-.06,1,1,0,0,1,.77.3,1,1,0,0,1,.3.77,1.43,1.43,0,0,1-.07.46,1.28,1.28,0,0,1-.16.37,1.36,1.36,0,0,1-.22.25l-.33.21-.11.08a1.1,1.1,0,0,1-.33.18.82.82,0,0,1-.28.05.84.84,0,0,1-.27,0,2.11,2.11,0,0,1-.3-.1v.38c0,.39,0,.66,0,.82a.26.26,0,0,0,.07.16.47.47,0,0,0,.25,0H134v.15l-.75,0-.67,0v-.15h.19c.14,0,.23,0,.25-.09a4.85,4.85,0,0,0,0-1V44.85c0-.29,0-.51,0-.67A.21.21,0,0,0,133,44s-.09,0-.19,0h-.21v-.16a3.76,3.76,0,0,0,.74-.16l.16-.06s0,0,0,.07v.48Zm0,1.48a1.08,1.08,0,0,0,.35.28.91.91,0,0,0,.37.08.75.75,0,0,0,.65-.32,1.29,1.29,0,0,0,.23-.76,1.13,1.13,0,0,0-.1-.51.76.76,0,0,0-.31-.33.8.8,0,0,0-.43-.13.87.87,0,0,0-.31.07.64.64,0,0,0-.27.18.59.59,0,0,0-.15.21,1.45,1.45,0,0,0,0,.39Z"/><path class="cls-1" d="M136,44.93a1.27,1.27,0,0,1,.18-.67,1.23,1.23,0,0,1,.48-.48,1.52,1.52,0,0,1,.71-.17,1.29,1.29,0,0,1,.92.34,1.23,1.23,0,0,1,.35.91,1.36,1.36,0,0,1-.45,1.07,1.44,1.44,0,0,1-1,.35,1.16,1.16,0,0,1-.88-.36A1.43,1.43,0,0,1,136,44.93Zm.51-.19a1.88,1.88,0,0,0,.23.95.71.71,0,0,0,.66.4.67.67,0,0,0,.53-.25,1.23,1.23,0,0,0,.2-.76,1.86,1.86,0,0,0-.12-.7,1,1,0,0,0-.32-.44.73.73,0,0,0-.43-.13.7.7,0,0,0-.38.1.72.72,0,0,0-.26.29A1.41,1.41,0,0,0,136.47,44.74Z"/><path class="cls-1" d="M139.81,44.23l.24-.27a1,1,0,0,1,.28-.27.53.53,0,0,1,.27-.08.63.63,0,0,1,.23,0,.07.07,0,0,1,0,.05v0a4.39,4.39,0,0,0,0,.61h-.13a.43.43,0,0,0-.14-.19.37.37,0,0,0-.21-.06.48.48,0,0,0-.29.11.51.51,0,0,0-.18.3,3.93,3.93,0,0,0-.05.76,5.53,5.53,0,0,0,0,.63q0,.11.06.12a.59.59,0,0,0,.3.06h.16v.16c-.28,0-.54,0-.78,0s-.48,0-.71,0v-.16l.26,0a.34.34,0,0,0,.17,0,.72.72,0,0,0,.05-.27c0-.26,0-.56,0-.92a3.18,3.18,0,0,0,0-.76s-.1-.08-.23-.08h-.22v-.15l.46-.08a1.79,1.79,0,0,0,.37-.12l.06,0,0,0s0,0,0,.07Z"/><path class="cls-1" d="M141.36,44.35V44l.29-.17a2.28,2.28,0,0,1,.35-.15,1.13,1.13,0,0,1,.32,0,1,1,0,0,1,.6.17.68.68,0,0,1,.28.43c0,.13,0,.45,0,1a5,5,0,0,0,0,.8.13.13,0,0,0,.13.08h.22v.18a4.2,4.2,0,0,0-.43,0,3.34,3.34,0,0,0-.41,0v-.48l-.56.43-.15.08-.2,0a.77.77,0,0,1-.53-.17.62.62,0,0,1-.18-.46.86.86,0,0,1,.13-.48.8.8,0,0,1,.37-.3,7.42,7.42,0,0,1,1.12-.25.74.74,0,0,0-.15-.51.63.63,0,0,0-.52-.22,1,1,0,0,0-.25,0l-.21.1c-.05.13-.1.25-.14.37Zm1.42.43a3.34,3.34,0,0,0-.95.3.49.49,0,0,0-.2.44.43.43,0,0,0,.11.32.41.41,0,0,0,.3.12.69.69,0,0,0,.39-.12,1.19,1.19,0,0,0,.35-.33v-.73Z"/><path class="cls-1" d="M144.74,44.1v1.06a2.7,2.7,0,0,0,0,.53.31.31,0,0,0,.32.25l.15,0a.44.44,0,0,0,.15-.1l.07.1-.26.31-.17,0-.15,0a.69.69,0,0,1-.34-.07.41.41,0,0,1-.2-.19.66.66,0,0,1-.07-.35V44.13a3,3,0,0,0-.42,0V44a4.08,4.08,0,0,0,.42-.19c0-.25,0-.53,0-.83a4.14,4.14,0,0,0,.46-.22l.07.06c0,.14,0,.47,0,1h.75l0,.27h-.72Z"/><path class="cls-1" d="M146.21,44.92a1.23,1.23,0,0,0,.27.81.9.9,0,0,0,.68.27,1.21,1.21,0,0,0,.74-.25l0,0-.09.23a1.66,1.66,0,0,1-.46.19,1.61,1.61,0,0,1-.49.07,1.17,1.17,0,0,1-.88-.35,1.3,1.3,0,0,1-.34-.94,1.61,1.61,0,0,1,.19-.78,1.25,1.25,0,0,1,.46-.41,1.38,1.38,0,0,1,.65-.19,1,1,0,0,1,1,1.07v.16l-.34.06-.8,0Zm0-.2.93,0,.39,0v-.15a1.06,1.06,0,0,0-.1-.46.46.46,0,0,0-.2-.22.78.78,0,0,0-.35-.08.58.58,0,0,0-.48.22A1.14,1.14,0,0,0,146.21,44.72Z"/><path class="cls-1" d="M150.49,43.78v-1c0-.11,0-.18,0-.21s-.08-.05-.17-.05h-.23v-.16a3,3,0,0,0,.9-.2l.05,0c0,.18,0,.4,0,.66v2.56a3.56,3.56,0,0,0,0,.51s.11.08.23.09l.19,0v.16l-.59,0-.34,0c0-.13,0-.3,0-.52-.15.11-.35.28-.58.49a1.4,1.4,0,0,1-.41.08,1,1,0,0,1-.76-.34,1.31,1.31,0,0,1-.31-.92,1.38,1.38,0,0,1,.12-.61.86.86,0,0,1,.28-.37,3.38,3.38,0,0,1,.51-.29,1.15,1.15,0,0,1,.5-.14,1.25,1.25,0,0,1,.32,0A1.21,1.21,0,0,1,150.49,43.78Zm0,.46a1.36,1.36,0,0,0-.39-.3,1,1,0,0,0-.42-.1.7.7,0,0,0-.56.26,1.13,1.13,0,0,0-.22.76,1.15,1.15,0,0,0,.25.79.76.76,0,0,0,.6.29.69.69,0,0,0,.39-.12.8.8,0,0,0,.27-.31,1.79,1.79,0,0,0,.08-.61Z"/></g><g id="MBI_Kedah" data-name="MBI Kedah"><path class="cls-3" d="M66.17,23.67v2.68c0,.23,0,.47-.08.7,0,.4,0,.8-.12,1.2-.11.68-.22,1.37-.38,2a21.56,21.56,0,0,1-1.5,4.33A22.54,22.54,0,0,1,62,38.22a26,26,0,0,1-2,2.51c-.36.4-.76.75-1.15,1.12a20.21,20.21,0,0,1-2.15,1.77,19.69,19.69,0,0,1-2.61,1.64,23.88,23.88,0,0,1-2.24,1c-.91.35-1.83.65-2.76.92a15.84,15.84,0,0,1-2.81.54l-1.54.15-.15,0H41.89l-.06,0c-.35,0-.7,0-1-.08a13.07,13.07,0,0,1-1.53-.2c-.88-.18-1.75-.41-2.63-.64a18.53,18.53,0,0,1-3-1.13A23.61,23.61,0,0,1,30,43.79a25.85,25.85,0,0,1-2.5-2c-.41-.37-.77-.78-1.15-1.18a20.65,20.65,0,0,1-1.73-2.11A20.78,20.78,0,0,1,23,35.85a23.88,23.88,0,0,1-1-2.24c-.35-.91-.64-1.83-.92-2.76A16.8,16.8,0,0,1,20.48,28l-.15-1.54c0-.05,0-.1,0-.15V23.67c0-.23.05-.46.08-.7,0-.4.05-.8.12-1.2.11-.68.22-1.36.38-2a22.88,22.88,0,0,1,1.5-4.33,23.81,23.81,0,0,1,2.07-3.6,25.68,25.68,0,0,1,2.08-2.55c.36-.39.76-.75,1.15-1.12a23.12,23.12,0,0,1,4.72-3.37,22.93,22.93,0,0,1,2.25-1c.9-.35,1.82-.64,2.75-.92a16.8,16.8,0,0,1,2.81-.54l1.54-.15.15,0h2.68l.66.08c.7.09,1.4.14,2.09.27.89.18,1.79.39,2.66.65s1.58.56,2.36.87a19.78,19.78,0,0,1,2.79,1.42A22.22,22.22,0,0,1,58.5,7.85c.55.49,1,1,1.57,1.56a19.26,19.26,0,0,1,1.77,2.15,20,20,0,0,1,1.65,2.63c.37.73.73,1.46,1,2.23s.65,1.82.92,2.75A15.84,15.84,0,0,1,66,22l.15,1.54C66.14,23.57,66.16,23.62,66.17,23.67ZM35.3,33.35c-.07.42-.15.8-.19,1.18a3.57,3.57,0,0,0,.42,2.15,5.48,5.48,0,0,0,1,1.1l.63.65a11.66,11.66,0,0,1-2.73-1.49,1.54,1.54,0,0,1-.67-.87,2.18,2.18,0,0,1,.06-1.16,4.22,4.22,0,0,0-.23-3.27,7.56,7.56,0,0,0-.58-.93l-.07,0c-.13.26-.27.51-.38.78a3.43,3.43,0,0,0,.47,3.7,5.32,5.32,0,0,1,.52,1c-.06,0-.08,0-.09,0A22.92,22.92,0,0,1,31.08,34a1,1,0,0,1-.27-.76c0-.09,0-.19,0-.28a2,2,0,0,1,.32-1.12,2.72,2.72,0,0,0,.47-1.39,3.75,3.75,0,0,0-.86-2.63,3.45,3.45,0,0,0-.93,2.09,4.11,4.11,0,0,0,.55,2.35,1.65,1.65,0,0,1,.19,1c-.27-.36-.52-.72-.76-1.1a12,12,0,0,1-1.41-2.71,1.11,1.11,0,0,1-.09-.5,1.51,1.51,0,0,1,.52-.93c.24-.19.49-.39.71-.6a3.07,3.07,0,0,0,.92-1.2,6.61,6.61,0,0,0,.25-2.34.33.33,0,0,0-.1,0A3.28,3.28,0,0,0,29,25a4.17,4.17,0,0,0-.87,2.85c0,.28,0,.56,0,.85H28c-.1-.36-.23-.71-.32-1.07a6.89,6.89,0,0,1-.32-2.47.91.91,0,0,1,.55-.83,4.39,4.39,0,0,0,2.16-1.92,3.44,3.44,0,0,0,.38-2.2s-.06,0-.08,0a3.5,3.5,0,0,0-2.62,2.92,3.56,3.56,0,0,1-.5,1.42,3.8,3.8,0,0,1,0-.46c0-.82.08-1.65.1-2.47a1.41,1.41,0,0,1,.6-1.19,1.54,1.54,0,0,1,.53-.29A3.88,3.88,0,0,0,31,18.56,5.34,5.34,0,0,0,32,16.48a3.54,3.54,0,0,0-1.89.58,5.3,5.3,0,0,0-2,2.53,4.21,4.21,0,0,1-.45.68l-.05,0v-.07a14.14,14.14,0,0,1,1.21-3.39,1.19,1.19,0,0,1,.91-.67c.31-.05.62-.06.93-.11a4.77,4.77,0,0,0,2.55-1.18,4,4,0,0,0,1.13-1.68,3.65,3.65,0,0,0-1.51.09,4.4,4.4,0,0,0-2.74,2,1.12,1.12,0,0,1-.6.44.87.87,0,0,1,.07-.17,12.59,12.59,0,0,1,2.33-2.81.47.47,0,0,1,.2-.1c.25-.07.51-.11.75-.2A3.26,3.26,0,0,0,35.07,9.9c0-.16,0-.32.07-.5a3.14,3.14,0,0,0-1.77.31,2.93,2.93,0,0,0-1.51,2,1.26,1.26,0,0,1-.43.7A12,12,0,0,0,29,15.32s-.07.09-.14.18a1.07,1.07,0,0,1,.31-.82,3.14,3.14,0,0,0,.56-1.07,5.17,5.17,0,0,0,.14-2.53c-.06-.35-.16-.71-.24-1.06l-.07,0a.54.54,0,0,1-.05.11c-.26.4-.54.79-.78,1.21A4.25,4.25,0,0,0,28.21,13a3,3,0,0,0,.45,2,.72.72,0,0,1,0,.85,13.19,13.19,0,0,0-1.19,2.69c-.15.49-.26,1-.4,1.53A1.67,1.67,0,0,1,26.93,19c.1-.35.22-.7.3-1.05a3.81,3.81,0,0,0,.12-1.57,5.77,5.77,0,0,0-.83-2.15,2.07,2.07,0,0,0-.19-.25l-.09.11a5.07,5.07,0,0,0-.78,1.58,3,3,0,0,0,.66,3,.71.71,0,0,1,.18.27c.22.58.44,1.16.65,1.74a.43.43,0,0,1,0,.16c-.07.76-.16,1.51-.2,2.26s0,1.26,0,1.89A3.22,3.22,0,0,1,26.22,24a1.07,1.07,0,0,1-.07-.39,6.22,6.22,0,0,0,0-1.67,5.16,5.16,0,0,0-1.57-3.06l-.12-.09-.07.14a5.83,5.83,0,0,0-.45,2,2.74,2.74,0,0,0,.58,1.95c.23.28.48.55.73.81a10.91,10.91,0,0,1,1.55,1.9,2,2,0,0,1,.19.45c.13.66.24,1.32.38,2,.07.34.18.66.28,1l-.14-.09a2.56,2.56,0,0,1-1-1.76A4.53,4.53,0,0,0,24,23.86.28.28,0,0,0,24,24a4.45,4.45,0,0,0,0,1.5,3.68,3.68,0,0,0,2,2.82,14.34,14.34,0,0,1,1.25.76A2.38,2.38,0,0,1,28,30c.33.69.69,1.37,1.05,2.05.2.36.44.7.66,1.06l-.14,0a1.71,1.71,0,0,1-1-.74,9,9,0,0,0-1.15-1.82,4.44,4.44,0,0,0-2-1.45,6.69,6.69,0,0,0-.74-.18c0,.25,0,.45.07.64a4.24,4.24,0,0,0,3.1,3.4c.49.15,1,.2,1.52.31a1.28,1.28,0,0,1,.8.4,18.69,18.69,0,0,0,2.32,2.47l.13.14A2.71,2.71,0,0,1,31.45,36a1.14,1.14,0,0,1-.44-.4A3.69,3.69,0,0,0,30,34.44a5.13,5.13,0,0,0-3.3-.94c0,.08,0,.14.05.2a3.68,3.68,0,0,0,2,2.28,5.12,5.12,0,0,0,2.14.46l1.66,0a1.5,1.5,0,0,1,.78.27,16.41,16.41,0,0,0,3.17,2l.07,0a2.16,2.16,0,0,1-1.69-.32,3.89,3.89,0,0,0-.73-.38A5.25,5.25,0,0,0,31,37.51a3.1,3.1,0,0,0-1.18.48,2.48,2.48,0,0,0,.85.88,4.91,4.91,0,0,0,3.43.62c.82-.11,1.63-.28,2.45-.39a2,2,0,0,1,1,.09c.7.27,1.41.51,2.12.75.29.1.59.17.9.26l0,0-.07,0a2.62,2.62,0,0,1-2-.15A3.29,3.29,0,0,0,36.09,40a3.87,3.87,0,0,0-1.39.78l.24.19a3.49,3.49,0,0,0,3,.74,6,6,0,0,0,2-.8,2.64,2.64,0,0,1,2.26-.41l.24,0a18.4,18.4,0,0,1-3.32,2.68c-.06,0-.1.1-.15.15a.75.75,0,0,0,.17.14,7.94,7.94,0,0,0,2.14.61.31.31,0,0,0,.31-.1,8.39,8.39,0,0,0,1.54-2.41c.1-.26.17-.53.27-.81l0,.12A7.3,7.3,0,0,0,45.3,44a.42.42,0,0,0,.27.09,6.68,6.68,0,0,0,2-.57,1.26,1.26,0,0,0,.28-.19,2.52,2.52,0,0,0-.25-.21A18.54,18.54,0,0,1,44.9,41l-.55-.51.91-.15a2.17,2.17,0,0,1,1.21.33c.43.2.84.46,1.27.64a4.09,4.09,0,0,0,3.09.22,3.13,3.13,0,0,0,1.25-.82l-.11-.1-.38-.26a3.36,3.36,0,0,0-3.3-.25,2.81,2.81,0,0,1-.56.18,2.31,2.31,0,0,1-1.51-.11l.08,0,3-1a1.18,1.18,0,0,1,.4-.1,15.61,15.61,0,0,1,1.81.17,9.08,9.08,0,0,0,2.89.24,4,4,0,0,0,2-.75A2.4,2.4,0,0,0,57,38l-.07-.06-.13-.08a3.76,3.76,0,0,0-2.57-.33,7.26,7.26,0,0,0-2.54,1,2.24,2.24,0,0,1-1.4.17l.23-.1a20.9,20.9,0,0,0,3-1.9,1.12,1.12,0,0,1,.52-.21c.52-.05,1-.05,1.58-.09a11.45,11.45,0,0,0,1.56-.16,3.77,3.77,0,0,0,2.87-2.5c0-.09,0-.18.09-.32-.51,0-1,.07-1.42.16a4.14,4.14,0,0,0-3,2,.74.74,0,0,1-.24.26,2.68,2.68,0,0,1-1.38.39.69.69,0,0,1,.11-.12,18.15,18.15,0,0,0,2.25-2.39,1.26,1.26,0,0,1,.75-.47l.17,0A13.52,13.52,0,0,0,58.85,33a4.23,4.23,0,0,0,3-2.92A3.25,3.25,0,0,0,62.08,29h-.17a3.48,3.48,0,0,0-1.39.54,6.65,6.65,0,0,0-2.3,2.79,2,2,0,0,1-1.21.89,3.59,3.59,0,0,0,.29-.42c.47-.86,1-1.73,1.41-2.61a2.36,2.36,0,0,1,.82-1c.44-.3.89-.58,1.35-.85a4.06,4.06,0,0,0,1.19-.95,3.82,3.82,0,0,0,.85-2.45c0-.34-.06-.68-.09-1A5.17,5.17,0,0,0,61.39,25a4,4,0,0,0-1,2.14,2.6,2.6,0,0,1-.83,1.63,3.3,3.3,0,0,1-.3.22,11.46,11.46,0,0,0,.52-2.27,3.12,3.12,0,0,1,.73-1.76L62,23.23a3.11,3.11,0,0,0,.85-1.37,4.06,4.06,0,0,0,0-1.93c-.09-.4-.23-.79-.36-1.22a4.63,4.63,0,0,0-.91,1A5.65,5.65,0,0,0,60.62,23a4,4,0,0,1,0,.69A3.11,3.11,0,0,1,60,25l0,0c0-.2,0-.37.06-.55a16.93,16.93,0,0,0-.14-3A2.3,2.3,0,0,1,60,20.12c.08-.19.14-.4.22-.59a3.24,3.24,0,0,1,.56-1,2.66,2.66,0,0,0,.67-2,4.45,4.45,0,0,0-.64-2L60.49,14a1.3,1.3,0,0,0-.17.2A6.65,6.65,0,0,0,59.55,16a2.87,2.87,0,0,0-.09,1.3c.1.59.26,1.17.41,1.75a1.48,1.48,0,0,1-.18,1.07c0-.14-.06-.26-.08-.39a14.49,14.49,0,0,0-1.54-3.93A.63.63,0,0,1,58,15.4a1.25,1.25,0,0,1,.18-.41,3.05,3.05,0,0,0,.41-2,5,5,0,0,0-.69-1.94c-.21-.36-.46-.7-.72-1.09a1.22,1.22,0,0,0-.07.2,6.42,6.42,0,0,0-.27,2.54,3.85,3.85,0,0,0,.73,2,3.06,3.06,0,0,1,.31.56.69.69,0,0,1,0,.26l-.07,0-.09-.14a12.47,12.47,0,0,0-2.58-3.07.52.52,0,0,1-.16-.29,3,3,0,0,0-2.42-2.5,2,2,0,0,0-.92,0,3.12,3.12,0,0,0,.74,1.88,3.84,3.84,0,0,0,2.3,1.25.44.44,0,0,1,.22.1,12.35,12.35,0,0,1,2.35,2.84l.09.19a1.55,1.55,0,0,1-.65-.51,4.41,4.41,0,0,0-2.57-1.91,3.87,3.87,0,0,0-1.66-.13A4.12,4.12,0,0,0,53.84,15a5.24,5.24,0,0,0,3.06,1.06,1.22,1.22,0,0,1,1.07.64,12.8,12.8,0,0,1,1.09,2.85c.06.22.11.45.17.69a2.22,2.22,0,0,1-.7-1.05,4.68,4.68,0,0,0-2.18-2.36,3.34,3.34,0,0,0-1.49-.36A5.11,5.11,0,0,0,56.14,19a3.9,3.9,0,0,0,2.15,1.14,1.82,1.82,0,0,1,1.06.85,0,0,0,0,1,0,0c0,.23.06.46.08.68,0,.5.08,1,.1,1.51s0,.88,0,1.32A2.8,2.8,0,0,1,59,23.13a3.43,3.43,0,0,0-1.63-2.54,3,3,0,0,0-1.06-.44,3.32,3.32,0,0,0,.27,2,4.47,4.47,0,0,0,2.31,2.14.68.68,0,0,1,.43.49,2.51,2.51,0,0,1,.08.81c-.08.65-.2,1.29-.33,1.93-.08.38-.22.74-.33,1.12h0a3.05,3.05,0,0,1-.06-.6,4.79,4.79,0,0,0-.09-1.51A3.34,3.34,0,0,0,56.48,24l-.39-.13c0,.5,0,.94.07,1.39a2.68,2.68,0,0,0,.78,1.85c.32.3.64.61,1,.89a1.34,1.34,0,0,1,.48,1.53.87.87,0,0,1-.07.17,14.77,14.77,0,0,1-1.55,2.84c-.17.25-.35.5-.52.76a1.7,1.7,0,0,1,.21-1.09A4,4,0,0,0,57,29.62,3.4,3.4,0,0,0,56,27.81c-.18.32-.38.6-.52.91A3.22,3.22,0,0,0,55.73,32a1.73,1.73,0,0,1,.22.57,4.91,4.91,0,0,1,0,.86.69.69,0,0,1-.22.57l-1.86,1.83c-.19.18-.39.34-.59.51a3.26,3.26,0,0,1,.49-1.13,5.34,5.34,0,0,0,.51-.82,3.49,3.49,0,0,0-.06-2.83c-.11-.27-.26-.52-.4-.81l-.12.13A4.3,4.3,0,0,0,53,34.91a1.63,1.63,0,0,1-.59,2c-.58.37-1.16.73-1.75,1.07-.31.18-.65.31-1,.47l0,0c.24-.25.47-.5.72-.74a3.76,3.76,0,0,0,1-1.27A4.11,4.11,0,0,0,51.62,34c0-.2-.09-.39-.14-.61a3.7,3.7,0,0,0-1.15,1,4.21,4.21,0,0,0-.71,3.08,1.38,1.38,0,0,1-.78,1.41c-.48.19-1,.35-1.47.51s-.71.19-1.06.28l0-.07a2.92,2.92,0,0,1,.4-.29,3.52,3.52,0,0,0,2-2.8,2.56,2.56,0,0,0-.11-1l-.11,0a3.52,3.52,0,0,0-1.87,1.79,4.94,4.94,0,0,0-.46,2,.48.48,0,0,1-.33.49,6.19,6.19,0,0,1-.81.15c.15-.17.34-.38.5-.6a1.16,1.16,0,0,0-.57-1.84,2.43,2.43,0,0,0-1.07-.09,3,3,0,0,1-.6,0,3.17,3.17,0,0,0-1.3.07,1.18,1.18,0,0,0-.78,1.47,1.75,1.75,0,0,0,.59.78l.22.16a3.29,3.29,0,0,1-.71-.06.57.57,0,0,1-.54-.62l0-.31a4.15,4.15,0,0,0-1.22-2.69,3.5,3.5,0,0,0-1.18-.73.37.37,0,0,0,0,.11,3,3,0,0,0,.1,1.7,3.7,3.7,0,0,0,1.82,2,3.58,3.58,0,0,1,.39.29l0,.06-.36-.08c-.72-.23-1.45-.44-2.16-.7a1.33,1.33,0,0,1-.81-1.33A4.61,4.61,0,0,0,37,35.24,3.51,3.51,0,0,0,35.3,33.35ZM36.11,22a8.79,8.79,0,0,0,1.18,11.47,9,9,0,0,0,12.9-.66,8.68,8.68,0,0,0,.52-10.65,1.09,1.09,0,0,0,0,.19,12.79,12.79,0,0,1,.08,1.52,7.36,7.36,0,0,1-9.08,6.83,7.34,7.34,0,0,1-5.65-7.18C36.07,23,36.1,22.47,36.11,22Zm.49-.15a3,3,0,0,1,.39-.21.3.3,0,0,0,.2-.33q0-4.8,0-9.59s0-.09,0-.13a.2.2,0,0,0-.08-.13l-.66-.22v.09c0,3.18,0,6.36,0,9.55A3.05,3.05,0,0,0,36.6,21.82Zm.8-10.3v9.86a5.48,5.48,0,0,1,.53-.28.31.31,0,0,0,.19-.33q0-4.44,0-8.88v-.22Zm.94.18v9.16c.19-.1.36-.2.54-.28a.3.3,0,0,0,.18-.31V11.78Zm.93,8.66c.2-.11.38-.22.57-.31a.26.26,0,0,0,.17-.28q0-3.88,0-7.78a1.21,1.21,0,0,0,0-.19h-.72Zm4.46,2.09a6.88,6.88,0,0,1-.61.36.27.27,0,0,0-.15.29c0,2.35,0,4.69,0,7a.54.54,0,0,0,.36.58h0a.32.32,0,0,0,.4-.26v-8Zm-2.58-10.8v7.68c.2-.11.38-.22.57-.31a.28.28,0,0,0,.18-.3V11.47Zm-.93.11v8.07c.2-.1.36-.2.54-.28a.28.28,0,0,0,.18-.3c0-2.45,0-4.91,0-7.36v-.2Zm6.23,9-.56.34a.3.3,0,0,0-.18.31v7.43c0,.07,0,.13,0,.2l0,0,.74-.83a.71.71,0,0,1,0-.22V20.81Zm-.92,8.49c0-.12,0-.21,0-.29V21.39c-.2.12-.35.22-.51.3a.33.33,0,0,0-.19.33v7.87ZM43,18.33,43.6,18a.22.22,0,0,0,.14-.22q0-3.35,0-6.67L43.49,11a.35.35,0,0,0-.52.32v7Zm-6.78,2h.05V11.13L36,11l-.28-.12A28.85,28.85,0,0,0,36.19,20.31Zm10.48,7.82,0,0c.16-.19.31-.38.48-.56a.68.68,0,0,0,.19-.51q0-3.28,0-6.59v-.25c-.2.12-.37.23-.54.32a.3.3,0,0,0-.18.31q0,3.53,0,7.05ZM44,30.46c.19-.13.33-.24.49-.33a.24.24,0,0,0,.13-.24V22.15c0-.06,0-.12,0-.2-.16.1-.29.19-.43.26a.3.3,0,0,0-.18.31v7.94ZM42.77,11.18c-.18.06-.32.12-.47.16s-.18.11-.18.25v7a1.7,1.7,0,0,0,0,.21c.17-.09.31-.18.47-.25s.17-.15.17-.3V11.18ZM47.6,27l0,0,.61-.92a.2.2,0,0,0,0-.11V19.89c0-.05,0-.1,0-.18-.19.12-.35.22-.52.31a.28.28,0,0,0-.17.29q0,3.26,0,6.53A1.09,1.09,0,0,0,47.6,27Zm-4.85,3.35V23.05l-.5.3a.21.21,0,0,0-.13.22v6.25s0,.1,0,.12Zm6.47-11.23c-.23.13-.41.25-.6.35a.26.26,0,0,0-.14.25c0,1.92,0,3.84,0,5.77,0,0,0,.1,0,.15h0l.42-.78a1.86,1.86,0,0,0,.26-1c0-1.49,0-3,0-4.47ZM41.88,29.77v-6.2c-.24.14-.46.27-.67.41a.24.24,0,0,0-.07.17q0,2.45,0,4.89a.25.25,0,0,0,0,.16C41.4,29.39,41.63,29.57,41.88,29.77Zm2.08-12c.17-.1.32-.19.47-.26s.14-.13.14-.25v-5.7c0-.07,0-.17,0-.18-.18-.08-.36-.14-.56-.21Zm.84-6.31v5.84l.52-.27a.28.28,0,0,0,.18-.29c0-1.64,0-3.29,0-4.93v-.19Zm.92,5.34c.2-.11.37-.21.55-.29a.29.29,0,0,0,.18-.3V11.77l-.73-.09Zm1.66-5h-.7V16.3a5.77,5.77,0,0,1,.54-.29.26.26,0,0,0,.16-.28V11.79ZM40.92,24.15c-.2.13-.38.24-.57.34a.26.26,0,0,0-.15.26c0,1,0,2.05,0,3.07a.83.83,0,0,0,.34.78c.12.1.23.22.38.36Zm8.5-.35.07,0c.15-.42.3-.84.47-1.26a3,3,0,0,0,.2-1.18c0-.86,0-1.72,0-2.58v-.23c-.21.13-.39.25-.57.34a.28.28,0,0,0-.16.29v4.6ZM48.5,11.68V15.3c.2-.11.37-.21.55-.29a.28.28,0,0,0,.17-.28c0-1,0-2,0-3a1.37,1.37,0,0,0,0-.19Zm-.91,4.12c.2-.11.36-.21.53-.29a.25.25,0,0,0,.16-.26V11.71l-.69.07Zm2.78-1.52c.25-.14.47-.27.7-.38a.22.22,0,0,0,.13-.24c0-.41,0-.83-.06-1.24s-.1-1-.15-1.59l-.48.22c-.12,0-.15.11-.15.24v2.79A1.64,1.64,0,0,0,50.37,14.28Zm-.94-2.82v3.33c.2-.11.37-.21.55-.29a.29.29,0,0,0,.18-.3c0-.93,0-1.86,0-2.79v-.2Zm-3,7.76a.53.53,0,0,0-.07.51.42.42,0,0,0,.36.3.38.38,0,0,0,.36-.25.9.9,0,0,0,.08-.36,1.11,1.11,0,0,1,.52-.93,1,1,0,0,0,.23-.17c.09-.12.18-.11.32-.09a6.49,6.49,0,0,0,.77.05.28.28,0,0,0,.27-.28.94.94,0,0,0-.22-.65c-.09.17-.2.3,0,.47s0,.22-.11.22a2.41,2.41,0,0,1-.6-.08c-.34-.1-.67-.22-1-.34a1.72,1.72,0,0,1-.21-.12c.32-.26.59-.51.89-.73s.24-.35.23-.62a7.22,7.22,0,0,0-1.26,1.06.3.3,0,0,0,0,.19c0,.35.1.45.43.56l.46.16a1.59,1.59,0,0,0-1,1.39.19.19,0,0,1-.12.14.19.19,0,0,1-.17-.09A1.28,1.28,0,0,1,46.4,19.22ZM40,28V24.72l-.58.35a.24.24,0,0,0-.14.25v1.59c0,.08,0,.18,0,.23C39.48,27.43,39.72,27.72,40,28Zm3.88-7.6c.12.15,0,.24,0,.32a2.37,2.37,0,0,1-.92.6.54.54,0,0,1-.63-.17c-.1-.12-.22-.23-.32-.35-.14.16-.15.28,0,.43s.22.51-.16.64L41.5,22c.09.28.18.33.44.23a.66.66,0,0,0,.47-.52,1.82,1.82,0,0,0,1.53-.6A.63.63,0,0,0,43.76,20a.53.53,0,0,0-.78.26.45.45,0,0,0,.14.58.41.41,0,0,0,.51-.12C43.71,20.64,43.77,20.55,43.86,20.44Zm-2.79.82a1.1,1.1,0,0,1-.73.48,3.12,3.12,0,0,0-.39.15.36.36,0,0,0-.23.36c0,.17.14.25.29.32,0-.34.21-.5.49-.48a8.79,8.79,0,0,0-.19.89.54.54,0,0,0,.49.61,1.31,1.31,0,0,0,1.14-.31.69.69,0,0,0,.26-.57c-.17.11-.31.21-.46.29a2,2,0,0,1-.48.19.52.52,0,0,1-.66-.65,1.4,1.4,0,0,1,.2-.43c.14-.19.3-.36.46-.54Zm4.68-2.07v.07s-.06.12-.11.14a5.32,5.32,0,0,1-.82.35.4.4,0,0,1-.48-.22l-.07-.14-.07,0a4,4,0,0,0,.1.5.4.4,0,0,0,.45.3,1.62,1.62,0,0,0,1-.49.75.75,0,0,0,.13-.25.44.44,0,0,0-.44-.61c-.15,0-.21-.07-.17-.22s.16-.26.35-.14.26,0,.29-.13a.24.24,0,0,0-.22-.28.41.41,0,0,0-.47.2,2,2,0,0,0-.19.57c0,.25.08.33.33.32ZM50.37,21h.05A21.23,21.23,0,0,0,51,18.08l-.48.28a.26.26,0,0,0-.14.26v2.21C50.36,20.89,50.37,20.94,50.37,21ZM39,26.79l0,0V25.29l-.64.39a.15.15,0,0,0,0,.16,6,6,0,0,0,.33.54C38.8,26.52,38.9,26.65,39,26.79Zm3.89-7.63,0,.3h-.29v.36l.36,0,.06-.28h.27l0-.39Zm2.59,1.48.1-.25.21.08.09-.32L45.59,20l-.08.23-.2,0-.11.23Zm1.55-4,.26,0v-.29H47Zm1.14.52v.23l.18,0v-.26Z"/><path class="cls-4" d="M35.3,33.35A3.51,3.51,0,0,1,37,35.24a4.61,4.61,0,0,1,.21,2.27A1.33,1.33,0,0,0,38,38.84c.71.26,1.44.47,2.16.7l.36.08,0-.06a3.58,3.58,0,0,0-.39-.29,3.7,3.7,0,0,1-1.82-2,3,3,0,0,1-.1-1.7.37.37,0,0,1,0-.11,3.5,3.5,0,0,1,1.18.73,4.15,4.15,0,0,1,1.22,2.69l0,.31a.57.57,0,0,0,.54.62,3.29,3.29,0,0,0,.71.06l-.22-.16a1.75,1.75,0,0,1-.59-.78,1.18,1.18,0,0,1,.78-1.47,3.17,3.17,0,0,1,1.3-.07,3,3,0,0,0,.6,0,2.43,2.43,0,0,1,1.07.09,1.16,1.16,0,0,1,.57,1.84c-.16.22-.35.43-.5.6a6.19,6.19,0,0,0,.81-.15.48.48,0,0,0,.33-.49,4.94,4.94,0,0,1,.46-2,3.52,3.52,0,0,1,1.87-1.79l.11,0a2.56,2.56,0,0,1,.11,1,3.52,3.52,0,0,1-2,2.8,2.92,2.92,0,0,0-.4.29l0,.07c.35-.09.71-.17,1.06-.28s1-.32,1.47-.51a1.38,1.38,0,0,0,.78-1.41,4.21,4.21,0,0,1,.71-3.08,3.7,3.7,0,0,1,1.15-1c.05.22.11.41.14.61a4.11,4.11,0,0,1-.21,2.45,3.76,3.76,0,0,1-1,1.27c-.25.24-.48.49-.72.74l0,0c.32-.16.66-.29,1-.47.59-.34,1.17-.7,1.75-1.07a1.63,1.63,0,0,0,.59-2,4.3,4.3,0,0,1,.75-4.08l.12-.13c.14.29.29.54.4.81a3.49,3.49,0,0,1,.06,2.83,5.34,5.34,0,0,1-.51.82,3.26,3.26,0,0,0-.49,1.13c.2-.17.4-.33.59-.51L55.77,34a.69.69,0,0,0,.22-.57,4.91,4.91,0,0,0,0-.86,1.73,1.73,0,0,0-.22-.57,3.22,3.22,0,0,1-.21-3.23c.14-.31.34-.59.52-.91A3.4,3.4,0,0,1,57,29.62a4,4,0,0,1-.47,2.59,1.7,1.7,0,0,0-.21,1.09c.17-.26.35-.51.52-.76a14.77,14.77,0,0,0,1.55-2.84.87.87,0,0,0,.07-.17A1.34,1.34,0,0,0,57.93,28c-.35-.28-.67-.59-1-.89a2.68,2.68,0,0,1-.78-1.85c0-.45,0-.89-.07-1.39l.39.13a3.34,3.34,0,0,1,2.08,2.54,4.79,4.79,0,0,1,.09,1.51,3.05,3.05,0,0,0,.06.6h0c.11-.38.25-.74.33-1.12.13-.64.25-1.28.33-1.93a2.51,2.51,0,0,0-.08-.81.68.68,0,0,0-.43-.49,4.47,4.47,0,0,1-2.31-2.14,3.32,3.32,0,0,1-.27-2,3,3,0,0,1,1.06.44A3.43,3.43,0,0,1,59,23.13a2.8,2.8,0,0,0,.53,1.35c0-.44,0-.88,0-1.32s-.06-1-.1-1.51c0-.22,0-.45-.08-.68a0,0,0,0,0,0,0,1.82,1.82,0,0,0-1.06-.85A3.9,3.9,0,0,1,56.14,19a5.11,5.11,0,0,1-1.28-2.47,3.34,3.34,0,0,1,1.49.36,4.68,4.68,0,0,1,2.18,2.36,2.22,2.22,0,0,0,.7,1.05c-.06-.24-.11-.47-.17-.69A12.8,12.8,0,0,0,58,16.71a1.22,1.22,0,0,0-1.07-.64A5.24,5.24,0,0,1,53.84,15a4.12,4.12,0,0,1-1.35-1.88,3.87,3.87,0,0,1,1.66.13,4.41,4.41,0,0,1,2.57,1.91,1.55,1.55,0,0,0,.65.51l-.09-.19a12.35,12.35,0,0,0-2.35-2.84.44.44,0,0,0-.22-.1,3.84,3.84,0,0,1-2.3-1.25,3.12,3.12,0,0,1-.74-1.88,2,2,0,0,1,.92,0A3,3,0,0,1,55,11.93a.52.52,0,0,0,.16.29,12.47,12.47,0,0,1,2.58,3.07l.09.14.07,0a.69.69,0,0,0,0-.26,3.06,3.06,0,0,0-.31-.56,3.85,3.85,0,0,1-.73-2,6.42,6.42,0,0,1,.27-2.54,1.22,1.22,0,0,1,.07-.2c.26.39.51.73.72,1.09A5,5,0,0,1,58.59,13a3.05,3.05,0,0,1-.41,2,1.25,1.25,0,0,0-.18.41.63.63,0,0,0,.07.36,14.49,14.49,0,0,1,1.54,3.93c0,.13,0,.25.08.39A1.48,1.48,0,0,0,59.87,19c-.15-.58-.31-1.16-.41-1.75a2.87,2.87,0,0,1,.09-1.3,6.65,6.65,0,0,1,.77-1.77,1.3,1.3,0,0,1,.17-.2l.36.56a4.45,4.45,0,0,1,.64,2,2.66,2.66,0,0,1-.67,2,3.24,3.24,0,0,0-.56,1c-.08.19-.14.4-.22.59a2.3,2.3,0,0,0-.13,1.35,16.93,16.93,0,0,1,.14,3c0,.18,0,.35-.06.55l0,0a3.11,3.11,0,0,0,.61-1.3,4,4,0,0,0,0-.69,5.65,5.65,0,0,1,.89-3.27,4.63,4.63,0,0,1,.91-1c.13.43.27.82.36,1.22a4.06,4.06,0,0,1,0,1.93A3.11,3.11,0,0,1,62,23.23l-1.49,1.69a3.12,3.12,0,0,0-.73,1.76A11.46,11.46,0,0,1,59.22,29a3.3,3.3,0,0,0,.3-.22,2.6,2.6,0,0,0,.83-1.63,4,4,0,0,1,1-2.14,5.17,5.17,0,0,1,1.44-1.11c0,.37.09.71.09,1a3.82,3.82,0,0,1-.85,2.45,4.06,4.06,0,0,1-1.19.95c-.46.27-.91.55-1.35.85a2.36,2.36,0,0,0-.82,1c-.45.88-.94,1.75-1.41,2.61a3.59,3.59,0,0,1-.29.42,2,2,0,0,0,1.21-.89,6.65,6.65,0,0,1,2.3-2.79A3.48,3.48,0,0,1,61.91,29h.17a3.25,3.25,0,0,1-.18,1.12,4.23,4.23,0,0,1-3,2.92,13.52,13.52,0,0,1-1.41.28l-.17,0a1.26,1.26,0,0,0-.75.47,18.15,18.15,0,0,1-2.25,2.39.69.69,0,0,0-.11.12,2.68,2.68,0,0,0,1.38-.39.74.74,0,0,0,.24-.26,4.14,4.14,0,0,1,3-2c.45-.09.91-.11,1.42-.16,0,.14-.06.23-.09.32a3.77,3.77,0,0,1-2.87,2.5,11.45,11.45,0,0,1-1.56.16c-.53,0-1.06,0-1.58.09a1.12,1.12,0,0,0-.52.21,20.9,20.9,0,0,1-3,1.9l-.23.1a2.24,2.24,0,0,0,1.4-.17,7.26,7.26,0,0,1,2.54-1,3.76,3.76,0,0,1,2.57.33l.13.08L57,38a2.4,2.4,0,0,1-.67.75,4,4,0,0,1-2,.75,9.08,9.08,0,0,1-2.89-.24,15.61,15.61,0,0,0-1.81-.17,1.18,1.18,0,0,0-.4.1l-3,1-.08,0a2.31,2.31,0,0,0,1.51.11,2.81,2.81,0,0,0,.56-.18,3.36,3.36,0,0,1,3.3.25l.38.26.11.1a3.13,3.13,0,0,1-1.25.82,4.09,4.09,0,0,1-3.09-.22c-.43-.18-.84-.44-1.27-.64a2.17,2.17,0,0,0-1.21-.33l-.91.15.55.51a18.54,18.54,0,0,0,2.74,2.09,2.52,2.52,0,0,1,.25.21,1.26,1.26,0,0,1-.28.19,6.68,6.68,0,0,1-2,.57A.42.42,0,0,1,45.3,44a7.3,7.3,0,0,1-1.85-3.09l0-.12c-.1.28-.17.55-.27.81A8.39,8.39,0,0,1,41.6,44a.31.31,0,0,1-.31.1,7.94,7.94,0,0,1-2.14-.61.75.75,0,0,1-.17-.14c.05,0,.09-.12.15-.15a18.4,18.4,0,0,0,3.32-2.68l-.24,0A2.64,2.64,0,0,0,40,40.9a6,6,0,0,1-2,.8,3.49,3.49,0,0,1-3-.74l-.24-.19A3.87,3.87,0,0,1,36.09,40a3.29,3.29,0,0,1,2.39.13,2.62,2.62,0,0,0,2,.15l.07,0,0,0c-.31-.09-.61-.16-.9-.26-.71-.24-1.42-.48-2.12-.75a2,2,0,0,0-1-.09c-.82.11-1.63.28-2.45.39a4.91,4.91,0,0,1-3.43-.62,2.48,2.48,0,0,1-.85-.88A3.1,3.1,0,0,1,31,37.51a5.25,5.25,0,0,1,3.14.52,3.89,3.89,0,0,1,.73.38,2.16,2.16,0,0,0,1.69.32l-.07,0a16.41,16.41,0,0,1-3.17-2,1.5,1.5,0,0,0-.78-.27l-1.66,0A5.12,5.12,0,0,1,28.71,36a3.68,3.68,0,0,1-2-2.28c0-.06,0-.12-.05-.2a5.13,5.13,0,0,1,3.3.94A3.69,3.69,0,0,1,31,35.61a1.14,1.14,0,0,0,.44.4,2.71,2.71,0,0,0,1.19.27l-.13-.14a18.69,18.69,0,0,1-2.32-2.47,1.28,1.28,0,0,0-.8-.4c-.5-.11-1-.16-1.52-.31a4.24,4.24,0,0,1-3.1-3.4c0-.19,0-.39-.07-.64a6.69,6.69,0,0,1,.74.18,4.44,4.44,0,0,1,2,1.45,9,9,0,0,1,1.15,1.82,1.71,1.71,0,0,0,1,.74l.14,0c-.22-.36-.46-.7-.66-1.06-.36-.68-.72-1.36-1.05-2.05a2.38,2.38,0,0,0-.88-1,14.34,14.34,0,0,0-1.25-.76,3.68,3.68,0,0,1-2-2.82A4.45,4.45,0,0,1,24,24a.28.28,0,0,1,.05-.12,4.53,4.53,0,0,1,2.43,3.25,2.56,2.56,0,0,0,1,1.76l.14.09c-.1-.35-.21-.67-.28-1-.14-.66-.25-1.32-.38-2a2,2,0,0,0-.19-.45,10.91,10.91,0,0,0-1.55-1.9c-.25-.26-.5-.53-.73-.81a2.74,2.74,0,0,1-.58-1.95,5.83,5.83,0,0,1,.45-2l.07-.14.12.09A5.16,5.16,0,0,1,26.1,21.9a6.22,6.22,0,0,1,0,1.67,1.07,1.07,0,0,0,.07.39A3.22,3.22,0,0,0,26.78,25c0-.63-.05-1.26,0-1.89s.13-1.5.2-2.26a.43.43,0,0,0,0-.16c-.21-.58-.43-1.16-.65-1.74a.71.71,0,0,0-.18-.27,3,3,0,0,1-.66-3,5.07,5.07,0,0,1,.78-1.58l.09-.11a2.07,2.07,0,0,1,.19.25,5.77,5.77,0,0,1,.83,2.15A3.81,3.81,0,0,1,27.23,18c-.08.35-.2.7-.3,1.05a1.67,1.67,0,0,0,.16,1.09c.14-.54.25-1,.4-1.53a13.19,13.19,0,0,1,1.19-2.69.72.72,0,0,0,0-.85,3,3,0,0,1-.45-2,4.25,4.25,0,0,1,.56-1.73c.24-.42.52-.81.78-1.21A.54.54,0,0,0,29.6,10l.07,0c.08.35.18.71.24,1.06a5.17,5.17,0,0,1-.14,2.53,3.14,3.14,0,0,1-.56,1.07,1.07,1.07,0,0,0-.31.82c.07-.09.11-.13.14-.18a12,12,0,0,1,2.39-2.91,1.26,1.26,0,0,0,.43-.7,2.93,2.93,0,0,1,1.51-2,3.14,3.14,0,0,1,1.77-.31c0,.18,0,.34-.07.5a3.26,3.26,0,0,1-2.25,2.45c-.24.09-.5.13-.75.2a.47.47,0,0,0-.2.1,12.59,12.59,0,0,0-2.33,2.81.87.87,0,0,0-.07.17,1.12,1.12,0,0,0,.6-.44,4.4,4.4,0,0,1,2.74-2,3.65,3.65,0,0,1,1.51-.09,4,4,0,0,1-1.13,1.68A4.77,4.77,0,0,1,30.64,16c-.31,0-.62.06-.93.11a1.19,1.19,0,0,0-.91.67,14.14,14.14,0,0,0-1.21,3.39v.07l.05,0a4.21,4.21,0,0,0,.45-.68,5.3,5.3,0,0,1,2-2.53A3.54,3.54,0,0,1,32,16.48,5.34,5.34,0,0,1,31,18.56a3.88,3.88,0,0,1-2.51,1.53,1.54,1.54,0,0,0-.53.29,1.41,1.41,0,0,0-.6,1.19c0,.82-.07,1.65-.1,2.47a3.8,3.8,0,0,0,0,.46,3.56,3.56,0,0,0,.5-1.42,3.5,3.5,0,0,1,2.62-2.92s0,0,.08,0a3.44,3.44,0,0,1-.38,2.2A4.39,4.39,0,0,1,28,24.28a.91.91,0,0,0-.55.83,6.89,6.89,0,0,0,.32,2.47c.09.36.22.71.32,1.07h.08c0-.29,0-.57,0-.85A4.17,4.17,0,0,1,29,25a3.28,3.28,0,0,1,1.59-1,.33.33,0,0,1,.1,0,6.61,6.61,0,0,1-.25,2.34,3.07,3.07,0,0,1-.92,1.2c-.22.21-.47.41-.71.6a1.51,1.51,0,0,0-.52.93,1.11,1.11,0,0,0,.09.5,12,12,0,0,0,1.41,2.71c.24.38.49.74.76,1.1a1.65,1.65,0,0,0-.19-1,4.11,4.11,0,0,1-.55-2.35,3.45,3.45,0,0,1,.93-2.09,3.75,3.75,0,0,1,.86,2.63,2.72,2.72,0,0,1-.47,1.39A2,2,0,0,0,30.81,33c0,.09,0,.19,0,.28a1,1,0,0,0,.27.76,22.92,22.92,0,0,0,2.37,2.25s0,0,.09,0a5.32,5.32,0,0,0-.52-1,3.43,3.43,0,0,1-.47-3.7c.11-.27.25-.52.38-.78l.07,0a7.56,7.56,0,0,1,.58.93,4.22,4.22,0,0,1,.23,3.27,2.18,2.18,0,0,0-.06,1.16,1.54,1.54,0,0,0,.67.87,11.66,11.66,0,0,0,2.73,1.49l-.63-.65a5.48,5.48,0,0,1-1-1.1,3.57,3.57,0,0,1-.42-2.15C35.15,34.15,35.23,33.77,35.3,33.35Zm8.09,4.57a3.13,3.13,0,0,0-.52.16c-.15.06-.14.18,0,.27a1.29,1.29,0,0,0,1.07,0c.15-.1.15-.23,0-.3A3.57,3.57,0,0,0,43.39,37.92Zm0,2.78c.26,0,.47-.15.48-.32s-.2-.31-.45-.33-.51.14-.52.32S43.13,40.7,43.41,40.7Zm0-1a2.2,2.2,0,0,0,.41-.12c.16-.08.17-.23,0-.32a.84.84,0,0,0-.84,0c-.15.08-.15.23,0,.31A2.45,2.45,0,0,0,43.4,39.69Zm1,.07.17-.06a1.54,1.54,0,0,0,.51-1.28s-.08-.08-.11-.13-.11.08-.14.14,0,.11,0,.17a1.21,1.21,0,0,1-.23.8A4,4,0,0,0,44.42,39.76Zm-2.1,0,0,0a3.12,3.12,0,0,1-.2-.35c-.07-.21-.14-.42-.19-.63s0-.17,0-.25a.9.9,0,0,0-.15-.19c0,.06-.12.13-.12.19a1.55,1.55,0,0,0,.38,1.09A2.51,2.51,0,0,0,42.32,39.76Z"/><path class="cls-5" d="M36.11,22c0,.5,0,1,0,1.52a7.34,7.34,0,0,0,5.65,7.18,7.36,7.36,0,0,0,9.08-6.83,12.79,12.79,0,0,0-.08-1.52,1.09,1.09,0,0,1,0-.19,8.68,8.68,0,0,1-.52,10.65,9,9,0,0,1-12.9.66A8.79,8.79,0,0,1,36.11,22Z"/><path class="cls-3" d="M43.39,37.92a3.57,3.57,0,0,1,.52.14c.17.07.17.2,0,.3a1.29,1.29,0,0,1-1.07,0c-.13-.09-.14-.21,0-.27A3.13,3.13,0,0,1,43.39,37.92Z"/><path class="cls-3" d="M43.41,40.7c-.28,0-.5-.15-.49-.33s.26-.34.52-.32.45.17.45.33S43.67,40.69,43.41,40.7Z"/><path class="cls-3" d="M43.4,39.69a2.45,2.45,0,0,1-.41-.12c-.16-.08-.16-.23,0-.31a.84.84,0,0,1,.84,0c.16.09.15.24,0,.32A2.2,2.2,0,0,1,43.4,39.69Z"/><path class="cls-3" d="M44.42,39.76a4,4,0,0,1,.18-.36,1.21,1.21,0,0,0,.23-.8c0-.06,0-.13,0-.17s.09-.09.14-.14.1.09.11.13a1.54,1.54,0,0,1-.51,1.28Z"/><path class="cls-3" d="M42.32,39.76a2.51,2.51,0,0,1-.24-.19,1.55,1.55,0,0,1-.38-1.09c0-.06.08-.13.12-.19a.9.9,0,0,1,.15.19c0,.08,0,.17,0,.25s.12.42.19.63a3.12,3.12,0,0,0,.2.35Z"/><path class="cls-3" d="M43.36,20.54c0-.06-.1-.1-.1-.11a1.07,1.07,0,0,1,.18-.19.65.65,0,0,1,.09.08Z"/><path class="cls-6" d="M51,10.83s-1.1.92-4,1a10.59,10.59,0,0,1-3.69-.86,10.46,10.46,0,0,1-3.63.86,10.8,10.8,0,0,1-4-.9,27.43,27.43,0,0,0,.89,10.92s1.42,6,6.72,8.89h.22a13.87,13.87,0,0,0,5.32-5.61S51.43,21,51.23,13.76A28.79,28.79,0,0,0,51,10.83Z"/><path class="cls-4" d="M36.64,21.82a3.05,3.05,0,0,1-.17-1c0-3.18,0-6.37,0-9.55v-.08l.66.22s.07.07.08.12a.29.29,0,0,1,0,.13c0,3.2,0,6.4,0,9.59a.32.32,0,0,1-.2.34A2.89,2.89,0,0,0,36.64,21.82Z"/><path class="cls-4" d="M37.44,11.52l.71.16v.21c0,3,0,5.93,0,8.89a.3.3,0,0,1-.19.32l-.53.28Z"/><path class="cls-4" d="M38.38,11.71l.72.07v8.49a.29.29,0,0,1-.18.31,5.77,5.77,0,0,0-.54.29Z"/><path class="cls-4" d="M39.31,20.36V11.8H40a1.27,1.27,0,0,1,0,.2q0,3.89,0,7.78a.26.26,0,0,1-.17.28A6.32,6.32,0,0,0,39.31,20.36Z"/><path class="cls-4" d="M43.77,22.46v8a.31.31,0,0,1-.4.26h0a.52.52,0,0,1-.36-.57c0-2.35,0-4.69,0-7a.27.27,0,0,1,.15-.28Z"/><path class="cls-4" d="M41.19,11.65l.75-.17v7.24a.3.3,0,0,1-.18.31,6.32,6.32,0,0,0-.57.3Z"/><path class="cls-4" d="M40.26,11.77l.71-.08v.21q0,3.67,0,7.35a.28.28,0,0,1-.18.3c-.17.08-.34.18-.54.29Z"/><path class="cls-4" d="M46.49,20.82v7.25a.6.6,0,0,0,0,.22l-.74.83,0,0c0-.06,0-.13,0-.2V21.46a.3.3,0,0,1,.18-.31C46.11,21.06,46.28,20.94,46.49,20.82Z"/><path class="cls-4" d="M45.57,29.3l-.74.59V22A.31.31,0,0,1,45,21.7l.51-.31v.25q0,3.67,0,7.37C45.54,29.09,45.56,29.18,45.57,29.3Z"/><path class="cls-4" d="M43,18.33v-7a.35.35,0,0,1,.53-.32l.23.12q0,3.35,0,6.67a.22.22,0,0,1-.14.22Z"/><path class="cls-4" d="M36.23,20.32a28.91,28.91,0,0,1-.48-9.42L36,11l.25.11v9.19Z"/><path class="cls-4" d="M46.71,28.14v-.21c0-2.35,0-4.69,0-7a.31.31,0,0,1,.18-.32,4,4,0,0,0,.54-.32v.26q0,3.28,0,6.59a.66.66,0,0,1-.19.5c-.17.18-.32.38-.48.56Z"/><path class="cls-4" d="M44,30.46V22.53a.3.3,0,0,1,.18-.32c.14-.07.27-.16.43-.25a1.42,1.42,0,0,1,0,.19v7.74a.23.23,0,0,1-.13.25C44.32,30.23,44.18,30.34,44,30.46Z"/><path class="cls-4" d="M42.81,11.19v7.06a.26.26,0,0,1-.17.29,4.49,4.49,0,0,0-.47.26c0-.09,0-.15,0-.21v-7c0-.15,0-.22.18-.26Z"/><path class="cls-4" d="M47.64,27a1.09,1.09,0,0,1,0-.18q0-3.27,0-6.54a.28.28,0,0,1,.17-.28c.17-.09.33-.2.52-.31a1.16,1.16,0,0,1,0,.17V26s0,.08,0,.1l-.61.92Z"/><path class="cls-4" d="M42.79,30.38,42.18,30s0-.08,0-.13V23.58a.22.22,0,0,1,.13-.23l.5-.3Z"/><path class="cls-4" d="M49.26,19.14v.27c0,1.49,0,3,0,4.47a1.84,1.84,0,0,1-.26,1l-.42.78h-.05c0-.05,0-.1,0-.15,0-1.92,0-3.85,0-5.77a.23.23,0,0,1,.14-.24Z"/><path class="cls-4" d="M41.92,29.78c-.25-.21-.48-.39-.69-.58a.2.2,0,0,1,0-.15q0-2.44,0-4.89a.27.27,0,0,1,.07-.18c.21-.14.43-.26.67-.41Z"/><path class="cls-4" d="M44,17.79V11.2c.2.07.38.12.56.2a.3.3,0,0,1,0,.18v5.71a.21.21,0,0,1-.14.25Z"/><path class="cls-4" d="M44.84,11.48l.69.16v.2c0,1.64,0,3.28,0,4.92a.28.28,0,0,1-.18.29c-.17.08-.33.18-.52.28Z"/><path class="cls-4" d="M45.76,16.83V11.68l.73.09v4.47a.28.28,0,0,1-.18.29Z"/><path class="cls-4" d="M47.42,11.8v3.93a.25.25,0,0,1-.16.28c-.18.08-.35.19-.54.29V11.8Z"/><path class="cls-4" d="M41,24.16V29a4,4,0,0,0-.38-.36.84.84,0,0,1-.34-.78c0-1,0-2,0-3.08a.23.23,0,0,1,.14-.25C40.58,24.4,40.76,24.28,41,24.16Z"/><path class="cls-4" d="M49.46,23.81V19.2a.26.26,0,0,1,.16-.28l.57-.34v.22c0,.86,0,1.72,0,2.58a3,3,0,0,1-.2,1.19c-.17.41-.32.84-.47,1.25Z"/><path class="cls-4" d="M48.55,11.68l.69-.15a1.1,1.1,0,0,1,0,.18c0,1,0,2,0,3a.28.28,0,0,1-.17.28,5.77,5.77,0,0,0-.54.29Z"/><path class="cls-4" d="M47.64,15.8v-4l.68-.08v3.54a.24.24,0,0,1-.16.26C48,15.59,47.83,15.69,47.64,15.8Z"/><path class="cls-4" d="M50.41,14.28c0-.09,0-.14,0-.2V11.29c0-.12,0-.2.15-.24a3.88,3.88,0,0,0,.48-.22c0,.56.11,1.08.15,1.59s0,.83.06,1.24a.2.2,0,0,1-.13.24C50.88,14,50.66,14.14,50.41,14.28Z"/><path class="cls-4" d="M49.47,11.46l.72-.25v.21c0,.93,0,1.86,0,2.79a.28.28,0,0,1-.18.29l-.55.29Z"/><path class="cls-4" d="M46.44,19.23a1.53,1.53,0,0,0,.09.34.2.2,0,0,0,.17.08.18.18,0,0,0,.12-.13,1.6,1.6,0,0,1,1-1.4L47.37,18c-.34-.12-.42-.22-.44-.57a.26.26,0,0,1,0-.19,7.21,7.21,0,0,1,1.25-1.06.64.64,0,0,1-.23.63c-.3.21-.57.46-.89.72a1,1,0,0,0,.21.12c.34.12.67.24,1,.34a2.47,2.47,0,0,0,.6.08c.15,0,.21-.12.11-.22s-.06-.3,0-.47a.9.9,0,0,1,.22.66.28.28,0,0,1-.27.27,3.94,3.94,0,0,1-.77-.05c-.14,0-.23,0-.32.09a1.92,1.92,0,0,1-.22.18,1.12,1.12,0,0,0-.53.92,1,1,0,0,1-.08.37.36.36,0,0,1-.36.24.4.4,0,0,1-.36-.29A.53.53,0,0,1,46.44,19.23Z"/><path class="cls-4" d="M40,28c-.26-.32-.5-.6-.72-.89,0,0,0-.16,0-.24V25.33a.25.25,0,0,1,.14-.26c.19-.1.37-.22.58-.35Z"/><path class="cls-4" d="M43.9,20.44c-.09.11-.15.21-.23.29a.39.39,0,0,1-.51.11.44.44,0,0,1-.14-.57A.54.54,0,0,1,43.8,20,.62.62,0,0,1,44,21.11a1.86,1.86,0,0,1-1.53.61.63.63,0,0,1-.47.51c-.26.1-.35.06-.44-.23l.29-.08c.38-.14.45-.37.16-.65s-.15-.26,0-.42c.1.11.22.22.32.34a.53.53,0,0,0,.63.17,2.37,2.37,0,0,0,.92-.6C43.92,20.69,44,20.59,43.9,20.44Zm-.5.1a2.65,2.65,0,0,0,.17-.22l-.09-.08a1.71,1.71,0,0,0-.18.2Z"/><path class="cls-4" d="M41.11,21.26l.19.31c-.16.19-.32.36-.46.55a1.25,1.25,0,0,0-.2.42.51.51,0,0,0,.66.65,2,2,0,0,0,.48-.19,4.25,4.25,0,0,0,.46-.29.68.68,0,0,1-.26.58,1.36,1.36,0,0,1-1.13.31.55.55,0,0,1-.5-.62,8.6,8.6,0,0,1,.19-.88c-.28,0-.47.14-.49.47-.15-.06-.28-.15-.29-.32a.36.36,0,0,1,.23-.36,1.9,1.9,0,0,1,.4-.14A1.12,1.12,0,0,0,41.11,21.26Z"/><path class="cls-4" d="M45.79,19.2l-.35,0c-.25,0-.36-.07-.33-.31a1.91,1.91,0,0,1,.19-.57.42.42,0,0,1,.47-.21.24.24,0,0,1,.22.28c0,.18-.14.23-.29.14s-.3-.08-.35.14,0,.21.17.22a.43.43,0,0,1,.44.6.66.66,0,0,1-.13.25,1.57,1.57,0,0,1-1,.49.38.38,0,0,1-.45-.3,4,4,0,0,1-.1-.5l.07,0,.07.14a.42.42,0,0,0,.48.23,6.58,6.58,0,0,0,.82-.36c.05,0,.08-.09.12-.13Z"/><path class="cls-4" d="M50.41,21c0-.06,0-.11,0-.17V18.62a.26.26,0,0,1,.14-.26c.15-.07.29-.17.48-.28A21.37,21.37,0,0,1,50.46,21Z"/><path class="cls-4" d="M39,26.8l-.29-.42c-.11-.18-.23-.35-.33-.53a.2.2,0,0,1,0-.17l.64-.39v1.48Z"/><path class="cls-4" d="M42.94,19.16l.37,0,0,.4H43l-.06.27-.36,0v-.37h.29Z"/><path class="cls-4" d="M45.52,20.65l-.28-.18.11-.24.2,0,.08-.23.29.12-.09.31-.21-.08Z"/><path class="cls-4" d="M47.07,16.6v-.25h.26v.29Z"/><path class="cls-4" d="M48.21,17.12l.18,0v.27l-.18-.05Z"/></g></svg>