<?xml version="1.0" standalone="no"?>
<!DOCTYPE svg PUBLIC "-//W3C//DTD SVG 20010904//EN"
 "http://www.w3.org/TR/2001/REC-SVG-20010904/DTD/svg10.dtd">
<svg version="1.0" xmlns="http://www.w3.org/2000/svg"
 width="409.000000pt" height="91.000000pt" viewBox="0 0 409.000000 91.000000"
 preserveAspectRatio="xMidYMid meet">

<g transform="translate(0.000000,91.000000) scale(0.100000,-0.100000)"
fill="#fff" stroke="none">
<path d="M2 803 c3 -74 6 -88 21 -91 15 -3 17 6 17 72 l0 76 423 -2 422 -3 0
-385 0 -385 -423 -3 -422 -2 2 277 c3 239 5 278 18 278 13 0 15 -28 18 -182
l2 -183 240 0 239 0 -2 33 -2 32 110 5 110 5 0 50 c0 39 -4 50 -17 53 -15 3
-18 -4 -18 -33 l0 -36 -92 3 -92 3 -1 30 c0 30 -1 30 -55 30 l-55 0 0 -50 0
-50 38 -3 c30 -3 37 -7 35 -20 -3 -15 -24 -17 -202 -17 l-198 0 -1 165 0 165
54 0 c41 0 54 -4 54 -15 0 -10 -12 -16 -37 -18 l-38 -3 0 -55 0 -54 130 0 130
0 0 90 c0 83 -2 90 -20 90 -17 0 -19 -8 -22 -72 -2 -57 -6 -73 -18 -73 -12 0
-16 16 -18 73 -2 54 -6 72 -17 72 -11 0 -15 -18 -17 -72 -2 -57 -6 -73 -18
-73 -12 0 -16 16 -18 72 l-3 72 -71 3 -71 3 -1 50 -1 50 348 3 347 2 0 -240 0
-240 -110 0 c-91 0 -110 -3 -110 -15 0 -13 21 -15 130 -15 l130 0 0 275 0 275
-385 0 -384 0 -3 -72 -3 -73 -35 -5 -35 -5 0 -310 0 -310 190 -5 c105 -3 310
-4 458 -2 l267 3 0 424 0 425 -460 0 -461 0 3 -87z m223 -263 c0 -22 -29 -18
-33 3 -3 14 1 18 15 15 10 -2 18 -10 18 -18z m295 -145 c0 -8 -9 -15 -20 -15
-11 0 -20 7 -20 15 0 8 9 15 20 15 11 0 20 -7 20 -15z"/>
<path d="M1330 845 c-10 -13 -9 -15 9 -15 11 0 21 4 21 9 0 18 -18 21 -30 6z"/>
<path d="M1735 850 c-3 -5 -1 -10 4 -10 6 0 11 5 11 10 0 6 -2 10 -4 10 -3 0
-8 -4 -11 -10z"/>
<path d="M2130 773 c-223 -76 -283 -103 -269 -118 6 -5 258 78 400 131 77 30
128 58 119 67 -3 2 -115 -33 -250 -80z"/>
<path d="M2495 853 c-58 -9 -75 -42 -22 -44 l32 -1 -30 -13 c-16 -8 -23 -14
-15 -15 17 0 82 37 92 53 6 10 -10 29 -22 25 -3 0 -18 -3 -35 -5z"/>
<path d="M2670 845 c-10 -13 -9 -15 9 -15 11 0 21 4 21 9 0 18 -18 21 -30 6z"/>
<path d="M3026 844 c-6 -16 12 -49 22 -39 3 2 -1 11 -8 20 -8 10 -9 15 -1 15
6 0 11 5 11 10 0 16 -17 12 -24 -6z"/>
<path d="M3656 853 c-11 -11 -6 -23 9 -23 8 0 15 4 15 9 0 13 -16 22 -24 14z"/>
<path d="M3770 773 c-213 -72 -283 -104 -266 -121 5 -4 196 59 373 125 104 38
157 66 142 76 -2 1 -114 -35 -249 -80z"/>
<path d="M1945 840 c-3 -5 3 -10 14 -10 12 0 21 5 21 10 0 6 -6 10 -14 10 -8
0 -18 -4 -21 -10z"/>
<path d="M2915 814 c-85 -38 -91 -41 -83 -49 6 -7 178 70 178 79 0 10 -12 6
-95 -30z"/>
<path d="M3265 840 c-3 -5 3 -10 14 -10 12 0 21 5 21 10 0 6 -6 10 -14 10 -8
0 -18 -4 -21 -10z"/>
<path d="M1260 830 c0 -5 6 -13 14 -17 7 -4 19 -19 25 -31 7 -13 15 -22 17
-19 7 7 -36 77 -47 77 -5 0 -9 -4 -9 -10z"/>
<path d="M1540 813 c0 -16 11 -127 25 -247 14 -120 25 -225 25 -233 0 -8 5
-11 10 -8 15 9 12 60 -11 249 -14 118 -17 171 -10 175 8 5 6 20 -6 49 -18 48
-33 55 -33 15z"/>
<path d="M1880 830 c0 -5 6 -13 14 -17 7 -4 19 -19 25 -31 7 -13 15 -21 18
-18 7 7 -36 76 -48 76 -5 0 -9 -4 -9 -10z"/>
<path d="M2600 830 c0 -5 6 -13 14 -17 7 -4 19 -19 25 -31 7 -13 15 -21 18
-18 7 7 -36 76 -48 76 -5 0 -9 -4 -9 -10z"/>
<path d="M2769 828 c-1 -7 -1 -16 -1 -19 47 -427 57 -498 66 -466 7 24 0 114
-31 366 -5 44 -4 53 7 46 10 -6 12 -4 6 11 -5 10 -13 31 -18 47 -10 28 -27 37
-29 15z"/>
<path d="M3200 830 c0 -5 6 -13 14 -17 7 -4 19 -19 25 -31 7 -13 15 -21 18
-18 7 7 -36 76 -48 76 -5 0 -9 -4 -9 -10z"/>
<path d="M3580 832 c0 -4 9 -13 20 -20 12 -7 25 -23 30 -35 6 -15 9 -17 9 -6
1 18 -36 69 -50 69 -5 0 -9 -3 -9 -8z"/>
<path d="M1720 823 c0 -6 9 -21 20 -34 15 -18 19 -20 20 -8 0 9 -9 24 -20 34
-11 10 -20 13 -20 8z"/>
<path d="M1347 761 c-99 -34 -176 -66 -190 -79 -12 -12 -16 -22 -10 -22 15 0
290 98 324 116 21 11 60 46 48 43 -2 0 -80 -26 -172 -58z"/>
<path d="M1613 780 c2 -26 27 -35 35 -12 2 6 -3 12 -11 12 -9 0 -18 6 -21 13
-3 6 -4 1 -3 -13z"/>
<path d="M3417 778 c-9 -33 1 -60 21 -56 20 4 28 28 8 28 -9 0 -16 11 -18 28
l-3 27 -8 -27z"/>
<path d="M1030 769 c0 -12 5 -19 12 -17 18 6 20 25 3 31 -10 5 -15 0 -15 -14z"/>
<path d="M3110 769 c0 -12 5 -19 12 -17 18 6 20 25 3 31 -10 5 -15 0 -15 -14z"/>
<path d="M1686 749 c-21 -16 -35 -29 -30 -29 6 0 25 13 44 30 45 37 37 37 -14
-1z"/>
<path d="M157 744 c-4 -4 -7 -13 -7 -21 0 -10 28 -13 131 -13 119 0 130 2 127
18 -3 15 -18 17 -124 20 -66 1 -123 -1 -127 -4z"/>
<path d="M444 737 c-2 -8 -4 -49 -2 -93 3 -66 6 -79 21 -82 15 -3 17 6 17 72
0 70 2 76 20 76 20 0 21 -5 18 -92 l-3 -93 -35 -1 c-24 0 -35 -5 -35 -15 0
-10 14 -14 55 -14 54 0 55 0 55 30 1 30 1 30 55 30 55 0 55 0 58 -33 l3 -33
51 3 c62 4 77 25 21 30 l-38 3 -3 93 c-3 87 -2 92 18 92 18 0 20 -6 20 -76 0
-66 2 -75 18 -72 15 3 17 16 17 93 l0 90 -54 0 -54 0 -1 -70 c-1 -57 -4 -70
-18 -73 -15 -3 -18 7 -20 70 -2 57 -6 73 -18 73 -12 0 -16 -16 -18 -73 -2 -61
-6 -73 -19 -70 -12 2 -16 18 -17 73 l-1 70 -53 3 c-37 2 -54 -1 -58 -11z"/>
<path d="M1100 722 c0 -5 7 -9 15 -9 8 0 15 4 15 9 0 4 -7 8 -15 8 -8 0 -15
-4 -15 -8z"/>
<path d="M2890 715 c-11 -14 -10 -19 8 -38 21 -21 22 -21 36 -2 15 20 15 20
30 0 l15 -20 15 20 c13 18 13 22 -5 40 -20 20 -20 20 -34 1 -14 -18 -16 -18
-33 -2 -17 15 -20 15 -32 1z"/>
<path d="M1040 709 c0 -8 10 -19 22 -24 25 -11 40 -54 25 -73 -7 -8 -6 -25 1
-50 7 -20 14 -48 16 -62 3 -14 3 -5 1 20 -2 25 -7 55 -10 66 -5 16 -2 23 16
27 19 5 21 8 9 23 -8 9 -19 25 -25 36 -14 29 -55 56 -55 37z"/>
<path d="M1730 689 c0 -12 5 -19 12 -17 18 6 20 25 3 31 -10 5 -15 0 -15 -14z"/>
<path d="M2286 703 c-11 -11 -7 -20 9 -20 8 0 15 4 15 8 0 11 -16 20 -24 12z"/>
<path d="M3032 690 c-8 -20 -3 -39 25 -94 l35 -70 -22 -18 c-24 -20 -50 -24
-50 -8 0 19 -40 50 -64 50 -29 0 -66 -42 -66 -76 0 -39 28 -57 77 -50 79 11
42 -39 -74 -98 -89 -45 -145 -28 -169 50 -10 32 -12 34 -13 14 -2 -39 16 -91
41 -117 43 -46 133 -21 228 64 32 29 50 53 50 68 0 14 13 32 34 49 46 35 56
88 26 145 -11 23 -19 45 -16 49 3 5 -4 21 -14 37 l-19 29 -9 -24z m-67 -201
c10 -15 -1 -22 -24 -14 -12 3 -19 11 -16 16 8 12 32 11 40 -2z"/>
<path d="M3941 677 c-1 -21 3 -28 16 -25 21 4 30 28 10 28 -9 0 -18 6 -20 13
-3 6 -6 -1 -6 -16z"/>
<path d="M2210 686 c0 -3 14 -18 30 -34 34 -35 40 -27 9 12 -18 23 -39 35 -39
22z"/>
<path d="M2400 682 c0 -6 5 -14 10 -17 16 -10 12 -28 -5 -21 -8 3 -15 1 -15
-4 0 -6 9 -10 20 -10 24 0 27 32 5 50 -9 8 -15 9 -15 2z"/>
<path d="M3176 681 c-3 -5 1 -11 9 -15 8 -3 15 -1 15 4 0 13 -18 22 -24 11z"/>
<path d="M2572 664 c3 -17 21 -21 26 -6 1 5 -4 12 -13 16 -11 4 -15 1 -13 -10z"/>
<path d="M1313 650 c1 -18 -3 -25 -15 -24 -10 1 -18 -4 -18 -12 0 -8 7 -14 15
-14 8 0 15 4 15 9 0 5 9 7 20 4 24 -6 36 18 21 44 -9 15 -10 13 -5 -11 8 -34
-11 -28 -27 8 -8 20 -9 20 -6 -4z"/>
<path d="M3110 657 c0 -8 9 -17 20 -20 25 -6 41 -46 27 -68 -6 -10 -4 -34 7
-75 12 -44 15 -49 11 -19 -3 22 -8 50 -11 62 -4 16 0 23 16 28 18 6 19 9 8 22
-7 8 -17 24 -23 35 -5 12 -20 28 -32 36 -20 13 -23 13 -23 -1z"/>
<path d="M1460 654 c1 -31 40 -42 40 -12 0 6 -3 8 -7 5 -3 -4 -12 -2 -20 4 -7
6 -13 8 -13 3z"/>
<path d="M2725 649 c-4 -6 -5 -12 -2 -15 2 -3 7 2 10 11 7 17 1 20 -8 4z"/>
<path d="M2830 652 c0 -5 7 -15 15 -22 8 -7 15 -29 16 -49 l1 -36 8 29 c6 20
5 38 -3 55 -12 25 -37 41 -37 23z"/>
<path d="M3712 640 c-11 -19 -10 -20 25 -21 l38 -1 -30 -13 c-16 -8 -23 -14
-14 -15 15 0 99 55 99 65 0 3 -24 5 -53 5 -41 0 -55 -4 -65 -20z"/>
<path d="M2492 638 c-16 -16 -15 -33 4 -48 12 -11 18 -10 32 3 15 16 15 18 -4
37 -15 16 -22 18 -32 8z"/>
<path d="M3250 629 c0 -12 12 -57 27 -101 33 -97 29 -109 -65 -180 -50 -38
-71 -48 -101 -48 -22 0 -44 6 -51 15 -12 15 -10 66 5 110 3 11 -2 7 -11 -10
-10 -17 -18 -51 -18 -79 0 -41 5 -53 28 -72 15 -13 34 -24 42 -24 43 0 159 85
194 143 l18 28 6 -35 c4 -20 18 -49 32 -66 34 -40 81 -40 167 0 35 17 92 36
124 43 56 11 93 30 93 47 0 4 -54 11 -120 16 l-119 9 43 43 43 43 21 -35 c23
-39 53 -47 87 -22 16 12 22 12 42 -2 22 -14 26 -13 46 6 21 20 25 20 38 6 20
-19 41 -11 62 26 l18 30 39 -25 c62 -39 90 -29 90 33 0 88 -54 98 -120 22 -48
-55 -66 -61 -79 -28 -8 22 -8 22 -26 -6 -22 -34 -60 -33 -59 2 l1 23 -27 -26
c-37 -35 -75 -33 -95 5 -9 17 -20 30 -25 30 -5 0 -27 -18 -48 -39 -34 -35
-114 -71 -156 -71 -11 0 -41 -39 -34 -45 2 -1 44 -7 93 -11 l90 -9 -42 -23
c-23 -12 -57 -22 -76 -22 -53 0 -75 33 -103 149 -26 113 -48 171 -63 171 -6 0
-11 -10 -11 -21z m740 -84 c7 -9 10 -18 7 -21 -6 -7 -47 18 -47 28 0 14 27 9
40 -7z"/>
<path d="M1705 621 c-3 -10 8 -60 25 -111 l31 -92 -28 -30 c-63 -67 -170 -107
-201 -76 -15 15 -16 67 -1 105 8 21 7 25 -1 17 -31 -31 -31 -132 1 -170 32
-39 139 2 209 82 l30 35 12 -26 c37 -82 183 -89 305 -14 19 12 35 20 37 18 2
-2 9 -14 15 -26 15 -29 53 -30 121 -4 l50 19 14 -33 c22 -51 55 -68 124 -63
71 5 193 59 228 102 22 26 25 36 20 80 -9 87 -12 100 -27 123 l-14 23 -11 -22
c-11 -20 -3 -47 43 -155 6 -15 -92 -65 -171 -88 -67 -20 -128 -15 -157 11 -29
26 -23 37 36 63 30 13 55 27 55 31 0 5 3 15 6 24 5 12 -7 10 -56 -10 -34 -14
-64 -23 -66 -21 -2 2 1 20 7 41 6 21 8 40 5 43 -2 3 -10 -15 -17 -39 -16 -54
-22 -62 -48 -53 -30 9 -81 54 -81 71 0 22 61 48 117 48 57 0 60 9 8 26 -67 22
-145 -27 -145 -91 0 -15 11 -41 25 -57 32 -39 32 -42 -9 -42 -35 0 -51 12 -57
43 -4 16 -8 15 -42 -8 -54 -37 -114 -56 -178 -57 -59 -1 -115 22 -123 52 -3 8
-14 54 -25 103 -19 78 -44 147 -56 147 -2 0 -6 -8 -10 -19z"/>
<path d="M1965 620 c-18 -20 -17 -20 21 -20 39 -1 39 -1 14 -15 -14 -8 -21
-14 -17 -15 15 0 62 28 81 49 l19 21 -50 0 c-37 0 -54 -5 -68 -20z"/>
<path d="M1044 585 c-9 -14 -15 -27 -13 -30 3 -2 12 10 21 26 21 36 15 39 -8
4z"/>
<path d="M2703 570 c2 -41 30 -53 47 -20 10 19 10 21 -8 16 -13 -5 -22 0 -30
16 -11 21 -11 20 -9 -12z"/>
<path d="M3351 578 c-1 -32 12 -43 29 -23 10 12 10 15 -3 15 -9 0 -18 8 -20
18 -3 11 -5 7 -6 -10z"/>
<path d="M3510 592 c0 -5 7 -13 16 -16 10 -4 14 -1 12 6 -5 15 -28 23 -28 10z"/>
<path d="M3440 584 c0 -7 14 -26 30 -44 17 -18 30 -28 30 -23 0 13 -59 80 -60
67z"/>
<path d="M2151 565 c5 -23 30 -27 37 -5 3 8 1 12 -3 8 -5 -4 -15 -2 -23 4 -12
10 -14 9 -11 -7z"/>
<path d="M1426 554 c-7 -18 8 -91 29 -141 8 -20 15 -42 15 -50 0 -20 -41 -32
-67 -20 -27 12 -40 45 -48 125 -7 72 -13 92 -27 92 -6 0 -7 -34 -3 -94 7 -87
6 -95 -14 -115 -31 -31 -84 -28 -111 6 -19 24 -21 35 -14 83 10 81 10 93 -2
97 -14 5 -38 -57 -57 -141 -14 -65 -36 -88 -64 -70 -10 6 -21 22 -24 35 l-7
24 -1 -26 c-1 -32 34 -79 59 -79 15 0 23 13 34 53 8 28 21 75 29 102 l15 50 1
-76 c1 -93 22 -129 75 -129 38 0 57 13 85 60 12 19 21 28 21 19 0 -9 9 -28 21
-43 25 -32 68 -35 94 -6 25 28 31 99 10 139 -9 18 -14 39 -11 48 5 12 -18 73
-28 73 -2 0 -7 -7 -10 -16z"/>
<path d="M1016 507 c-12 -57 29 -93 54 -48 14 28 13 31 -12 28 -17 -1 -24 4
-28 28 l-7 30 -7 -38z"/>
<path d="M597 524 c-14 -15 -6 -34 14 -34 14 0 19 5 17 17 -3 18 -20 27 -31
17z"/>
<path d="M1841 498 c-1 -31 10 -36 29 -13 10 12 10 15 -3 15 -8 0 -18 6 -20
13 -3 6 -6 0 -6 -15z"/>
<path d="M1637 448 c-9 -33 1 -60 21 -56 20 4 28 28 8 28 -9 0 -16 11 -18 28
l-3 27 -8 -27z"/>
<path d="M1950 461 c0 -5 7 -11 15 -15 24 -9 18 -29 -6 -23 -16 4 -19 3 -11
-5 14 -14 42 -3 42 16 0 9 -9 20 -20 26 -11 6 -20 7 -20 1z"/>
<path d="M2726 455 c-3 -9 -6 -22 -5 -28 0 -7 5 -1 10 12 5 13 8 26 5 28 -2 2
-6 -3 -10 -12z"/>
<path d="M2512 440 c3 -27 28 -34 36 -11 3 8 0 11 -6 7 -6 -3 -16 2 -22 11 -9
16 -10 15 -8 -7z"/>
<path d="M150 395 l0 -55 90 0 90 0 0 55 c0 42 -3 55 -15 55 -10 0 -15 -11
-15 -35 l0 -35 -55 0 -55 0 0 35 c0 28 -4 35 -20 35 -18 0 -20 -7 -20 -55z"/>
<path d="M230 430 c0 -11 7 -20 15 -20 8 0 15 9 15 20 0 11 -7 20 -15 20 -8 0
-15 -9 -15 -20z"/>
<path d="M370 395 c0 -48 2 -55 20 -55 18 0 20 7 20 55 0 48 -2 55 -20 55 -18
0 -20 -7 -20 -55z"/>
<path d="M592 433 c2 -10 10 -18 18 -18 8 0 16 8 18 18 2 12 -3 17 -18 17 -15
0 -20 -5 -18 -17z"/>
<path d="M670 430 c0 -11 7 -20 15 -20 8 0 15 9 15 20 0 11 -7 20 -15 20 -8 0
-15 -9 -15 -20z"/>
<path d="M1251 413 c-1 -28 13 -37 29 -18 10 12 10 15 -3 15 -8 0 -18 6 -20
13 -3 6 -6 2 -6 -10z"/>
<path d="M3113 380 c2 -26 27 -35 35 -12 2 6 -3 12 -11 12 -9 0 -18 6 -21 13
-3 6 -4 1 -3 -13z"/>
<path d="M3771 343 c-1 -28 13 -37 29 -18 10 12 10 15 -3 15 -8 0 -18 6 -20
13 -3 6 -6 2 -6 -10z"/>
<path d="M4003 346 c4 -11 3 -15 -4 -10 -6 3 -17 -3 -24 -14 -8 -11 -35 -29
-61 -41 -25 -12 -44 -24 -41 -27 7 -7 81 31 97 50 7 10 20 14 31 11 14 -5 19
-1 19 14 0 11 -5 23 -12 27 -8 5 -9 2 -5 -10z"/>
<path d="M3855 314 c-22 -14 -56 -31 -75 -40 -75 -32 -77 -33 -40 -27 31 5 52
14 100 42 8 5 27 14 43 20 15 6 27 15 27 21 0 15 -10 12 -55 -16z"/>
<path d="M2990 324 c0 -3 7 -12 15 -20 13 -14 15 -13 15 5 0 12 -6 21 -15 21
-8 0 -15 -3 -15 -6z"/>
<path d="M2269 313 c0 -5 -2 -21 -4 -36 -4 -31 18 -48 38 -28 8 8 5 11 -13 11
-22 0 -23 1 -5 20 11 12 13 20 6 20 -7 0 -9 5 -6 10 3 6 1 10 -4 10 -6 0 -11
-3 -12 -7z"/>
<path d="M3555 299 c-5 -14 -1 -27 9 -37 15 -15 17 -15 33 1 16 15 16 18 -2
37 -23 25 -32 25 -40 -1z"/>
<path d="M2081 278 c-1 -22 18 -33 32 -19 8 8 7 11 -5 11 -9 0 -19 6 -21 13
-3 7 -6 6 -6 -5z"/>
<path d="M2671 273 c-1 -28 13 -37 29 -18 10 12 10 15 -3 15 -8 0 -18 6 -20
13 -3 6 -6 2 -6 -10z"/>
<path d="M1740 264 c0 -15 26 -19 34 -5 3 5 -3 11 -14 14 -13 3 -20 0 -20 -9z"/>
<path d="M3281 265 c5 -23 30 -27 37 -5 3 8 1 12 -3 8 -5 -4 -15 -2 -23 4 -12
10 -14 9 -11 -7z"/>
<path d="M1320 254 c0 -8 5 -12 10 -9 6 4 8 11 5 16 -9 14 -15 11 -15 -7z"/>
<path d="M3625 249 c-27 -11 -56 -22 -64 -25 -8 -2 -12 -7 -9 -9 6 -6 129 34
143 46 15 14 -15 9 -70 -12z"/>
<path d="M1942 248 c-16 -16 -15 -33 4 -48 12 -11 18 -10 32 3 15 16 15 18 -4
37 -15 16 -22 18 -32 8z"/>
<path d="M80 210 c0 -16 7 -20 36 -20 28 0 35 -3 32 -17 -2 -12 -13 -18 -33
-18 -20 -1 -31 -6 -33 -18 -3 -15 9 -17 122 -17 l125 0 3 33 c3 32 3 32 58 32
54 0 54 0 55 -30 l0 -30 203 -3 202 -2 0 55 0 55 -54 0 -55 0 -3 -37 c-4 -53
-32 -52 -36 0 -3 29 -7 37 -20 35 -11 -2 -16 -14 -16 -38 -1 -50 -30 -48 -34
3 -2 28 -8 37 -22 37 -14 0 -20 -9 -22 -37 -4 -51 -33 -53 -33 -3 0 24 -5 36
-17 38 -13 2 -17 -6 -20 -35 -4 -52 -32 -53 -36 0 l-3 37 -124 0 c-96 0 -124
-3 -128 -14 -8 -20 2 -26 40 -26 27 0 34 -4 31 -17 -3 -14 -14 -18 -53 -18
l-50 0 -3 38 -3 37 -55 0 c-47 0 -54 -2 -54 -20z m730 -34 c0 -8 -5 -18 -11
-22 -14 -8 -33 11 -25 25 10 16 36 13 36 -3z"/>
<path d="M377 154 c-14 -15 -6 -34 14 -34 14 0 19 5 17 17 -3 18 -20 27 -31
17z"/>
<path d="M1037 133 c-11 -10 -8 -73 3 -73 6 0 10 8 10 17 0 15 2 15 14 -2 13
-18 14 -18 21 6 l9 24 7 -25 c6 -20 7 -17 8 18 1 49 -3 52 -23 15 l-14 -28
-11 28 c-11 29 -14 31 -24 20z"/>
<path d="M1211 131 c-17 -11 -7 -41 14 -41 8 0 15 -5 15 -11 0 -6 -9 -8 -21
-4 -15 5 -19 4 -15 -4 4 -6 16 -11 27 -11 24 0 25 28 2 46 -17 13 -17 13 0 14
10 0 15 5 12 10 -8 12 -16 12 -34 1z"/>
<path d="M1330 101 c0 -23 2 -41 4 -41 8 0 12 71 4 76 -4 3 -8 -13 -8 -35z"/>
<path d="M1367 133 c-4 -3 -7 -21 -7 -40 0 -28 4 -33 23 -33 25 0 47 17 47 36
0 28 -46 55 -63 37z m41 -35 c-5 -32 -28 -35 -28 -4 0 17 5 26 16 26 10 0 14
-7 12 -22z"/>
<path d="M1464 128 c-3 -4 0 -8 5 -8 6 0 11 -13 11 -30 0 -16 5 -30 10 -30 6
0 10 14 10 30 0 17 5 30 12 30 6 0 8 3 4 7 -10 10 -46 11 -52 1z"/>
<path d="M1619 113 c-5 -16 -12 -34 -14 -40 -2 -7 0 -13 5 -13 6 0 10 5 10 10
0 14 28 12 33 -2 2 -7 7 -10 11 -7 8 7 -19 79 -29 79 -3 0 -10 -12 -16 -27z"/>
<path d="M1687 134 c-11 -11 -8 -74 3 -74 6 0 10 10 11 23 l0 22 16 -22 c22
-33 33 -28 33 12 0 19 -4 35 -10 35 -5 0 -10 -8 -10 -17 0 -15 -3 -14 -18 5
-10 13 -21 20 -25 16z"/>
<path d="M1799 113 c-5 -16 -12 -34 -14 -40 -2 -7 0 -13 5 -13 6 0 10 5 10 10
0 14 28 12 33 -2 2 -7 7 -10 11 -7 8 7 -19 79 -29 79 -3 0 -10 -12 -16 -27z"/>
<path d="M1867 133 c-4 -3 -7 -22 -7 -40 0 -32 2 -34 28 -31 21 2 27 8 28 28
1 39 -28 65 -49 43z m38 -53 c-3 -5 -10 -10 -16 -10 -5 0 -9 5 -9 10 0 6 7 10
16 10 8 0 12 -4 9 -10z"/>
<path d="M1940 100 c0 -32 4 -40 18 -40 41 0 57 51 23 70 -33 17 -41 11 -41
-30z m38 -2 c-5 -32 -28 -35 -28 -4 0 17 5 26 16 26 10 0 14 -7 12 -22z"/>
<path d="M2225 107 c-20 -49 -52 -51 -58 -4 -4 31 -4 31 -5 -5 -2 -34 0 -38
23 -38 14 0 35 6 46 13 17 10 23 10 26 0 11 -29 21 -10 11 20 -17 51 -26 54
-43 14z m25 -7 c0 -5 -5 -10 -11 -10 -5 0 -7 5 -4 10 3 6 8 10 11 10 2 0 4 -4
4 -10z"/>
<path d="M2390 129 c0 -5 5 -9 10 -9 6 0 10 -13 10 -30 0 -16 5 -30 10 -30 6
0 10 14 10 30 0 17 5 30 12 30 21 0 -1 13 -27 16 -14 1 -25 -2 -25 -7z"/>
<path d="M2465 103 c-8 -20 -12 -39 -9 -42 4 -3 9 0 11 7 3 6 11 12 18 12 7 0
15 -6 18 -12 2 -7 7 -10 11 -7 7 7 -19 79 -28 79 -3 0 -13 -16 -21 -37z"/>
<path d="M2899 113 c-5 -16 -12 -34 -14 -40 -2 -7 0 -13 5 -13 6 0 10 5 10 10
0 14 28 12 33 -2 2 -7 7 -10 11 -7 8 7 -19 79 -29 79 -3 0 -10 -12 -16 -27z"/>
<path d="M2960 129 c0 -5 4 -9 9 -9 6 0 12 -15 14 -32 l4 -33 1 33 c1 17 7 32
12 32 6 0 10 4 10 9 0 5 -11 9 -25 9 -14 0 -25 -4 -25 -9z"/>
<path d="M3087 133 c-4 -3 -7 -22 -7 -40 0 -32 2 -34 28 -31 24 3 27 7 24 33
-4 36 -28 56 -45 38z m30 -19 c-3 -3 -12 -4 -19 -1 -8 3 -5 6 6 6 11 1 17 -2
13 -5z m3 -34 c0 -5 -4 -10 -9 -10 -6 0 -13 5 -16 10 -3 6 1 10 9 10 9 0 16
-4 16 -10z"/>
<path d="M3303 100 c0 -25 2 -35 4 -22 2 12 2 32 0 45 -2 12 -4 2 -4 -23z"/>
<path d="M3330 129 c0 -5 4 -9 9 -9 6 0 12 -15 14 -32 l4 -33 1 33 c1 17 7 32
12 32 6 0 10 4 10 9 0 5 -11 9 -25 9 -14 0 -25 -4 -25 -9z"/>
<path d="M3527 133 c-4 -3 -7 -21 -7 -40 0 -30 3 -33 28 -32 23 2 24 2 5 6
-26 5 -31 23 -8 23 21 0 19 18 -2 23 -13 3 -12 5 5 6 13 0 20 6 17 11 -7 11
-28 13 -38 3z"/>
<path d="M3587 133 c-11 -10 -8 -73 3 -73 6 0 10 8 10 18 1 16 1 16 14 0 18
-24 21 -23 20 10 -1 44 -25 67 -47 45z m33 -23 c0 -5 -4 -10 -10 -10 -5 0 -10
5 -10 10 0 6 5 10 10 10 6 0 10 -4 10 -10z"/>
<path d="M3650 129 c0 -5 4 -9 9 -9 6 0 12 -15 14 -32 l4 -33 1 33 c1 17 7 32
12 32 6 0 10 4 10 9 0 5 -11 9 -25 9 -14 0 -25 -4 -25 -9z"/>
<path d="M3855 106 c-9 -21 -13 -41 -9 -45 4 -3 9 0 11 7 5 14 33 16 33 2 0
-5 4 -10 9 -10 11 0 -6 58 -20 74 -5 6 -15 -7 -24 -28z"/>
<path d="M3969 113 c-11 -28 -11 -28 -20 -5 -13 34 -29 26 -28 -15 1 -33 2
-35 8 -13 l7 25 8 -22 c9 -27 23 -30 29 -5 4 16 5 16 6 0 2 -33 21 -18 21 16
0 45 -17 55 -31 19z"/>
<path d="M1140 104 c-14 -37 -13 -49 5 -34 12 10 18 10 30 0 18 -15 19 -3 5
34 -5 14 -14 26 -20 26 -6 0 -15 -12 -20 -26z m25 -4 c3 -5 1 -10 -4 -10 -6 0
-11 5 -11 10 0 6 2 10 4 10 3 0 8 -4 11 -10z"/>
<path d="M1298 103 c-2 -22 -8 -27 -23 -25 -16 3 -17 1 -8 -8 19 -20 43 -4 43
30 0 38 -8 39 -12 3z"/>
<path d="M1532 98 c2 -28 7 -33 28 -33 22 0 25 5 27 35 1 33 1 33 -5 6 -10
-41 -32 -46 -32 -7 0 17 -5 31 -11 31 -6 0 -9 -14 -7 -32z"/>
<path d="M2019 98 c7 -35 37 -50 52 -26 12 18 11 58 -1 58 -5 0 -10 -14 -10
-31 0 -38 -24 -35 -28 4 -2 15 -7 27 -11 27 -5 0 -5 -15 -2 -32z"/>
<path d="M2092 98 c2 -27 8 -33 28 -35 14 -1 18 0 8 3 -12 4 -18 15 -18 35 0
16 -5 29 -11 29 -6 0 -9 -14 -7 -32z"/>
<path d="M2291 93 c1 -21 3 -30 6 -20 2 9 13 17 23 17 10 0 21 -8 23 -17 3
-10 5 0 5 22 0 22 -2 34 -5 28 -2 -7 -14 -13 -24 -13 -11 0 -17 5 -14 10 3 6
1 10 -4 10 -6 0 -10 -17 -10 -37z"/>
<path d="M2530 95 c0 -19 5 -35 10 -35 6 0 10 9 10 21 0 21 0 21 20 -2 14 -18
20 -20 21 -9 1 8 3 25 4 38 1 12 -2 22 -6 22 -5 0 -9 -10 -10 -22 l0 -23 -11
23 c-17 34 -38 28 -38 -13z"/>
<path d="M2620 104 c-14 -37 -13 -49 5 -34 12 10 18 10 30 0 18 -15 19 -3 5
34 -5 14 -14 26 -20 26 -6 0 -15 -12 -20 -26z m30 -4 c0 -5 -4 -10 -10 -10 -5
0 -10 5 -10 10 0 6 5 10 10 10 6 0 10 -4 10 -10z"/>
<path d="M2692 95 c0 -22 2 -32 5 -22 2 9 13 17 23 17 10 0 21 -8 23 -17 3
-10 5 -1 6 20 0 20 -4 37 -10 37 -5 0 -7 -4 -4 -10 3 -5 -3 -10 -14 -10 -10 0
-22 6 -24 13 -3 6 -5 -6 -5 -28z"/>
<path d="M2792 98 c2 -27 8 -33 28 -35 14 -1 18 0 8 3 -12 4 -18 15 -18 35 0
16 -5 29 -11 29 -6 0 -9 -14 -7 -32z"/>
<path d="M2850 101 c0 -17 5 -33 10 -36 6 -4 10 8 10 29 0 20 -4 36 -10 36 -5
0 -10 -13 -10 -29z"/>
<path d="M3152 98 c2 -28 7 -33 28 -33 22 0 25 5 27 35 1 33 1 33 -5 6 -10
-41 -32 -46 -32 -7 0 17 -5 31 -11 31 -6 0 -9 -14 -7 -32z"/>
<path d="M3230 95 c0 -19 5 -35 10 -35 6 0 10 5 10 12 0 9 3 9 12 0 24 -24 27
-11 5 23 -28 44 -37 44 -37 0z"/>
<path d="M3260 119 c0 -5 5 -7 10 -4 6 3 10 8 10 11 0 2 -4 4 -10 4 -5 0 -10
-5 -10 -11z"/>
<path d="M3421 93 c1 -33 2 -35 8 -13 l7 25 8 -22 c8 -26 26 -31 26 -8 0 8 -4
15 -9 15 -5 0 -11 9 -14 20 -9 34 -27 22 -26 -17z"/>
<path d="M3475 120 c-8 -12 5 -60 16 -60 5 0 9 16 9 35 0 33 -12 46 -25 25z"/>
<path d="M3720 104 c-14 -37 -13 -49 5 -34 12 10 18 10 30 0 18 -15 19 -3 5
34 -5 14 -14 26 -20 26 -6 0 -15 -12 -20 -26z m30 -4 c0 -5 -4 -10 -10 -10 -5
0 -10 5 -10 10 0 6 5 10 10 10 6 0 10 -4 10 -10z"/>
<path d="M3810 100 c0 -24 -3 -28 -17 -23 -14 5 -16 3 -6 -7 19 -20 43 -4 43
30 0 16 -4 30 -10 30 -5 0 -10 -13 -10 -30z"/>
<path d="M3023 62 c1 -14 5 -18 11 -12 7 7 6 14 -1 21 -9 9 -12 7 -10 -9z"/>
</g>
</svg>
