<?xml version="1.0" encoding="UTF-8"?>
<svg version="1.1" xmlns="http://www.w3.org/2000/svg" width="390" height="207">
<path d="M0 0 C5.14865833 5.19099999 8.52054596 10.3225164 11.328125 17.04296875 C11.70157043 17.90407761 12.07501587 18.76518646 12.45977783 19.65238953 C13.65697967 22.42796557 14.83049361 25.21265238 16 28 C16.39179443 28.92476135 16.78358887 29.84952271 17.18725586 30.80230713 C20.07747664 37.62423908 22.91842514 44.46606171 25.75 51.3125 C27.49898242 55.53167233 29.24950371 59.75020558 31 63.96875 C31.42746521 64.99978348 31.85493042 66.03081696 32.29534912 67.09309387 C34.90184217 73.37455437 37.53148488 79.64557802 40.1875 85.90625 C40.49850647 86.64078903 40.80951294 87.37532806 41.12994385 88.13212585 C42.85323604 92.20245962 42.85323604 92.20245962 44.58728027 96.26821899 C45.3491859 98.04796939 46.10448678 99.83054306 46.859375 101.61328125 C47.27670898 102.59079346 47.69404297 103.56830566 48.12402344 104.57543945 C49 107 49 107 49 110 C18.73606427 110.59928586 18.73606427 110.59928586 7.80859375 101.09375 C-0.59734426 92.28904833 -4.76385333 80.53206926 -9.22265625 69.40234375 C-9.69062119 68.2468251 -10.15858612 67.09130646 -10.64073181 65.90077209 C-12.11926888 62.24819253 -13.59133055 58.59305255 -15.0625 54.9375 C-16.53813407 51.27874931 -18.01522533 47.62060245 -19.49497986 43.96351624 C-20.41030659 41.70059801 -21.32320244 39.43669435 -22.23316956 37.1716156 C-24.98305224 30.36373798 -27.90506084 23.65814834 -31 17 C-33.98722916 27.17776957 -36.96924558 37.3570505 -39.94467068 47.53827763 C-41.32653431 52.26609666 -42.71016822 56.9933823 -44.09790039 61.71948242 C-45.43779865 66.28292186 -46.77297783 70.84771792 -48.1049366 75.41348076 C-48.61318214 77.15262119 -49.12310806 78.89127147 -49.63476372 80.6294117 C-50.35271895 83.06944295 -51.06460624 85.51116997 -51.77514648 87.95336914 C-51.98661819 88.66691055 -52.1980899 89.38045197 -52.41596985 90.11561584 C-53.65933958 94.41758645 -54.5662022 98.55283515 -55 103 C-53.33657163 104.66342837 -51.2174291 104.36048097 -48.9375 104.5625 C-47.55884766 104.68818359 -47.55884766 104.68818359 -46.15234375 104.81640625 C-45.44207031 104.87699219 -44.73179688 104.93757813 -44 105 C-44 106.65 -44 108.3 -44 110 C-56.54 110 -69.08 110 -82 110 C-82.33 108.68 -82.66 107.36 -83 106 C-81.04372175 104.04372175 -77.37347081 104.63568047 -74.6875 104.5 C-70.68972369 104.2945957 -66.87764021 104.05525645 -63 103 C-62.83890747 102.3915625 -62.67781494 101.783125 -62.51184082 101.15625 C-60.44682302 93.4632544 -58.18609492 85.83429778 -55.88539124 78.20947266 C-55.20247047 75.94604417 -54.52137203 73.68207392 -53.84069824 71.41796875 C-52.15109688 65.79920567 -50.45847079 60.18135479 -48.76593018 54.56347656 C-47.33054667 49.79872597 -45.89634117 45.03362375 -44.46363831 40.26806641 C-43.79848056 38.05726951 -43.13164388 35.84698389 -42.46472168 33.63671875 C-41.29729195 29.76143894 -40.14430603 25.88217585 -39 22 C-38.52324829 20.38544922 -38.52324829 20.38544922 -38.03686523 18.73828125 C-37.76108643 17.77277344 -37.48530762 16.80726562 -37.20117188 15.8125 C-36.96587769 14.99394531 -36.7305835 14.17539063 -36.48815918 13.33203125 C-35.68653563 9.50251978 -35.41854907 6.94485776 -37.5 3.5625 C-40.25396633 0.73968451 -43.17863036 -1.49143901 -46.390625 -3.765625 C-46.92171875 -4.17296875 -47.4528125 -4.5803125 -48 -5 C-48 -5.33 -48 -5.66 -48 -6 C-33.22020908 -8.10676844 -12.15269261 -10.14971316 0 0 Z " fill="#FFFFFF" transform="translate(98,55)"/>
<path d="M0 0 C11.15334133 -0.09297745 22.30658935 -0.16390534 33.46024036 -0.20724869 C38.64021885 -0.22805897 43.81993075 -0.25625603 48.99975586 -0.30175781 C54.00536887 -0.34545044 59.01072663 -0.36918635 64.01651573 -0.37950897 C65.91935935 -0.3868585 67.82219014 -0.40120973 69.72492409 -0.42292023 C82.60942094 -0.56399081 93.79314683 -0.19301879 104.27734375 8.2890625 C109.34000049 13.3172794 111.77175097 18.63332676 112.25 25.6875 C112.09092178 33.4823329 109.41474124 39.46401635 104.1171875 45.13671875 C100.44721713 48.36656352 96.30322092 50.71418446 92 53 C93.11375 53.391875 94.2275 53.78375 95.375 54.1875 C107.24942981 58.65886611 115.15256975 63.45317572 121 75 C123.36475629 82.33499256 122.43471453 89.68519906 119.31640625 96.6171875 C113.86900153 106.47747498 105.0492364 111.92164462 94.55517578 115.35871887 C90.20778118 116.44979923 85.95456511 116.36833417 81.49609375 116.29296875 C80.05025658 116.28660149 80.05025658 116.28660149 78.57521057 116.28010559 C75.52900985 116.26345681 72.48349712 116.22583111 69.4375 116.1875 C67.35873359 116.1724353 65.27995669 116.15875004 63.20117188 116.14648438 C58.13385384 116.11359864 53.06704313 116.06191324 48 116 C47.67 114.68 47.34 113.36 47 112 C47.96679688 111.91363281 48.93359375 111.82726562 49.9296875 111.73828125 C59.86947599 110.6655714 68.84395359 109.36125886 75.5 101.125 C79.8344557 94.56209533 80.88928468 87.72214293 80 80 C78.11256828 71.88517381 74.47225558 64.41421164 67.203125 59.87890625 C61.48516617 57.23498281 55.59803524 56.87336813 49.39453125 56.97265625 C48.16412109 56.98490234 46.93371094 56.99714844 45.66601562 57.00976562 C43.08523249 57.04508298 40.50449845 57.08417958 37.92382812 57.12695312 C36.08401367 57.14338867 36.08401367 57.14338867 34.20703125 57.16015625 C33.0878833 57.17699463 31.96873535 57.19383301 30.81567383 57.21118164 C28 57 28 57 25 55 C25.33 54.01 25.66 53.02 26 52 C26.88671387 51.99589111 27.77342773 51.99178223 28.68701172 51.98754883 C32.0238899 51.9603401 35.35900337 51.91102179 38.6953125 51.84741211 C40.13042125 51.82442594 41.56569405 51.80988253 43.00097656 51.80444336 C51.7898855 51.76460521 59.63214574 51.42002018 67 46 C72.51946309 40.34206077 74.97301219 34.49293522 75.3125 26.5625 C75.10786149 19.0420346 72.39624609 13.27632951 67 8 C59.89531113 3.4341926 53.61726295 3.39879265 45.3125 3.390625 C44.01425293 3.37408875 42.71600586 3.35755249 41.37841797 3.34051514 C37.95244407 3.29709492 34.52672496 3.27689964 31.1005249 3.26177979 C27.59420868 3.24211629 24.088164 3.20015727 20.58203125 3.16015625 C13.72145717 3.0851297 6.86089362 3.03467226 0 3 C0 2.01 0 1.02 0 0 Z " fill="#FFFFFF" transform="translate(168,49)"/>
<path d="M0 0 C1.54204102 0.04060547 1.54204102 0.04060547 3.11523438 0.08203125 C11.42714539 0.41174237 18.13930119 1.64115155 24.5 7.4375 C25.20511719 8.06011719 25.91023438 8.68273438 26.63671875 9.32421875 C31.55568917 14.80838506 34.66065713 21.20367649 37.38671875 27.98828125 C37.8691655 29.16210861 37.8691655 29.16210861 38.36135864 30.35964966 C39.41412611 32.92463743 40.45694716 35.49354843 41.5 38.0625 C42.6189856 40.79494721 43.74061074 43.52630201 44.86228943 46.25764465 C45.64207583 48.15702714 46.42100457 50.05676194 47.19911194 51.95683289 C51.61205575 62.7265017 56.1183508 73.45679059 60.625 84.1875 C63.08201923 90.03819364 65.53726959 95.88957514 67.9776001 101.74725342 C68.7188552 103.52536611 69.46343589 105.30209163 70.20849609 107.07861328 C70.57668457 107.97177246 70.94487305 108.86493164 71.32421875 109.78515625 C71.62158936 110.50195557 71.91895996 111.21875488 72.2253418 111.95727539 C72.8125 113.75 72.8125 113.75 72.8125 116.75 C69.66674793 116.80896868 66.5211414 116.84391603 63.375 116.875 C62.49650391 116.89175781 61.61800781 116.90851563 60.71289062 116.92578125 C48.99488149 117.01226102 39.64054839 114.3035516 30.75 106.4375 C27.52415583 102.92947882 25.27811903 99.22011073 23.1875 94.96875 C22.847827 94.28274216 22.50815399 93.59673431 22.15818787 92.88993835 C17.20826782 82.67709487 13.09856201 72.08967006 8.875 61.5625 C5.53952171 53.28401491 2.18729579 45.01253525 -1.1875 36.75 C-1.58994934 35.75965759 -1.99239868 34.76931519 -2.40704346 33.7489624 C-3.57255545 30.89364433 -4.75438215 28.04565038 -5.94140625 25.19921875 C-6.28155258 24.36034622 -6.62169891 23.52147369 -6.97215271 22.65718079 C-10.68945675 13.84599432 -15.32062075 8.09947789 -23.1875 2.75 C-23.1875 2.09 -23.1875 1.43 -23.1875 0.75 C-15.40025007 -0.14590383 -7.82761784 -0.32759846 0 0 Z " fill="#FFFFFF" transform="translate(289.1875,48.25)"/>
<path d="M0 0 C4.81968303 -0.0996515 9.63875277 -0.17183311 14.45922852 -0.21972656 C16.09540264 -0.23971332 17.73150651 -0.26691243 19.36743164 -0.30175781 C36.88565932 -0.66527306 36.88565932 -0.66527306 44 4 C44.66386719 4.41056641 45.32773438 4.82113281 46.01171875 5.24414062 C50.72576113 8.7055946 53.22946231 12.90609061 55.7421875 18.09375 C56.25772438 19.14287567 56.25772438 19.14287567 56.78367615 20.2131958 C60.8492305 28.59279006 64.46125022 37.1635244 68.0625 45.75 C68.79610708 47.48859639 69.53008201 49.2270376 70.2644043 50.96533203 C72.51815341 56.30664665 74.76036065 61.65275651 77 67 C77.3616626 67.86290649 77.7233252 68.72581299 78.09594727 69.61486816 C86.67993799 90.09846688 86.67993799 90.09846688 90.53369141 99.45605469 C91.45436875 101.68125488 92.38715481 103.90152369 93.33740234 106.11425781 C93.71461426 107.00725586 94.09182617 107.90025391 94.48046875 108.8203125 C94.96422974 109.94203857 94.96422974 109.94203857 95.45776367 111.08642578 C96 113 96 113 95 116 C65.75936549 116.61703566 65.75936549 116.61703566 53.8125 105.375 C46.86084757 98.61426532 43.56227102 89.27105132 39.99609375 80.41796875 C39.63590652 79.53319855 39.2757193 78.64842834 38.90461731 77.73684692 C38.13959943 75.85655088 37.37630111 73.97555441 36.61462402 72.09390259 C35.42238768 69.15018661 34.2242418 66.20893983 33.02441406 63.26831055 C29.73703053 55.20832174 26.45777912 47.14516961 23.20741272 39.07017517 C22.39041364 37.04385619 21.56928752 35.01927001 20.74633789 32.99536133 C19.78269483 30.62359504 18.82682775 28.24864692 17.88061523 25.86987305 C14.63737185 17.91647976 11.10409605 9.39095856 3.625 4.5625 C1.5390625 3.19140625 1.5390625 3.19140625 0 2 C0 1.34 0 0.68 0 0 Z " fill="#FFFFFF" transform="translate(117,49)"/>
<path d="M0 0 C4.9262953 4.56369996 7.06132562 9.184864 7.375 15.8125 C7.23211708 22.20412914 5.17957516 26.69587769 0.8125 31.3125 C-4.78978258 34.67386955 -9.60584338 36.55757108 -16.1875 35.4375 C-22.11473061 33.90522831 -26.19775096 31.43714216 -29.875 26.5 C-32.92732637 21.24212168 -32.73428818 15.89933797 -32 10 C-30.25646481 4.22453968 -25.8653801 0.38989055 -21 -3 C-13.61586251 -5.52424346 -6.32489774 -4.48819163 0 0 Z " fill="#EC3439" transform="translate(290,8)"/>
<path d="M0 0 C0 5.61 0 11.22 0 17 C0.66 17 1.32 17 2 17 C1.773125 16.071875 1.54625 15.14375 1.3125 14.1875 C1 11 1 11 2.0625 9.125 C4.75900247 7.55928889 6.94130459 7.79608697 10 8 C11.4783226 10.95664519 11.06032783 13.74229737 11 17 C11.66 17 12.32 17 13 17 C12.505 9.575 12.505 9.575 12 2 C13.65 1.34 15.3 0.68 17 0 C17 2.64 17 5.28 17 8 C17.969375 7.979375 18.93875 7.95875 19.9375 7.9375 C23 8 23 8 24 9 C24.07179964 10.51928038 24.08392007 12.04167482 24.0625 13.5625 C24.05347656 14.38878906 24.04445313 15.21507812 24.03515625 16.06640625 C24.02355469 16.70449219 24.01195312 17.34257812 24 18 C24.66 18 25.32 18 26 18 C26 18.99 26 19.98 26 21 C21.07040878 21.04942899 16.14096175 21.08573318 11.21118164 21.10986328 C9.53407275 21.11992237 7.85698139 21.13357122 6.17993164 21.15087891 C3.76964998 21.17513152 1.35960014 21.1864839 -1.05078125 21.1953125 C-2.17592888 21.21079636 -2.17592888 21.21079636 -3.32380676 21.22659302 C-7.10300779 21.227408 -8.77414399 21.15057067 -12 19 C-12.66 19.66 -13.32 20.32 -14 21 C-17 21.125 -17 21.125 -20 21 C-20.66 21 -21.32 21 -22 21 C-24.66666667 21 -27.33333333 21 -30 21 C-30.433125 19.824375 -30.433125 19.824375 -30.875 18.625 C-31.84912254 15.90328368 -31.84912254 15.90328368 -34 14 C-34.33 15.32 -34.66 16.64 -35 18 C-34.34 18 -33.68 18 -33 18 C-33 18.99 -33 19.98 -33 21 C-35.31 21 -37.62 21 -40 21 C-40.33 20.01 -40.66 19.02 -41 18 C-40.34 18 -39.68 18 -39 18 C-39.14100857 15.72886197 -39.28796755 13.45809275 -39.4375 11.1875 C-39.51871094 9.92292969 -39.59992188 8.65835938 -39.68359375 7.35546875 C-39.87184547 4.00818107 -39.87184547 4.00818107 -41 1 C-38.36 1 -35.72 1 -33 1 C-33 1.99 -33 2.98 -33 4 C-33.66 4 -34.32 4 -35 4 C-35 5.32 -35 6.64 -35 8 C-34.34 8 -33.68 8 -33 8 C-31.79371992 5.66785852 -30.8345262 3.50357861 -30 1 C-28.02 1 -26.04 1 -24 1 C-24 4 -24 4 -25.3125 5.38671875 C-26.875 6.59114583 -28.4375 7.79557292 -30 9 C-28.03681826 12.53372712 -25.95929119 15.24479785 -23 18 C-23.061875 16.906875 -23.12375 15.81375 -23.1875 14.6875 C-23 11 -23 11 -21.875 9.0625 C-19.12198451 7.50245789 -17.0996593 7.60429881 -14 8 C-13.01 9.485 -13.01 9.485 -12 11 C-11.608125 10.505 -11.21625 10.01 -10.8125 9.5 C-8.44908285 7.54406857 -6.98564997 7.75792027 -4 8 C-4.66 5.69 -5.32 3.38 -6 1 C-3 0 -3 0 0 0 Z M-7 11 C-7.33 12.65 -7.66 14.3 -8 16 C-6.515 16.99 -6.515 16.99 -5 18 C-3.64381501 16.87465895 -3.64381501 16.87465895 -3.9375 13.9375 C-3.958125 12.968125 -3.97875 11.99875 -4 11 C-4.99 11 -5.98 11 -7 11 Z M5 11 C5 11.66 5 12.32 5 13 C5.66 13 6.32 13 7 13 C7 12.34 7 11.68 7 11 C6.34 11 5.68 11 5 11 Z M18 11 C16.64381501 12.12534105 16.64381501 12.12534105 16.9375 15.0625 C16.958125 16.031875 16.97875 17.00125 17 18 C18.32 18 19.64 18 21 18 C21 16.02 21 14.04 21 12 C20.01 11.67 19.02 11.34 18 11 Z M-19 14 C-18.67 14.99 -18.34 15.98 -18 17 C-16.02 16.67 -14.04 16.34 -12 16 C-12 15.34 -12 14.68 -12 14 C-14.31 14 -16.62 14 -19 14 Z " fill="#FFFFFF" transform="translate(211,172)"/>
<path d="M0 0 C3.00216131 1.50108065 3.8986104 2.74089325 5.125 5.875 C6 9 6 9 6 13 C6.66 13.33 7.32 13.66 8 14 C7.34 14.66 6.68 15.32 6 16 C4.35 12.37 2.7 8.74 1 5 C-1.98722916 15.17776957 -4.96924558 25.3570505 -7.94467068 35.53827763 C-9.32653431 40.26609666 -10.71016822 44.9933823 -12.09790039 49.71948242 C-13.43779865 54.28292186 -14.77297783 58.84771792 -16.1049366 63.41348076 C-16.61318214 65.15262119 -17.12310806 66.89127147 -17.63476372 68.6294117 C-18.35271895 71.06944295 -19.06460624 73.51116997 -19.77514648 75.95336914 C-19.98661819 76.66691055 -20.1980899 77.38045197 -20.41596985 78.11561584 C-21.65933958 82.41758645 -22.5662022 86.55283515 -23 91 C-21.33657163 92.66342837 -19.2174291 92.36048097 -16.9375 92.5625 C-15.55884766 92.68818359 -15.55884766 92.68818359 -14.15234375 92.81640625 C-13.44207031 92.87699219 -12.73179688 92.93757813 -12 93 C-12 94.65 -12 96.3 -12 98 C-24.54 98 -37.08 98 -50 98 C-50.33 96.68 -50.66 95.36 -51 94 C-49.04372175 92.04372175 -45.37347081 92.63568047 -42.6875 92.5 C-38.68972369 92.2945957 -34.87764021 92.05525645 -31 91 C-30.83759323 90.38843552 -30.67518646 89.77687103 -30.50785828 89.14677429 C-28.26631442 80.80920168 -25.80936853 72.53923621 -23.33203125 64.26953125 C-22.88779936 62.78313058 -22.44368419 61.29669502 -21.99967957 59.81022644 C-20.84186736 55.93514874 -19.68249096 52.06054081 -18.52276611 48.18603516 C-17.33517891 44.21740997 -16.14910209 40.24833344 -14.96289062 36.27929688 C-12.64338865 28.51909367 -10.32223072 20.75938707 -8 13 C-7.34 13.33 -6.68 13.66 -6 14 C-6 15.65 -6 17.3 -6 19 C-3.53062327 12.7677635 -1.6813917 6.48707154 0 0 Z " fill="#FFFFFF" transform="translate(66,67)"/>
<path d="M0 0 C0.88494141 -0.020625 1.76988281 -0.04125 2.68164062 -0.0625 C3.95104492 -0.07023438 3.95104492 -0.07023438 5.24609375 -0.078125 C6.02525146 -0.0874707 6.80440918 -0.09681641 7.60717773 -0.10644531 C8.25243408 0.01118164 8.89769043 0.12880859 9.5625 0.25 C10.2225 1.24 10.8825 2.23 11.5625 3.25 C12.0884375 2.5075 12.0884375 2.5075 12.625 1.75 C15.55685344 -0.51982201 17.97145535 -0.0764586 21.5625 0.25 C23.5625 2.25 23.5625 2.25 23.875 6.1875 C23.79265998 8.70344502 23.66341012 10.05411565 22.5 12.3125 C19.35763385 13.83299975 16.86557292 13.03072633 13.5625 12.25 C12.9025 11.59 12.2425 10.93 11.5625 10.25 C10.985 10.745 10.4075 11.24 9.8125 11.75 C7.5625 13.25 7.5625 13.25 3.5625 13.25 C3.5625 14.57 3.5625 15.89 3.5625 17.25 C4.2225 17.25 4.8825 17.25 5.5625 17.25 C5.5625 18.24 5.5625 19.23 5.5625 20.25 C2.9225 20.25 0.2825 20.25 -2.4375 20.25 C-2.4375 19.26 -2.4375 18.27 -2.4375 17.25 C-1.7775 17.25 -1.1175 17.25 -0.4375 17.25 C-0.4375 12.96 -0.4375 8.67 -0.4375 4.25 C-2.0875 4.25 -3.7375 4.25 -5.4375 4.25 C-5.4375 6.23 -5.4375 8.21 -5.4375 10.25 C-4.7775 10.25 -4.1175 10.25 -3.4375 10.25 C-3.4375 11.24 -3.4375 12.23 -3.4375 13.25 C-5.7475 13.25 -8.0575 13.25 -10.4375 13.25 C-10.7675 12.26 -11.0975 11.27 -11.4375 10.25 C-10.7775 10.25 -10.1175 10.25 -9.4375 10.25 C-9.52128906 9.61191406 -9.60507812 8.97382813 -9.69140625 8.31640625 C-9.79324219 7.49011719 -9.89507812 6.66382813 -10 5.8125 C-10.10441406 4.98878906 -10.20882813 4.16507813 -10.31640625 3.31640625 C-10.35636719 2.63449219 -10.39632813 1.95257813 -10.4375 1.25 C-8.18895286 -0.99854714 -3.01949156 0.01751699 0 0 Z M3.5625 3.25 C3.5625 5.56 3.5625 7.87 3.5625 10.25 C4.5525 10.25 5.5425 10.25 6.5625 10.25 C7.56467064 6.66672247 7.56467064 6.66672247 6.5625 3.25 C5.5725 3.25 4.5825 3.25 3.5625 3.25 Z M16.5625 3.25 C15.26616379 4.31645115 15.26616379 4.31645115 15.5 6.8125 C15.520625 7.616875 15.54125 8.42125 15.5625 9.25 C16.8825 9.25 18.2025 9.25 19.5625 9.25 C19.5625 7.27 19.5625 5.29 19.5625 3.25 C18.5725 3.25 17.5825 3.25 16.5625 3.25 Z " fill="#383A6C" transform="translate(300.4375,179.75)"/>
<path d="M0 0 C0 5.61 0 11.22 0 17 C0.66 17 1.32 17 2 17 C2 17.99 2 18.98 2 20 C-1.12706959 21.5635348 -4.57982443 21.39958487 -8 21 C-8.99 20.34 -9.98 19.68 -11 19 C-11.99 19.66 -12.98 20.32 -14 21 C-16.5625 21.25 -16.5625 21.25 -19 21 C-19.66 20.34 -20.32 19.68 -21 19 C-21.66 19.66 -22.32 20.32 -23 21 C-26.125 20.625 -26.125 20.625 -29 20 C-29 17.03 -29 14.06 -29 11 C-29.66 11 -30.32 11 -31 11 C-30 9 -29 7 -28 5 C-27.01 5 -26.02 5 -25 5 C-25 5.99 -25 6.98 -25 8 C-23.05396726 8.59070014 -23.05396726 8.59070014 -21 9 C-20.67 8.67 -20.34 8.34 -20 8 C-16.5625 7.8125 -16.5625 7.8125 -13 8 C-12.34 8.66 -11.68 9.32 -11 10 C-10.01 9.34 -9.02 8.68 -8 8 C-6.68 8 -5.36 8 -4 8 C-3.67 6.68 -3.34 5.36 -3 4 C-3.66 4 -4.32 4 -5 4 C-5 3.01 -5 2.02 -5 1 C-2 0 -2 0 0 0 Z M-25 11 C-25.67958603 13.39719432 -25.67958603 13.39719432 -26 16 C-25.34 16.66 -24.68 17.32 -24 18 C-23.34 17.34 -22.68 16.68 -22 16 C-22 15.01 -22 14.02 -22 13 C-22 12.34 -22 11.68 -22 11 C-22.99 11 -23.98 11 -25 11 Z M-7 11 C-7.33 12.65 -7.66 14.3 -8 16 C-6.02 16.99 -6.02 16.99 -4 18 C-3.67 16.02 -3.34 14.04 -3 12 C-4.32 11.67 -5.64 11.34 -7 11 Z M-19 14 C-18.67 14.99 -18.34 15.98 -18 17 C-16.02 16.67 -14.04 16.34 -12 16 C-12 15.34 -12 14.68 -12 14 C-14.31 14 -16.62 14 -19 14 Z " fill="#303364" transform="translate(375,172)"/>
<path d="M0 0 C0.99 0 1.98 0 3 0 C3 0.99 3 1.98 3 3 C4.94603274 3.59070014 4.94603274 3.59070014 7 4 C7.33 3.67 7.66 3.34 8 3 C11.5 2.875 11.5 2.875 15 3 C16 4 16 4 16.0625 6.5625 C16.041875 7.366875 16.02125 8.17125 16 9 C14.02 9.33 12.04 9.66 10 10 C10 10.66 10 11.32 10 12 C13.465 11.505 13.465 11.505 17 11 C16.9690625 9.2984375 16.9690625 9.2984375 16.9375 7.5625 C17 4 17 4 18 3 C20.18639453 2.92741054 22.37500389 2.91626217 24.5625 2.9375 C26.35880859 2.95103516 26.35880859 2.95103516 28.19140625 2.96484375 C29.11824219 2.97644531 30.04507813 2.98804688 31 3 C31 6.3 31 9.6 31 13 C31.66 13 32.32 13 33 13 C33 13.99 33 14.98 33 16 C30.69 16 28.38 16 26 16 C25.67 15.01 25.34 14.02 25 13 C25.66 13 26.32 13 27 13 C27 11.02 27 9.04 27 7 C25.35 7 23.7 7 22 7 C22 8.98 22 10.96 22 13 C22.66 13 23.32 13 24 13 C24 13.99 24 14.98 24 16 C21.54137599 16.05383848 19.0839245 16.09359038 16.625 16.125 C15.57699219 16.15013672 15.57699219 16.15013672 14.5078125 16.17578125 C12.67102514 16.19344267 10.83398037 16.10303261 9 16 C8.34 15.34 7.68 14.68 7 14 C6.34 14.66 5.68 15.32 5 16 C0.44444444 15.44444444 0.44444444 15.44444444 -1 14 C-2.49006623 3.73509934 -2.49006623 3.73509934 0 0 Z M3 6 C3 8.31 3 10.62 3 13 C3.99 12.34 4.98 11.68 6 11 C6.25030977 8.41619823 6.25030977 8.41619823 6 6 C5.01 6 4.02 6 3 6 Z " fill="#393C6E" transform="translate(68,177)"/>
<path d="M0 0 C3.00216131 1.50108065 3.8986104 2.74089325 5.125 5.875 C6 9 6 9 6 13 C6.66 13.33 7.32 13.66 8 14 C7.34 14.66 6.68 15.32 6 16 C4.35 12.37 2.7 8.74 1 5 C-5.27 26.45 -11.54 47.9 -18 70 C-18.33 70 -18.66 70 -19 70 C-19 67.03 -19 64.06 -19 61 C-18.34 61 -17.68 61 -17 61 C-16.505 58.03 -16.505 58.03 -16 55 C-16.66 55 -17.32 55 -18 55 C-18.99 57.97 -19.98 60.94 -21 64 C-22.01080075 59.95679701 -21.97367239 59.00182415 -20.82836914 55.23144531 C-20.54800308 54.29077209 -20.26763702 53.35009888 -19.97877502 52.38092041 C-19.66738083 51.37349792 -19.35598663 50.36607544 -19.03515625 49.328125 C-18.72299667 48.29057068 -18.4108371 47.25301636 -18.08921814 46.184021 C-17.08971834 42.86974971 -16.07630412 39.55992049 -15.0625 36.25 C-14.3825431 34.00418472 -13.70349529 31.75809399 -13.02539062 29.51171875 C-11.36079722 24.00457237 -9.6847591 18.50100856 -8 13 C-7.34 13.33 -6.68 13.66 -6 14 C-6 15.65 -6 17.3 -6 19 C-3.53062327 12.7677635 -1.6813917 6.48707154 0 0 Z " fill="#FFFFFF" transform="translate(66,67)"/>
<path d="M0 0 C2.97 0 5.94 0 9 0 C10.32 3.3 11.64 6.6 13 10 C14.65 6.7 16.3 3.4 18 0 C20.64 0 23.28 0 26 0 C26 0.99 26 1.98 26 3 C25.01 3 24.02 3 23 3 C23.11344376 5.1464753 23.24106345 7.29220592 23.375 9.4375 C23.44460937 10.63246094 23.51421875 11.82742187 23.5859375 13.05859375 C23.72257812 14.02925781 23.85921875 14.99992188 24 16 C24.66 16.33 25.32 16.66 26 17 C26 17.99 26 18.98 26 20 C23.03 20 20.06 20 17 20 C17 19.01 17 18.02 17 17 C17.66 17 18.32 17 19 17 C18.67 14.69 18.34 12.38 18 10 C16.68 12.97 15.36 15.94 14 19 C13.01 19 12.02 19 11 19 C11 18.34 11 17.68 11 17 C10.34 17 9.68 17 9 17 C9 17.99 9 18.98 9 20 C6.36 20 3.72 20 1 20 C0.67 19.01 0.34 18.02 0 17 C0.99 17 1.98 17 3 17 C3 12.38 3 7.76 3 3 C2.34 3 1.68 3 1 3 C0.67 2.01 0.34 1.02 0 0 Z M6 7 C6 10.3 6 13.6 6 17 C7.32 16.67 8.64 16.34 10 16 C9.01 13.03 8.02 10.06 7 7 C6.67 7 6.34 7 6 7 Z " fill="#373968" transform="translate(15,173)"/>
<path d="M0 0 C0 3 0 3 -0.625 5.0625 C-0.74875 5.701875 -0.8725 6.34125 -1 7 C-0.34 7.66 0.32 8.32 1 9 C1.13525391 10.87939453 1.13525391 10.87939453 0.9765625 13.1328125 C0.925 13.93847656 0.8734375 14.74414062 0.8203125 15.57421875 C0.75585938 16.41597656 0.69140625 17.25773437 0.625 18.125 C0.56828125 18.97449219 0.5115625 19.82398437 0.453125 20.69921875 C0.31149023 22.8001345 0.15695674 24.90017334 0 27 C1.32 27.66 2.64 28.32 4 29 C4 29.99 4 30.98 4 32 C9.33780875 33.77926958 14.7281679 33.83570475 19.875 31.4375 C23 30 23 30 26 31 C20.90781285 34.6701668 16.43518103 37.41204549 10 37 C2.65337813 35.57322846 -2.43084077 32.51118428 -6.875 26.4375 C-8.91139241 20.21518985 -8.95255801 13.75740477 -6.8125 7.5625 C-4.79348857 4.70803556 -2.57191694 2.36338313 0 0 Z " fill="#E63437" transform="translate(266,7)"/>
<path d="M0 0 C23.1 0 46.2 0 70 0 C69.34 1.32 68.68 2.64 68 4 C67.34 4 66.68 4 66 4 C66 4.66 66 5.32 66 6 C66.7425 6.12375 67.485 6.2475 68.25 6.375 C70.81075381 6.9569895 72.68814698 7.80421396 75 9 C75.66 9 76.32 9 77 9 C77.495 10.485 77.495 10.485 78 12 C77.34 12.66 76.68 13.32 76 14 C74.68 14 73.36 14 72 14 C70.80364947 12.5377938 69.61044262 11.07276682 68.44165039 9.58843994 C64.11173873 4.81765455 58.82717057 3.7538228 52.67578125 3.45410156 C50.22160524 3.4131121 47.7670171 3.39303899 45.3125 3.390625 C44.01425293 3.37408875 42.71600586 3.35755249 41.37841797 3.34051514 C37.95244407 3.29709492 34.52672496 3.27689964 31.1005249 3.26177979 C27.59420868 3.24211629 24.088164 3.20015727 20.58203125 3.16015625 C13.72145717 3.0851297 6.86089362 3.03467226 0 3 C0 2.01 0 1.02 0 0 Z " fill="#FFFFFF" transform="translate(168,49)"/>
<path d="M0 0 C2.97 0 5.94 0 9 0 C9 0.99 9 1.98 9 3 C8.34 3 7.68 3 7 3 C7 7.62 7 12.24 7 17 C8.32 17 9.64 17 11 17 C10.67 14.03 10.34 11.06 10 8 C12.3796612 6.8101694 13.91485735 6.86650034 16.5625 6.875 C17.77099609 6.87113281 17.77099609 6.87113281 19.00390625 6.8671875 C21 7 21 7 22 8 C22.07179964 9.51928038 22.08392007 11.04167482 22.0625 12.5625 C22.05347656 13.38878906 22.04445313 14.21507812 22.03515625 15.06640625 C22.02355469 15.70449219 22.01195312 16.34257812 22 17 C22.66 17 23.32 17 24 17 C24 17.99 24 18.98 24 20 C22.02 20 20.04 20 18 20 C16.768606 16.30581799 17.35567236 13.7943739 18 10 C17.01 10.495 17.01 10.495 16 11 C16 13.97 16 16.94 16 20 C10.72 20 5.44 20 0 20 C0 19.01 0 18.02 0 17 C0.99 17 1.98 17 3 17 C3 12.38 3 7.76 3 3 C2.01 2.67 1.02 2.34 0 2 C0 1.34 0 0.68 0 0 Z " fill="#FFFFFF" transform="translate(243,173)"/>
<path d="M0 0 C1.815142 0 3.63035807 -0.00906266 5.4453125 -0.03515625 C6.32960938 -0.04417969 7.21390625 -0.05320313 8.125 -0.0625 C9.01445313 -0.07410156 9.90390625 -0.08570313 10.8203125 -0.09765625 C13 0 13 0 14 1 C14.07179964 2.51928038 14.08392007 4.04167482 14.0625 5.5625 C14.05347656 6.38878906 14.04445313 7.21507812 14.03515625 8.06640625 C14.02355469 8.70449219 14.01195313 9.34257812 14 10 C14.66 10 15.32 10 16 10 C16 10.99 16 11.98 16 13 C-2 13 -2 13 -7 12 C-9.31282587 8.53076119 -9.42478586 7.07794425 -9 3 C-6.76231376 -0.72947706 -4.04424445 -0.25276528 0 0 Z M8 3 C6.64381501 4.12534105 6.64381501 4.12534105 6.9375 7.0625 C6.958125 8.031875 6.97875 9.00125 7 10 C7.99 10 8.98 10 10 10 C10 7.69 10 5.38 10 3 C9.34 3 8.68 3 8 3 Z M2 3 C2 3.99 2 4.98 2 6 C-0.31 6 -2.62 6 -5 6 C-4.67 6.99 -4.34 7.98 -4 9 C-2.02 8.67 -0.04 8.34 2 8 C2.33 8.66 2.66 9.32 3 10 C3 7.69 3 5.38 3 3 C2.67 3 2.34 3 2 3 Z " fill="#FFFFFF" transform="translate(50,180)"/>
<path d="M0 0 C2.29109597 -0.08075665 4.58299267 -0.13907731 6.875 -0.1875 C8.78925781 -0.23970703 8.78925781 -0.23970703 10.7421875 -0.29296875 C11.81726563 -0.19628906 12.89234375 -0.09960938 14 0 C16.43642676 3.65464013 16.07959834 5.70168967 16 10 C16.33 10.33 16.66 10.66 17 11 C16.75 14.4375 16.75 14.4375 16 18 C12.57905758 20.28062828 11.31812778 20.21925007 7.3125 20.125 C5.82169922 20.09792969 5.82169922 20.09792969 4.30078125 20.0703125 C3.54152344 20.04710937 2.78226562 20.02390625 2 20 C1.67 19.01 1.34 18.02 1 17 C1.66 17 2.32 17 3 17 C3 12.38 3 7.76 3 3 C2.34 3 1.68 3 1 3 C0.67 2.01 0.34 1.02 0 0 Z M8 2 C6.70366379 3.06645115 6.70366379 3.06645115 6.9375 5.5625 C6.958125 6.366875 6.97875 7.17125 7 8 C8.32 7.67 9.64 7.34 11 7 C11 5.68 11 4.36 11 3 C10.01 2.67 9.02 2.34 8 2 Z M7 11 C7.33 12.98 7.66 14.96 8 17 C9.32 16.67 10.64 16.34 12 16 C11.67 14.35 11.34 12.7 11 11 C9.68 11 8.36 11 7 11 Z " fill="#FFFFFF" transform="translate(106,173)"/>
<path d="M0 0 C0.66 0.66 1.32 1.32 2 2 C2.66 1.34 3.32 0.68 4 0 C7.4375 -0.4375 7.4375 -0.4375 11 0 C13.0625 2.0625 13.0625 2.0625 14 5 C13.1875 8.8125 13.1875 8.8125 12 12 C5.375 13.25 5.375 13.25 2 11 C1.34 11.66 0.68 12.32 0 13 C-5.16184971 13.54913295 -5.16184971 13.54913295 -7.8125 11.8125 C-9.33818682 9.48382011 -9.79677533 7.7774038 -10 5 C-8.09081408 -0.2869764 -5.30820959 -0.3317631 0 0 Z M-5 3 C-5.77242269 4.83700789 -5.77242269 4.83700789 -6 7 C-4.91666667 8.91666667 -4.91666667 8.91666667 -3 10 C-0.83700789 9.77242269 -0.83700789 9.77242269 1 9 C1 7.68 1 6.36 1 5 C-0.98 4.34 -2.96 3.68 -5 3 Z M6 3 C4.70366379 4.06645115 4.70366379 4.06645115 4.9375 6.5625 C4.958125 7.366875 4.97875 8.17125 5 9 C6.32 9 7.64 9 9 9 C10.33333333 6 10.33333333 6 9 3 C8.01 3 7.02 3 6 3 Z " fill="#FFFFFF" transform="translate(276,180)"/>
<path d="M0 0 C3.4375 0.1875 3.4375 0.1875 4.4375 1.1875 C4.47813832 2.85367115 4.480221 4.52138095 4.4375 6.1875 C2.4575 6.5175 0.4775 6.8475 -1.5625 7.1875 C-1.5625 7.8475 -1.5625 8.5075 -1.5625 9.1875 C0.7475 8.5275 3.0575 7.8675 5.4375 7.1875 C5.416875 6.218125 5.39625 5.24875 5.375 4.25 C5.4375 1.1875 5.4375 1.1875 6.4375 0.1875 C8.77047433 0.14657063 11.10455225 0.14508277 13.4375 0.1875 C13.46436553 2.16659398 13.48383375 4.14578971 13.5 6.125 C13.51160156 7.22714844 13.52320313 8.32929688 13.53515625 9.46484375 C13.4375 12.1875 13.4375 12.1875 12.4375 13.1875 C6.90808824 13.42279412 6.90808824 13.42279412 4.4375 12.1875 C3.303125 12.39375 2.16875 12.6 1 12.8125 C-2.5625 13.1875 -2.5625 13.1875 -4.5 12.25 C-6.25432699 8.84454172 -5.86421117 5.9890607 -5.5625 2.1875 C-3.5625 0.1875 -3.5625 0.1875 0 0 Z M8.4375 8.1875 C8.4375 8.8475 8.4375 9.5075 8.4375 10.1875 C9.0975 9.8575 9.7575 9.5275 10.4375 9.1875 C9.7775 8.8575 9.1175 8.5275 8.4375 8.1875 Z " fill="#FFFFFF" transform="translate(129.5625,179.8125)"/>
<path d="M0 0 C1.051875 0.01353516 1.051875 0.01353516 2.125 0.02734375 C3.053125 0.04474609 3.053125 0.04474609 4 0.0625 C5.6876286 0.0625 7.37522274 0.03443423 9.0625 0 C12 0.0625 12 0.0625 13 1.0625 C13.14115161 3.73308851 13.04247107 6.38682238 13 9.0625 C13.66 9.0625 14.32 9.0625 15 9.0625 C14.67 10.3825 14.34 11.7025 14 13.0625 C12.52093108 13.08939216 11.04172517 13.10884621 9.5625 13.125 C8.32693359 13.14240234 8.32693359 13.14240234 7.06640625 13.16015625 C5 13.0625 5 13.0625 4 12.0625 C3.95919217 10.06291636 3.95745644 8.06204746 4 6.0625 C2.68 5.4025 1.36 4.7425 0 4.0625 C0 6.0425 0 8.0225 0 10.0625 C0.66 10.0625 1.32 10.0625 2 10.0625 C2 11.0525 2 12.0425 2 13.0625 C-0.31 13.0625 -2.62 13.0625 -5 13.0625 C-5.33 12.0725 -5.66 11.0825 -6 10.0625 C-5.34 10.0625 -4.68 10.0625 -4 10.0625 C-4.66 7.0925 -5.32 4.1225 -6 1.0625 C-3.73845106 -0.06827447 -2.50117171 -0.04137968 0 0 Z M7 3.0625 C7 3.7225 7 4.3825 7 5.0625 C7.66 5.0625 8.32 5.0625 9 5.0625 C9 4.4025 9 3.7425 9 3.0625 C8.34 3.0625 7.68 3.0625 7 3.0625 Z M8 8.0625 C9 10.0625 9 10.0625 9 10.0625 Z " fill="#FFFFFF" transform="translate(330,179.9375)"/>
<path d="M0 0 C3 0.125 3 0.125 4 1.125 C4.14115161 3.79558851 4.04247107 6.44932238 4 9.125 C4.66 9.125 5.32 9.125 6 9.125 C5.979375 7.825625 5.95875 6.52625 5.9375 5.1875 C5.91600546 3.83334367 5.92851801 2.47743917 6 1.125 C7 0.125 7 0.125 8.84765625 0.02734375 C10.8984375 0.05989583 12.94921875 0.09244792 15 0.125 C15 1.445 15 2.765 15 4.125 C13.68 4.125 12.36 4.125 11 4.125 C11 6.105 11 8.085 11 10.125 C11.66 10.125 12.32 10.125 13 10.125 C13 11.115 13 12.105 13 13.125 C7.39 13.125 1.78 13.125 -4 13.125 C-4.97040245 8.27298774 -5.07998223 5.80492301 -4 1.125 C-3 0.125 -3 0.125 0 0 Z M-2 3.125 C-1.67 4.115 -1.34 5.105 -1 6.125 C-0.67 5.135 -0.34 4.145 0 3.125 C-0.66 3.125 -1.32 3.125 -2 3.125 Z " fill="#FFFFFF" transform="translate(149,179.875)"/>
<path d="M0 0 C0 0.99 0 1.98 0 3 C1.98 3.99 3.96 4.98 6 6 C4 7 4 7 0.2734375 6.0625 C-6.23659559 4.50864348 -12.7233961 4.86242805 -19.375 5 C-21.88264175 5.05091658 -24.3904828 5.09301758 -26.8984375 5.125 C-28.54851807 5.15980469 -28.54851807 5.15980469 -30.23193359 5.1953125 C-33 5 -33 5 -36 3 C-35.67 2.01 -35.34 1.02 -35 0 C-30.65860566 -0.16800236 -26.31701785 -0.32851981 -21.97509766 -0.48217773 C-20.49878539 -0.53547011 -19.02254481 -0.59078903 -17.54638672 -0.64819336 C-15.42170666 -0.73046212 -13.29687349 -0.80538335 -11.171875 -0.87890625 C-9.2552002 -0.94960327 -9.2552002 -0.94960327 -7.29980469 -1.02172852 C-4.59337842 -1.00390727 -2.54687307 -0.83306311 0 0 Z " fill="#FFFFFF" transform="translate(229,101)"/>
<path d="M0 0 C0.66 0 1.32 0 2 0 C2.33 2.97 2.66 5.94 3 9 C5.64 9 8.28 9 11 9 C10.01 10.485 10.01 10.485 9 12 C6.01904297 12.34057617 6.01904297 12.34057617 2.2421875 12.29296875 C1.57913605 12.28872391 0.91608459 12.28447906 0.23294067 12.28010559 C-1.88678441 12.26329971 -4.00556188 12.22564701 -6.125 12.1875 C-7.56118419 12.17245549 -8.99738328 12.15876668 -10.43359375 12.14648438 C-13.95603764 12.1133909 -17.47792636 12.0615968 -21 12 C-21 11.67 -21 11.34 -21 11 C-19.02 10.67 -17.04 10.34 -15 10 C-15 9.67 -15 9.34 -15 9 C-13.96939453 9.08701172 -13.96939453 9.08701172 -12.91796875 9.17578125 C-10.20768534 9.31148929 -7.692422 9.35232017 -5 9 C-2.84745634 6.85701707 -2.84745634 6.85701707 -2 4 C-1.608125 3.236875 -1.21625 2.47375 -0.8125 1.6875 C-0.544375 1.130625 -0.27625 0.57375 0 0 Z " fill="#3C417B" transform="translate(39,152)"/>
<path d="M0 0 C0.99 0.33 1.98 0.66 3 1 C3.87890625 3.46875 3.87890625 3.46875 4.5625 6.5 C4.98389416 8.3474682 5.45181428 10.18610799 6 12 C6.66 12.33 7.32 12.66 8 13 C8.71228144 14.98421259 9.36515933 16.98967123 10 19 C10.64965157 20.77714602 11.31736454 22.54776093 12 24.3125 C12.33 25.17488281 12.66 26.03726563 13 26.92578125 C13.81857976 29.16406867 13.81857976 29.16406867 16 30 C16.4140625 32.28515625 16.4140625 32.28515625 16.625 35.0625 C16.69976562 35.98160156 16.77453125 36.90070313 16.8515625 37.84765625 C16.90054688 38.55792969 16.94953125 39.26820313 17 40 C17.66 40 18.32 40 19 40 C19.6987693 41.76641683 20.38366583 43.53832664 21.0625 45.3125 C21.63677734 46.79169922 21.63677734 46.79169922 22.22265625 48.30078125 C23 51 23 51 22 54 C18.9057954 47.99940955 16.22051164 41.91388422 13.671875 35.6640625 C13.08107147 34.22321793 13.08107147 34.22321793 12.47833252 32.75326538 C11.6532829 30.73864796 10.82979863 28.72338883 10.0078125 26.70751953 C8.74451684 23.61156243 7.47412558 20.51858197 6.203125 17.42578125 C5.40061556 15.46371589 4.5985174 13.50148226 3.796875 11.5390625 C3.41569519 10.61203522 3.03451538 9.68500793 2.64178467 8.72988892 C2.2943219 7.87494843 1.94685913 7.02000793 1.58886719 6.13916016 C1.28116394 5.38607574 0.97346069 4.63299133 0.65643311 3.85708618 C0 2 0 2 0 0 Z " fill="#FFFFFF" transform="translate(143,93)"/>
<path d="M0 0 C0 1.65 0 3.3 0 5 C-0.33 4.34 -0.66 3.68 -1 3 C-3.31 3.66 -5.62 4.32 -8 5 C-8 6.32 -8 7.64 -8 9 C-8.99 9 -9.98 9 -11 9 C-11 8.34 -11 7.68 -11 7 C-13.31 7.33 -15.62 7.66 -18 8 C-18.33 8.99 -18.66 9.98 -19 11 C-20.32 10.01 -21.64 9.02 -23 8 C-22.01 7.67 -21.02 7.34 -20 7 C-19.67 5.02 -19.34 3.04 -19 1 C-15.625 0.875 -15.625 0.875 -12 1 C-11.34 1.66 -10.68 2.32 -10 3 C-9.01 2.34 -8.02 1.68 -7 1 C-2 0 -2 0 0 0 Z " fill="#FFFFFF" transform="translate(374,179)"/>
<path d="M0 0 C1.9375 0.625 1.9375 0.625 4 2 C4.6875 5.0625 4.6875 5.0625 5 8 C5.33 8.33 5.66 8.66 6 9 C5.75 12.4375 5.75 12.4375 5 16 C1.57905758 18.28062828 0.31812778 18.21925007 -3.6875 18.125 C-5.17830078 18.09792969 -5.17830078 18.09792969 -6.69921875 18.0703125 C-7.45847656 18.04710937 -8.21773438 18.02390625 -9 18 C-5.97060499 15.58554629 -3.86695903 14.53707764 0 14 C-0.65585189 10.39007621 -0.65585189 10.39007621 -2 7 C-1.39239518 4.6505947 -0.72870472 2.31470912 0 0 Z " fill="#FFFFFF" transform="translate(117,175)"/>
<path d="M0 0 C2.97 0 5.94 0 9 0 C9.66 2.31 10.32 4.62 11 7 C7.83884224 5.63016497 7.0072908 5.0109362 5 2 C4.67 2.99 4.34 3.98 4 5 C4.66 5 5.32 5 6 5 C6 8.96 6 12.92 6 17 C6.99 17 7.98 17 9 17 C9 17.99 9 18.98 9 20 C6.36 20 3.72 20 1 20 C0.67 19.01 0.34 18.02 0 17 C0.99 17 1.98 17 3 17 C3 12.38 3 7.76 3 3 C2.34 3 1.68 3 1 3 C0.67 2.01 0.34 1.02 0 0 Z " fill="#383867" transform="translate(15,173)"/>
<path d="M0 0 C1.54204102 0.04060547 1.54204102 0.04060547 3.11523438 0.08203125 C9.31145273 0.32781854 14.14021383 1.22294556 19.8125 3.75 C19.8125 4.74 19.8125 5.73 19.8125 6.75 C19.09900391 6.316875 19.09900391 6.316875 18.37109375 5.875 C11.95605865 2.47255044 6.24911947 2.43995421 -0.83203125 2.70703125 C-3.6361434 2.74293955 -5.54428358 2.49567803 -8.1875 1.75 C-8.991875 1.915 -9.79625 2.08 -10.625 2.25 C-13.4707481 2.80526792 -15.40341523 2.46590751 -18.1875 1.75 C-17.424375 2.513125 -16.66125 3.27625 -15.875 4.0625 C-13.97916667 5.95833333 -12.08333333 7.85416667 -10.1875 9.75 C-10.5175 10.74 -10.8475 11.73 -11.1875 12.75 C-11.868125 12.028125 -12.54875 11.30625 -13.25 10.5625 C-15.34756249 8.44082759 -17.53745143 6.74424049 -20 5.0625 C-21.051875 4.299375 -22.10375 3.53625 -23.1875 2.75 C-23.1875 2.09 -23.1875 1.43 -23.1875 0.75 C-15.40025007 -0.14590383 -7.82761784 -0.32759846 0 0 Z " fill="#FFFFFF" transform="translate(289.1875,48.25)"/>
<path d="M0 0 C3.5 0.125 3.5 0.125 4.5 1.125 C4.54063832 2.79117115 4.542721 4.45888095 4.5 6.125 C2.52 6.455 0.54 6.785 -1.5 7.125 C-1.5 7.785 -1.5 8.445 -1.5 9.125 C-0.18 9.455 1.14 9.785 2.5 10.125 C2.5 11.115 2.5 12.105 2.5 13.125 C-1.99782507 13.48968852 -1.99782507 13.48968852 -4.18359375 11.90234375 C-5.5 10.125 -5.5 10.125 -5.609375 7.8984375 C-5.49078125 7.10695312 -5.3721875 6.31546875 -5.25 5.5 C-5.08757812 4.30503906 -5.08757812 4.30503906 -4.921875 3.0859375 C-4.18650727 -0.33216064 -3.73091625 0.13324701 0 0 Z " fill="#FFFFFF" transform="translate(79.5,179.875)"/>
<path d="M0 0 C1.82154801 1.82154801 3.58464362 3.64784834 5.3125 5.5625 C9.97800921 9.79400836 14.65851556 10.37622655 20.75390625 10.2734375 C23.06992327 9.9914876 24.76410791 9.41038473 26.875 8.4375 C30 7 30 7 33 8 C27.90781285 11.6701668 23.43518103 14.41204549 17 14 C10.86874959 12.80926312 6.30413856 10.51409654 2 6 C0.625 2.6875 0.625 2.6875 0 0 Z " fill="#C04048" transform="translate(259,30)"/>
<path d="M0 0 C0 5.61 0 11.22 0 17 C0.66 17 1.32 17 2 17 C2 17.99 2 18.98 2 20 C-0.95664519 21.4783226 -3.74229737 21.06032783 -7 21 C-7 20.67 -7 20.34 -7 20 C-5.02 20 -3.04 20 -1 20 C-1.495 19.46375 -1.99 18.9275 -2.5 18.375 C-4.37489544 15.40641555 -4.23501425 13.44687573 -4 10 C-3.34 10 -2.68 10 -2 10 C-2 9.34 -2 8.68 -2 8 C-2.66 8 -3.32 8 -4 8 C-3.67 6.68 -3.34 5.36 -3 4 C-3.66 4 -4.32 4 -5 4 C-5 3.01 -5 2.02 -5 1 C-2 0 -2 0 0 0 Z " fill="#FFFFFF" transform="translate(375,172)"/>
<path d="M0 0 C0.99 0 1.98 0 3 0 C3 1.32 3 2.64 3 4 C3.78375 4.185625 4.5675 4.37125 5.375 4.5625 C8 6 8 6 9.3125 9.3125 C9.87831679 12.34733552 10.18576126 14.93493924 10 18 C9.01 18 8.02 18 7 18 C7 17.34 7 16.68 7 16 C6.34 15.67 5.68 15.34 5 15 C4.1484375 12.49609375 4.1484375 12.49609375 3.375 9.4375 C3.11460938 8.42558594 2.85421875 7.41367188 2.5859375 6.37109375 C2.39257812 5.58863281 2.19921875 4.80617187 2 4 C1.34 4 0.68 4 0 4 C0 2.68 0 1.36 0 0 Z " fill="#FFFFFF" transform="translate(19,174)"/>
<path d="M0 0 C0.99 0 1.98 0 3 0 C3.433125 1.11375 3.433125 1.11375 3.875 2.25 C4.82302644 4.56739797 5.84845911 6.77917115 7 9 C7.66 9 8.32 9 9 9 C10.32 14.61 11.64 20.22 13 26 C12.34 26.33 11.68 26.66 11 27 C9.43115472 23.3164757 7.86463368 19.63197288 6.30029297 15.9465332 C5.76740851 14.6920276 5.23388128 13.43779484 4.69970703 12.18383789 C3.9335445 10.38499062 3.169858 8.5850894 2.40625 6.78515625 C1.94541016 5.70113525 1.48457031 4.61711426 1.00976562 3.50024414 C0 1 0 1 0 0 Z " fill="#FFFFFF" transform="translate(130,63)"/>
<path d="M0 0 C3.00216131 1.50108065 3.8986104 2.74089325 5.125 5.875 C6 9 6 9 6 13 C6.66 13.33 7.32 13.66 8 14 C7.34 14.66 6.68 15.32 6 16 C4.35 12.37 2.7 8.74 1 5 C-1.31 12.59 -3.62 20.18 -6 28 C-6.66 26.68 -7.32 25.36 -8 24 C-7.34 24 -6.68 24 -6 24 C-6.061875 23.34 -6.12375 22.68 -6.1875 22 C-5.98679247 18.78867951 -5.06079024 16.30289289 -3.8671875 13.3359375 C-2.25377692 8.9899036 -1.16218152 4.48387766 0 0 Z " fill="#FFFFFF" transform="translate(66,67)"/>
<path d="M0 0 C1 3 1 3 -0.375 6.6875 C-5.03663976 15.37219872 -13.21433851 20.18493196 -22 24 C-22 22.68 -22 21.36 -22 20 C-20.783125 19.5875 -19.56625 19.175 -18.3125 18.75 C-14.616629 17.3828548 -12.00947759 15.56690736 -9 13 C-8.34 13 -7.68 13 -7 13 C-6.731875 12.4225 -6.46375 11.845 -6.1875 11.25 C-5 9 -5 9 -3.5 7.0625 C-1.86012671 4.80767423 -0.94366089 2.61321478 0 0 Z " fill="#FFFFFF" transform="translate(278,80)"/>
<path d="M0 0 C3.56031885 1.18677295 4.42508345 2.61035054 6.140625 5.86328125 C9.39675333 13.95920032 7.75765902 22.71733283 6 31 C5.67 31.66 5.34 32.32 5 33 C4.34 33 3.68 33 3 33 C3.144375 32.46632812 3.28875 31.93265625 3.4375 31.3828125 C6.08912865 20.73946973 5.18925858 13.11142333 1 3 C0.67 2.01 0.34 1.02 0 0 Z " fill="#FFFFFF" transform="translate(243,115)"/>
<path d="M0 0 C0.66 0 1.32 0 2 0 C1.19705559 5.04707916 0.11500858 9.82082802 -1.4375 14.6875 C-1.68371094 15.47511719 -1.92992187 16.26273438 -2.18359375 17.07421875 C-3 19 -3 19 -5 20 C-7.05497991 13.97391026 -3.86656508 7.86151018 -1.3125 2.375 C-0.6628125 1.199375 -0.6628125 1.199375 0 0 Z " fill="#FFFFFF" transform="translate(48,122)"/>
<path d="M0 0 C0.12375 0.556875 0.2475 1.11375 0.375 1.6875 C0.93801065 4.03353959 0.93801065 4.03353959 2.0390625 6.2265625 C4.22639874 12.53960613 3.29649864 20.1160986 0.58984375 26.13671875 C-0.84577821 28.51584639 -2.32849372 30.78154824 -4 33 C-4.99 32.67 -5.98 32.34 -7 32 C-6.21625 30.989375 -5.4325 29.97875 -4.625 28.9375 C-0.25563741 22.76097895 0.65682003 16.40185644 0 9 C-0.52686219 6.26576691 -1.22071215 3.67880198 -2 1 C-1.34 0.67 -0.68 0.34 0 0 Z " fill="#FFFFFF" transform="translate(243,62)"/>
<path d="M0 0 C0.99 0.33 1.98 0.66 3 1 C3 1.66 3 2.32 3 3 C3.66 3.33 4.32 3.66 5 4 C5.4140625 6.06640625 5.4140625 6.06640625 5.625 8.5625 C5.69976562 9.38878906 5.77453125 10.21507812 5.8515625 11.06640625 C5.90054687 11.70449219 5.94953125 12.34257812 6 13 C6.66 13 7.32 13 8 13 C8.6496875 14.5778125 8.6496875 14.5778125 9.3125 16.1875 C10.32448678 18.57946876 11.36599201 20.58820145 12.75 22.8125 C13.36875 23.8953125 13.36875 23.8953125 14 25 C13.67 25.66 13.34 26.32 13 27 C8.86123082 21.5422824 5.84889212 15.81575504 3.125 9.5625 C2.8148999 8.85222656 2.5047998 8.14195312 2.18530273 7.41015625 C0 2.27842643 0 2.27842643 0 0 Z " fill="#FFFFFF" transform="translate(305,125)"/>
<path d="M0 0 C3 1 3 1 4.38671875 3.14453125 C4.81597656 4.02496094 5.24523437 4.90539062 5.6875 5.8125 C6.12449219 6.68519531 6.56148438 7.55789062 7.01171875 8.45703125 C8 11 8 11 8 15 C8.66 15.33 9.32 15.66 10 16 C10.8515625 18.06640625 10.8515625 18.06640625 11.625 20.5625 C12.01558594 21.80193359 12.01558594 21.80193359 12.4140625 23.06640625 C12.60742188 23.70449219 12.80078125 24.34257813 13 25 C12.34 25.33 11.68 25.66 11 26 C9.35207955 22.23007536 7.70702237 18.45890805 6.0625 14.6875 C5.35963867 13.0797168 5.35963867 13.0797168 4.64257812 11.43945312 C3.9706543 9.89741211 3.9706543 9.89741211 3.28515625 8.32421875 C2.87144775 7.37635498 2.45773926 6.42849121 2.03149414 5.4519043 C1 3 1 3 0 0 Z " fill="#FFFFFF" transform="translate(278,61)"/>
<path d="M0 0 C0.66 0.33 1.32 0.66 2 1 C2 2.32 2 3.64 2 5 C2.66 5 3.32 5 4 5 C4 6.32 4 7.64 4 9 C4.66 9 5.32 9 6 9 C6 9.99 6 10.98 6 12 C3.36 12 0.72 12 -2 12 C-2 11.01 -2 10.02 -2 9 C-1.34 9 -0.68 9 0 9 C0 6.03 0 3.06 0 0 Z " fill="#FFFFFF" transform="translate(300,188)"/>
<path d="M0 0 C2.87270715 3.1462983 3.87037791 6.3814515 5.109375 10.35546875 C6.48261817 14.43303728 8.21068171 18.35203486 9.9140625 22.30078125 C10.81592617 24.54246397 11.49629318 26.64377143 12 29 C11.34 29 10.68 29 10 29 C8.3187427 25.11030393 6.6575963 21.21233129 5 17.3125 C4.52304687 16.20970703 4.04609375 15.10691406 3.5546875 13.97070312 C3.10351562 12.90400391 2.65234375 11.83730469 2.1875 10.73828125 C1.76855469 9.75899658 1.34960938 8.77971191 0.91796875 7.77075195 C-0.00333182 4.98994341 -0.18546704 2.90487755 0 0 Z " fill="#FFFFFF" transform="translate(294,95)"/>
<path d="M0 0 C0.33 0 0.66 0 1 0 C1 3.3 1 6.6 1 10 C1.66 10 2.32 10 3 10 C3 10.99 3 11.98 3 13 C0.69 13 -1.62 13 -4 13 C-4.33 12.01 -4.66 11.02 -5 10 C-4.34 10 -3.68 10 -3 10 C-3 8.35 -3 6.7 -3 5 C-2.34 5.66 -1.68 6.32 -1 7 C-0.67 4.69 -0.34 2.38 0 0 Z " fill="#FFFFFF" transform="translate(98,180)"/>
<path d="M0 0 C0.66 0.33 1.32 0.66 2 1 C-0.64738916 2.4606285 -1.89448334 3 -5 3 C-5 3.66 -5 4.32 -5 5 C-8.63 4.67 -12.26 4.34 -16 4 C-16 4.66 -16 5.32 -16 6 C-12.7 6 -9.4 6 -6 6 C-6 6.33 -6 6.66 -6 7 C-9.63 7 -13.26 7 -17 7 C-17.33 5.68 -17.66 4.36 -18 3 C-16.95199219 2.86722656 -15.90398437 2.73445312 -14.82421875 2.59765625 C-13.44529222 2.41942765 -12.06638707 2.24103359 -10.6875 2.0625 C-9.65206055 1.93198242 -9.65206055 1.93198242 -8.59570312 1.79882812 C-5.59857712 1.40789865 -2.87549881 0.9584996 0 0 Z " fill="#FFFFFF" transform="translate(233,158)"/>
<path d="M0 0 C1.98 0.99 1.98 0.99 4 2 C4 2.66 4 3.32 4 4 C4.99 4.33 5.98 4.66 7 5 C7 5.99 7 6.98 7 8 C7.31088368 9.67099977 7.64080332 11.33871537 8 13 C1.29540481 8.22100656 1.29540481 8.22100656 0.0625 3.125 C0.041875 2.09375 0.02125 1.0625 0 0 Z " fill="#FFFFFF" transform="translate(165,142)"/>
<path d="M0 0 C1.98 0 3.96 0 6 0 C6.33 1.32 6.66 2.64 7 4 C6.34 4 5.68 4 5 4 C5.33 4.99 5.66 5.98 6 7 C6.03874921 8.66621616 6.0450286 10.33394172 6 12 C4.68 12.33 3.36 12.66 2 13 C1.67 12.01 1.34 11.02 1 10 C1.66 10 2.32 10 3 10 C3 7.69 3 5.38 3 3 C2.34 3 1.68 3 1 3 C0.67 2.01 0.34 1.02 0 0 Z " fill="#FFFFFF" transform="translate(304,180)"/>
<path d="M0 0 C0.33 1.65 0.66 3.3 1 5 C-0.98 5 -2.96 5 -5 5 C-5.33 4.34 -5.66 3.68 -6 3 C-6.66 3.66 -7.32 4.32 -8 5 C-8 3.68 -8 2.36 -8 1 C-4.93251126 -0.86240388 -3.40254489 -1.2151946 0 0 Z " fill="#FFFFFF" transform="translate(51,181)"/>
<path d="M0 0 C2.8453918 4.2680877 2.63487857 7.9874122 2 13 C0.92002977 15.92531066 -0.39986491 18.29977204 -2 21 C-2.33 21 -2.66 21 -3 21 C-3 19.02 -3 17.04 -3 15 C-2.01 15 -1.02 15 0 15 C0 10.05 0 5.1 0 0 Z " fill="#CD4042" transform="translate(295,16)"/>
<path d="M0 0 C0.33 0 0.66 0 1 0 C1 1.65 1 3.3 1 5 C1.66 5 2.32 5 3 5 C3 5.99 3 6.98 3 8 C-4.42857143 8.28571429 -4.42857143 8.28571429 -8 6 C-7.67 5.01 -7.34 4.02 -7 3 C-6.01 3 -5.02 3 -4 3 C-4 3.66 -4 4.32 -4 5 C-3.01 5 -2.02 5 -1 5 C-0.67 3.35 -0.34 1.7 0 0 Z " fill="#FFFFFF" transform="translate(89,185)"/>
<path d="M0 0 C0.99 0.33 1.98 0.66 3 1 C2.67 4.63 2.34 8.26 2 12 C0.68 11.67 -0.64 11.34 -2 11 C-2.19622241 6.78121808 -1.80230168 3.82989106 0 0 Z " fill="#FFFFFF" transform="translate(52,105)"/>
<path d="M0 0 C1.65 0 3.3 0 5 0 C5.33 0.66 5.66 1.32 6 2 C5.01 2 4.02 2 3 2 C3 4.64 3 7.28 3 10 C2.731875 9.360625 2.46375 8.72125 2.1875 8.0625 C1.11332248 5.66868314 1.11332248 5.66868314 -2 5 C-1.34 3.35 -0.68 1.7 0 0 Z " fill="#FFFFFF" transform="translate(35,174)"/>
<path d="M0 0 C2.29109597 -0.08075665 4.58299267 -0.13907731 6.875 -0.1875 C8.78925781 -0.23970703 8.78925781 -0.23970703 10.7421875 -0.29296875 C11.81726563 -0.19628906 12.89234375 -0.09960938 14 0 C16 3 16 3 15.625 5.6875 C15.41875 6.450625 15.2125 7.21375 15 8 C14.938125 7.071875 14.938125 7.071875 14.875 6.125 C14.15699269 3.69295455 14.15699269 3.69295455 11.25 2.75 C7.5039547 1.88552801 4.51177603 1.24411199 1 3 C0.67 2.01 0.34 1.02 0 0 Z " fill="#FFFFFF" transform="translate(106,173)"/>
<path d="M0 0 C6.27 0 12.54 0 19 0 C19 0.33 19 0.66 19 1 C17.75283203 1.05607422 17.75283203 1.05607422 16.48046875 1.11328125 C15.39378906 1.17902344 14.30710938 1.24476562 13.1875 1.3125 C11.56908203 1.39951172 11.56908203 1.39951172 9.91796875 1.48828125 C6.82502483 2.03068507 5.86977097 2.55289624 4 5 C2 3.625 2 3.625 0 2 C0 1.34 0 0.68 0 0 Z " fill="#FFFFFF" transform="translate(117,49)"/>
<path d="M0 0 C0.66 0 1.32 0 2 0 C2.33 2.31 2.66 4.62 3 7 C3.66 7 4.32 7 5 7 C5 7.99 5 8.98 5 10 C3.02 10 1.04 10 -1 10 C-1 8.68 -1 7.36 -1 6 C-0.34 6 0.32 6 1 6 C0.67 4.02 0.34 2.04 0 0 Z " fill="#FFFFFF" transform="translate(262,183)"/>
<path d="M0 0 C1.2065625 0.0309375 1.2065625 0.0309375 2.4375 0.0625 C2.32340407 1.52172693 2.19584456 2.97990598 2.0625 4.4375 C1.99289063 5.24960938 1.92328125 6.06171875 1.8515625 6.8984375 C1.4375 9.0625 1.4375 9.0625 -0.5625 11.0625 C-1.5525 7.7625 -2.5425 4.4625 -3.5625 1.0625 C-2.5625 0.0625 -2.5625 0.0625 0 0 Z " fill="#FFFFFF" transform="translate(111.5625,173.9375)"/>
<path d="M0 0 C0.99 0.33 1.98 0.66 3 1 C3.84375 2.8203125 3.84375 2.8203125 4.5 5.125 C5.7446263 9.24082772 7.24660678 13.07573899 9 17 C8.34 17.66 7.68 18.32 7 19 C5.82905995 16.2100561 4.66309073 13.41821403 3.5 10.625 C2.99919922 9.43390625 2.99919922 9.43390625 2.48828125 8.21875 C2.17246094 7.45820312 1.85664062 6.69765625 1.53125 5.9140625 C1.23798828 5.2123291 0.94472656 4.5105957 0.64257812 3.78759766 C0 2 0 2 0 0 Z " fill="#FFFFFF" transform="translate(86,115)"/>
<path d="M0 0 C3.96 0 7.92 0 12 0 C11 2 11 2 8 4 C8 4.66 8 5.32 8 6 C4.33759908 4.43039961 3.06096354 3.06096354 0 0 Z " fill="#FFFFFF" transform="translate(50,49)"/>
<path d="M0 0 C2.36556709 2.36556709 2.58244041 3.74303521 3 7 C2 8 2 8 -1.81640625 8.09765625 C-3.39846682 8.09098089 -4.98051159 8.07901875 -6.5625 8.0625 C-7.36880859 8.05798828 -8.17511719 8.05347656 -9.00585938 8.04882812 C-11.00393756 8.03700518 -13.00197783 8.01906914 -15 8 C-15.33 7.34 -15.66 6.68 -16 6 C-10.72 6.33 -5.44 6.66 0 7 C0 4.69 0 2.38 0 0 Z " fill="#FFFFFF" transform="translate(210,157)"/>
<path d="M0 0 C0.33 0.66 0.66 1.32 1 2 C3.97 1.34 6.94 0.68 10 0 C9.67 1.65 9.34 3.3 9 5 C4.545 5.495 4.545 5.495 0 6 C0.99 5.34 1.98 4.68 3 4 C2.01 3.67 1.02 3.34 0 3 C0 2.01 0 1.02 0 0 Z " fill="#FFFFFF" transform="translate(127,187)"/>
<path d="M0 0 C0.99 0 1.98 0 3 0 C3 0.99 3 1.98 3 3 C5.97 3.495 5.97 3.495 9 4 C8.34 5.65 7.68 7.3 7 9 C6.34 8.67 5.68 8.34 5 8 C5.33 7.34 5.66 6.68 6 6 C3.69 5.67 1.38 5.34 -1 5 C-0.34 4.01 0.32 3.02 1 2 C0.67 1.34 0.34 0.68 0 0 Z " fill="#FFFFFF" transform="translate(347,177)"/>
<path d="M0 0 C6.88490225 -0.57374185 11.02667877 0.5246131 17 4 C12.99511755 5.33496082 10.99264419 4.26433733 7 3 C5.68875631 2.62063047 4.37629934 2.24542213 3.0625 1.875 C2.051875 1.58625 1.04125 1.2975 0 1 C0 0.67 0 0.34 0 0 Z " fill="#D84547" transform="translate(273,4)"/>
<path d="M0 0 C0.33 0 0.66 0 1 0 C1 1.65 1 3.3 1 5 C-5.625 6.25 -5.625 6.25 -9 4 C-9 3.34 -9 2.68 -9 2 C-7.1875 1.375 -7.1875 1.375 -5 1 C-4.01 1.66 -3.02 2.32 -2 3 C-1.67 2.34 -1.34 1.68 -1 1 C-0.67 0.67 -0.34 0.34 0 0 Z " fill="#FFFFFF" transform="translate(373,187)"/>
<path d="M0 0 C0.99 0 1.98 0 3 0 C3 1.32 3 2.64 3 4 C4.32 4.66 5.64 5.32 7 6 C6.01 6.495 6.01 6.495 5 7 C5.33 8.32 5.66 9.64 6 11 C5.34 11 4.68 11 4 11 C3.34 8.69 2.68 6.38 2 4 C1.34 4 0.68 4 0 4 C0 2.68 0 1.36 0 0 Z " fill="#FFFFFF" transform="translate(19,174)"/>
<path d="M0 0 C2.52113092 -0.05447822 5.0410585 -0.09389852 7.5625 -0.125 C8.26697266 -0.14175781 8.97144531 -0.15851562 9.69726562 -0.17578125 C14.51891822 -0.22022044 18.42297438 0.47231996 23 2 C21.3125 3.125 21.3125 3.125 19 4 C18.278125 3.7009375 17.55625 3.401875 16.8125 3.09375 C13.3777478 1.75801304 10.36029276 1.580951 6.6875 1.375 C4.80611328 1.26285156 4.80611328 1.26285156 2.88671875 1.1484375 C1.45779297 1.07496094 1.45779297 1.07496094 0 1 C0 0.67 0 0.34 0 0 Z " fill="#FFFFFF" transform="translate(239,49)"/>
<path d="M0 0 C0.99 0 1.98 0 3 0 C3.125 7.75 3.125 7.75 2 10 C0.35 10 -1.3 10 -3 10 C-2.505 9.649375 -2.01 9.29875 -1.5 8.9375 C0.73063966 6.05625711 0.19980621 3.52990974 0 0 Z " fill="#FFFFFF" transform="translate(321,182)"/>
<path d="M0 0 C-0.99 0.33 -1.98 0.66 -3 1 C-2.67 1.99 -2.34 2.98 -2 4 C-3.98 4.66 -5.96 5.32 -8 6 C-8.33 5.01 -8.66 4.02 -9 3 C-6.38997624 -0.48003168 -4.1689578 -0.27793052 0 0 Z " fill="#FFFFFF" transform="translate(197,180)"/>
<path d="M0 0 C0.33 0.66 0.66 1.32 1 2 C2.32 1.67 3.64 1.34 5 1 C5.66 2.32 6.32 3.64 7 5 C5.02 4.34 3.04 3.68 1 3 C-0.00217064 6.58327753 -0.00217064 6.58327753 1 10 C0.01 10 -0.98 10 -2 10 C-1.85950482 8.52031676 -1.71245174 7.04125484 -1.5625 5.5625 C-1.48128906 4.73878906 -1.40007812 3.91507813 -1.31640625 3.06640625 C-1 1 -1 1 0 0 Z " fill="#FFFFFF" transform="translate(76,180)"/>
<path d="M0 0 C1.6074328 0.93188881 3.21082799 1.87074435 4.8125 2.8125 C5.70582031 3.33457031 6.59914063 3.85664062 7.51953125 4.39453125 C9.66831987 5.78532199 11.29361617 7.1122066 13 9 C12.67 9.99 12.34 10.98 12 12 C11.319375 11.278125 10.63875 10.55625 9.9375 9.8125 C7.83993751 7.69082759 5.65004857 5.99424049 3.1875 4.3125 C2.135625 3.549375 1.08375 2.78625 0 2 C0 1.34 0 0.68 0 0 Z " fill="#FFFFFF" transform="translate(266,49)"/>
<path d="M0 0 C0.02687279 1.81242052 0.04633715 3.62495233 0.0625 5.4375 C0.07410156 6.44683594 0.08570313 7.45617187 0.09765625 8.49609375 C0 11 0 11 -1 12 C-2.99958364 12.04080783 -5.00045254 12.04254356 -7 12 C-7 11.67 -7 11.34 -7 11 C-5.35 10.67 -3.7 10.34 -2 10 C-2 8.35 -2 6.7 -2 5 C-2.99 4.67 -3.98 4.34 -5 4 C-1.125 0 -1.125 0 0 0 Z " fill="#FFFFFF" transform="translate(143,181)"/>
<path d="M0 0 C0.33 0 0.66 0 1 0 C1.33 1.65 1.66 3.3 2 5 C2.66 5 3.32 5 4 5 C3.67 6.32 3.34 7.64 3 9 C1.35 8.67 -0.3 8.34 -2 8 C-2 7.01 -2 6.02 -2 5 C-1.34 5.33 -0.68 5.66 0 6 C0 4.02 0 2.04 0 0 Z " fill="#FFFFFF" transform="translate(70,184)"/>
<path d="M0 0 C0.66 0.66 1.32 1.32 2 2 C1.625 5.125 1.625 5.125 1 8 C1.99 8 2.98 8 4 8 C4 7.34 4 6.68 4 6 C4.66 6 5.32 6 6 6 C6 6.99 6 7.98 6 9 C3.69 9 1.38 9 -1 9 C-1.33 8.01 -1.66 7.02 -2 6 C-1.34 6 -0.68 6 0 6 C0 4.02 0 2.04 0 0 Z " fill="#FFFFFF" transform="translate(172,184)"/>
<path d="M0 0 C1.32 0 2.64 0 4 0 C4 3.3 4 6.6 4 10 C3.01 9.67 2.02 9.34 1 9 C1.33 6.69 1.66 4.38 2 2 C1.01 1.67 0.02 1.34 -1 1 C-0.67 0.67 -0.34 0.34 0 0 Z " fill="#FFFFFF" transform="translate(254,182)"/>
<path d="M0 0 C0.66 0.33 1.32 0.66 2 1 C2 1.66 2 2.32 2 3 C2.99 3 3.98 3 5 3 C4.67 4.32 4.34 5.64 4 7 C3.01 6.34 2.02 5.68 1 5 C0.34 6.65 -0.32 8.3 -1 10 C-2.46726798 6.18510326 -1.43336419 3.70988378 0 0 Z " fill="#FFFFFF" transform="translate(40,141)"/>
<path d="M0 0 C3.6575515 1.21918383 4.42328869 2.84071298 6.21484375 6.14453125 C7.217815 8.51473693 7.30800164 10.45898646 7 13 C6.67 12.01 6.34 11.02 6 10 C5.34 10 4.68 10 4 10 C2.68 6.7 1.36 3.4 0 0 Z " fill="#FFFFFF" transform="translate(243,115)"/>
<path d="M0 0 C0.99 0.33 1.98 0.66 3 1 C3 3.31 3 5.62 3 8 C2.01 8.33 1.02 8.66 0 9 C-1.15941038 5.52176885 -0.70820884 3.54104422 0 0 Z " fill="#FFFFFF" transform="translate(149,181)"/>
<path d="M0 0 C0.66 0.66 1.32 1.32 2 2 C4.10820797 1.6814823 4.10820797 1.6814823 6 1 C6 1.99 6 2.98 6 4 C3.36 4 0.72 4 -2 4 C-2.33 3.01 -2.66 2.02 -3 1 C-2.01 0.67 -1.02 0.34 0 0 Z " fill="#FFFFFF" transform="translate(18,189)"/>
<path d="M0 0 C0.99 0 1.98 0 3 0 C3 0.99 3 1.98 3 3 C3.99 3 4.98 3 6 3 C6.33 5.31 6.66 7.62 7 10 C6.01 10.495 6.01 10.495 5 11 C5.33 9.35 5.66 7.7 6 6 C5.071875 5.9071875 5.071875 5.9071875 4.125 5.8125 C2 5 2 5 0.75 2.4375 C0.5025 1.633125 0.255 0.82875 0 0 Z " fill="#FFFFFF" transform="translate(68,177)"/>
<path d="M0 0 C0.99 0 1.98 0 3 0 C4.49140021 3.62197194 5.7874262 7.27566618 7 11 C6.01 11.495 6.01 11.495 5 12 C3.35 8.04 1.7 4.08 0 0 Z " fill="#FFFFFF" transform="translate(130,63)"/>
<path d="M0 0 C3.3 0 6.6 0 10 0 C9.01 1.485 9.01 1.485 8 3 C6.0546875 3.29296875 6.0546875 3.29296875 3.875 3.1875 C2.59625 3.125625 1.3175 3.06375 0 3 C0 2.01 0 1.02 0 0 Z " fill="#FFFFFF" transform="translate(168,49)"/>
<path d="M0 0 C6.625 0.75 6.625 0.75 10 3 C9.195625 3.12375 8.39125 3.2475 7.5625 3.375 C6.2940625 3.684375 6.2940625 3.684375 5 4 C4.67 4.66 4.34 5.32 4 6 C3.34 6 2.68 6 2 6 C2 4.35 2 2.7 2 1 C1.34 0.67 0.68 0.34 0 0 Z " fill="#FFFFFF" transform="translate(148,49)"/>
<path d="M0 0 C7.75 0.75 7.75 0.75 10 3 C10.99 3.66 11.98 4.32 13 5 C8.02693484 4.50269348 4.36200187 3.44697666 0 1 C0 0.67 0 0.34 0 0 Z " fill="#FFFFFF" transform="translate(327,159)"/>
<path d="M0 0 C1.79068573 2.6860286 2.66055791 4.6626589 3.625 7.6875 C3.88539063 8.49574219 4.14578125 9.30398437 4.4140625 10.13671875 C4.60742188 10.75160156 4.80078125 11.36648437 5 12 C3.046875 11.3203125 3.046875 11.3203125 1 10 C0.390625 7.6171875 0.390625 7.6171875 0.25 4.875 C0.19328125 3.96492187 0.1365625 3.05484375 0.078125 2.1171875 C0.05234375 1.41851562 0.0265625 0.71984375 0 0 Z " fill="#FFFFFF" transform="translate(139,145)"/>
<path d="M0 0 C0.33 0.66 0.66 1.32 1 2 C1.99 2 2.98 2 4 2 C4 2.99 4 3.98 4 5 C2.02 5 0.04 5 -2 5 C-2.33 4.34 -2.66 3.68 -3 3 C-2.34 3 -1.68 3 -1 3 C-0.67 2.01 -0.34 1.02 0 0 Z " fill="#FFFFFF" transform="translate(62,188)"/>
<path d="M0 0 C1.98 0.495 1.98 0.495 4 1 C3.67 2.32 3.34 3.64 3 5 C1.68 4.67 0.36 4.34 -1 4 C-0.67 2.68 -0.34 1.36 0 0 Z " fill="#FFFFFF" transform="translate(95,174)"/>
<path d="M0 0 C0.99 0 1.98 0 3 0 C5 3 5 3 5 6 C1.83884224 4.63016497 1.0072908 4.0109362 -1 1 C-0.67 0.67 -0.34 0.34 0 0 Z " fill="#FFFFFF" transform="translate(322,153)"/>
<path d="M0 0 C-3.42346555 3.14958831 -6.44262737 3.56179109 -11 4 C-7.84441727 0.34616736 -4.73375145 -1.57791715 0 0 Z " fill="#D54244" transform="translate(292,38)"/>
<path d="M0 0 C0 2.64 0 5.28 0 8 C-0.33 8 -0.66 8 -1 8 C-1 6.02 -1 4.04 -1 2 C-2.98 2.99 -2.98 2.99 -5 4 C-5.33 3.01 -5.66 2.02 -6 1 C-3 0 -3 0 0 0 Z " fill="#FFFFFF" transform="translate(211,172)"/>
<path d="M0 0 C2.6895528 2.6895528 3.69331154 5.45327417 5 9 C4.67 9.99 4.34 10.98 4 12 C3.13624104 10.38007835 2.28424146 8.75388139 1.4375 7.125 C0.72400391 5.76761719 0.72400391 5.76761719 -0.00390625 4.3828125 C-0.33261719 3.59648437 -0.66132813 2.81015625 -1 2 C-0.67 1.34 -0.34 0.68 0 0 Z " fill="#FFFFFF" transform="translate(202,138)"/>
<path d="M0 0 C0.66 0.33 1.32 0.66 2 1 C2.625 3.0625 2.625 3.0625 3 5 C2.34 5 1.68 5 1 5 C1 5.99 1 6.98 1 8 C0.01 7.67 -0.98 7.34 -2 7 C-1.34 4.69 -0.68 2.38 0 0 Z " fill="#FFFFFF" transform="translate(57,91)"/>
<path d="M0 0 C2.6855594 2.6855594 3.06049974 5.37621328 4 9 C2.35 8.67 0.7 8.34 -1 8 C-0.34 7.67 0.32 7.34 1 7 C0.67 4.69 0.34 2.38 0 0 Z " fill="#FFFFFF" transform="translate(331,90)"/>
<path d="M0 0 C3.86107457 2.57404971 3.94319692 4.61020259 5 9 C4.01 9.495 4.01 9.495 3 10 C0 3.375 0 3.375 0 0 Z " fill="#FFFFFF" transform="translate(138,80)"/>
<path d="M0 0 C2.31 0 4.62 0 7 0 C7 0.66 7 1.32 7 2 C4.69 2.33 2.38 2.66 0 3 C0 2.01 0 1.02 0 0 Z " fill="#FFFFFF" transform="translate(356,190)"/>
<path d="M0 0 C0.33 1.32 0.66 2.64 1 4 C0.01 4.66 -0.98 5.32 -2 6 C-2 5.34 -2 4.68 -2 4 C-3.65 4 -5.3 4 -7 4 C-6.67 3.34 -6.34 2.68 -6 2 C-4.02 2 -2.04 2 0 2 C0 1.34 0 0.68 0 0 Z " fill="#FFFFFF" transform="translate(199,186)"/>
<path d="M0 0 C0 0.99 0 1.98 0 3 C-2.375 3.1875 -2.375 3.1875 -5 3 C-5.66 2.01 -6.32 1.02 -7 0 C-2.25 -1.125 -2.25 -1.125 0 0 Z " fill="#FFFFFF" transform="translate(82,190)"/>
<path d="M0 0 C1.5 1.375 1.5 1.375 3 3 C3 3.66 3 4.32 3 5 C3.66 5.33 4.32 5.66 5 6 C3.02 6 1.04 6 -1 6 C-0.67 4.02 -0.34 2.04 0 0 Z " fill="#FFFFFF" transform="translate(268,184)"/>
<path d="M0 0 C0.99 0.33 1.98 0.66 3 1 C4.0625 3.375 4.0625 3.375 5 6 C5.99 7.485 5.99 7.485 7 9 C6.01 9.495 6.01 9.495 5 10 C4.16121545 8.71186658 3.32913217 7.41936744 2.5 6.125 C2.0359375 5.40570313 1.571875 4.68640625 1.09375 3.9453125 C0 2 0 2 0 0 Z " fill="#FFFFFF" transform="translate(97,142)"/>
<path d="M0 0 C2.26185454 2.26185454 3.03921617 3.96983561 4 7 C3.67 7.99 3.34 8.98 3 10 C1 6.25 1 6.25 1 4 C0.34 4 -0.32 4 -1 4 C-0.67 2.68 -0.34 1.36 0 0 Z " fill="#FFFFFF" transform="translate(195,121)"/>
<path d="M0 0 C3.67420866 0.30618405 4.78135513 0.75771784 7.3125 3.5625 C8.1478125 4.7690625 8.1478125 4.7690625 9 6 C4.58763974 6 3.21615077 3.9302707 0 1 C0 0.67 0 0.34 0 0 Z " fill="#FFFFFF" transform="translate(235,108)"/>
<path d="M0 0 C2.15377564 2.62198774 3.40072174 4.64404172 4 8 C3.01 8.33 2.02 8.66 1 9 C0.67 6.03 0.34 3.06 0 0 Z " fill="#FFFFFF" transform="translate(171,65)"/>
<path d="M0 0 C0.66 0 1.32 0 2 0 C2.99 2.31 3.98 4.62 5 7 C4.01 7.495 4.01 7.495 3 8 C0.37613513 4.93882432 0 4.26826873 0 0 Z " fill="#FFFFFF" transform="translate(179,184)"/>
<path d="M0 0 C0 1.65 0 3.3 0 5 C-0.66 4.34 -1.32 3.68 -2 3 C-2.66 4.32 -3.32 5.64 -4 7 C-4.33 5.35 -4.66 3.7 -5 2 C-2 0 -2 0 0 0 Z " fill="#FFFFFF" transform="translate(228,172)"/>
<path d="" fill="#FFFFFF" transform="translate(0,0)"/>
<path d="" fill="#FFFFFF" transform="translate(0,0)"/>
<path d="" fill="#FFFFFF" transform="translate(0,0)"/>
<path d="" fill="#FFFFFF" transform="translate(0,0)"/>
<path d="" fill="#FFFFFF" transform="translate(0,0)"/>
<path d="" fill="#FFFFFF" transform="translate(0,0)"/>
<path d="" fill="#FFFFFF" transform="translate(0,0)"/>
<path d="" fill="#FFFFFF" transform="translate(0,0)"/>
<path d="" fill="#FFFFFF" transform="translate(0,0)"/>
<path d="" fill="#FFFFFF" transform="translate(0,0)"/>
<path d="" fill="#FFFFFF" transform="translate(0,0)"/>
<path d="" fill="#FFFFFF" transform="translate(0,0)"/>
<path d="" fill="#FFFFFF" transform="translate(0,0)"/>
<path d="" fill="#FFFFFF" transform="translate(0,0)"/>
<path d="" fill="#FFFFFF" transform="translate(0,0)"/>
<path d="" fill="#FFFFFF" transform="translate(0,0)"/>
<path d="" fill="#FFFFFF" transform="translate(0,0)"/>
<path d="" fill="#FFFFFF" transform="translate(0,0)"/>
<path d="" fill="#FFFFFF" transform="translate(0,0)"/>
<path d="" fill="#FFFFFF" transform="translate(0,0)"/>
<path d="" fill="#FFFFFF" transform="translate(0,0)"/>
<path d="" fill="#FFFFFF" transform="translate(0,0)"/>
<path d="" fill="#FFFFFF" transform="translate(0,0)"/>
<path d="" fill="#FFFFFF" transform="translate(0,0)"/>
<path d="" fill="#FFFFFF" transform="translate(0,0)"/>
<path d="" fill="#FFFFFF" transform="translate(0,0)"/>
<path d="" fill="#FFFFFF" transform="translate(0,0)"/>
<path d="" fill="#FFFFFF" transform="translate(0,0)"/>
<path d="" fill="#FFFFFF" transform="translate(0,0)"/>
<path d="" fill="#FFFFFF" transform="translate(0,0)"/>
<path d="" fill="#FFFFFF" transform="translate(0,0)"/>
<path d="" fill="#FFFFFF" transform="translate(0,0)"/>
<path d="" fill="#FFFFFF" transform="translate(0,0)"/>
<path d="" fill="#FFFFFF" transform="translate(0,0)"/>
<path d="" fill="#FFFFFF" transform="translate(0,0)"/>
<path d="" fill="#FFFFFF" transform="translate(0,0)"/>
<path d="" fill="#FFFFFF" transform="translate(0,0)"/>
<path d="" fill="#FFFFFF" transform="translate(0,0)"/>
<path d="" fill="#FFFFFF" transform="translate(0,0)"/>
<path d="" fill="#FFFFFF" transform="translate(0,0)"/>
<path d="" fill="#FFFFFF" transform="translate(0,0)"/>
<path d="" fill="#FFFFFF" transform="translate(0,0)"/>
<path d="" fill="#FFFFFF" transform="translate(0,0)"/>
<path d="" fill="#FFFFFF" transform="translate(0,0)"/>
<path d="" fill="#FFFFFF" transform="translate(0,0)"/>
<path d="" fill="#FFFFFF" transform="translate(0,0)"/>
<path d="" fill="#FFFFFF" transform="translate(0,0)"/>
<path d="" fill="#FFFFFF" transform="translate(0,0)"/>
<path d="" fill="#FFFFFF" transform="translate(0,0)"/>
<path d="" fill="#FFFFFF" transform="translate(0,0)"/>
<path d="" fill="#FFFFFF" transform="translate(0,0)"/>
<path d="" fill="#FFFFFF" transform="translate(0,0)"/>
<path d="" fill="#FFFFFF" transform="translate(0,0)"/>
<path d="" fill="#FFFFFF" transform="translate(0,0)"/>
<path d="" fill="#FFFFFF" transform="translate(0,0)"/>
<path d="" fill="#FFFFFF" transform="translate(0,0)"/>
<path d="" fill="#FFFFFF" transform="translate(0,0)"/>
<path d="" fill="#FFFFFF" transform="translate(0,0)"/>
<path d="" fill="#FFFFFF" transform="translate(0,0)"/>
<path d="" fill="#FFFFFF" transform="translate(0,0)"/>
<path d="" fill="#FFFFFF" transform="translate(0,0)"/>
<path d="" fill="#FFFFFF" transform="translate(0,0)"/>
<path d="" fill="#FFFFFF" transform="translate(0,0)"/>
</svg>
